<svg width="16" height="16" viewBox="0 0 16 16" fill="none" xmlns="http://www.w3.org/2000/svg">
<path fill-rule="evenodd" clip-rule="evenodd" d="M7.99976 1.99927C8.13236 1.99927 8.25954 2.05195 8.35331 2.14571C8.44708 2.23948 8.49976 2.36666 8.49976 2.49927V7.49927H13.4998C13.6324 7.49927 13.7595 7.55195 13.8533 7.64571C13.9471 7.73948 13.9998 7.86666 13.9998 7.99927C13.9998 8.13188 13.9471 8.25905 13.8533 8.35282C13.7595 8.44659 13.6324 8.49927 13.4998 8.49927H8.49976V13.4993C8.49976 13.6319 8.44708 13.7591 8.35331 13.8528C8.25954 13.9466 8.13236 13.9993 7.99976 13.9993C7.86715 13.9993 7.73997 13.9466 7.6462 13.8528C7.55243 13.7591 7.49976 13.6319 7.49976 13.4993V8.49927H2.49976C2.36715 8.49927 2.23997 8.44659 2.1462 8.35282C2.05243 8.25905 1.99976 8.13188 1.99976 7.99927C1.99976 7.86666 2.05243 7.73948 2.1462 7.64571C2.23997 7.55195 2.36715 7.49927 2.49976 7.49927H7.49976V2.49927C7.49976 2.36666 7.55243 2.23948 7.6462 2.14571C7.73997 2.05195 7.86715 1.99927 7.99976 1.99927Z" fill="white"/>
</svg>
