<svg width="73" height="83" viewBox="0 0 73 83" fill="none" xmlns="http://www.w3.org/2000/svg">
<path d="M58.8705 12.4076L46.72 0.256655C46.5487 0.0853531 46.2921 0 46.0354 0H1.02722C0.427957 0 0 0.427957 0 0.941267V73.5876C0 74.1009 0.427956 74.6142 1.02662 74.6142H34.2266C34.7399 74.6142 35.2532 74.1862 35.2532 73.5876C35.2532 72.9883 34.8252 72.561 34.2266 72.561H1.96786V1.96825H45.008V14.1188H57.1585V44.1527C57.1585 44.666 57.5865 45.1794 58.1851 45.1794C58.7844 45.1794 59.2118 44.7514 59.2118 44.1527V13.092C59.1264 12.8353 59.041 12.5786 58.8697 12.4079L58.8705 12.4076ZM46.9767 3.33706L55.7047 12.065H46.9767V3.33706Z" fill="white"/>
<path d="M54.9344 83C45.0945 83 37.0509 74.9566 37.0509 65.1165C37.0509 55.276 45.0943 47.3186 54.9344 47.3186C64.7743 47.3186 72.8179 55.362 72.8179 65.2021C72.8185 75.0426 64.775 83 54.9344 83ZM54.9344 49.2866C46.2064 49.2866 39.1045 56.3887 39.1045 65.1165C39.1045 73.8443 46.2066 80.9464 54.9344 80.9464C63.6624 80.9458 70.7643 73.929 70.7643 65.2021C70.7643 56.3887 63.6622 49.2866 54.9344 49.2866Z" fill="white"/>
<path d="M60.6674 64.1753H55.8758V59.3837C55.8758 58.7844 55.4479 58.3571 54.8492 58.3571C54.25 58.3571 53.8226 58.785 53.8226 59.3837V64.1753H49.031C48.4318 64.1753 48.0044 64.6032 48.0044 65.2019C48.0044 65.8012 48.4324 66.2285 49.031 66.2285H53.8226V71.0201C53.8226 71.6194 54.2506 72.0467 54.8492 72.0467C55.4485 72.0467 55.8758 71.6188 55.8758 71.0201V66.2285H60.6674C61.2667 66.2285 61.6941 65.8006 61.6941 65.2019C61.6941 64.6032 61.2661 64.1753 60.6674 64.1753Z" fill="white"/>
<path d="M9.15383 10.2837C8.51735 10.2837 8.00158 10.7994 8.00158 11.4359C8.00098 11.7413 8.12229 12.0348 8.33864 12.2511C8.55498 12.4675 8.84784 12.5888 9.15383 12.5888H21.9985C22.3098 12.5978 22.6111 12.48 22.8346 12.2631C23.0575 12.0455 23.1836 11.7479 23.1836 11.4365C23.1836 11.1246 23.0575 10.8269 22.8346 10.6094C22.6111 10.3925 22.3099 10.2747 21.9985 10.2837H9.15383Z" fill="white"/>
<path d="M8.33864 14.8759C8.1223 15.0923 8.00098 15.3851 8.00158 15.6911L8.00251 15.6875C8.00131 15.9935 8.12262 16.2876 8.33838 16.5045C8.55472 16.7215 8.84818 16.8434 9.15477 16.8434H32.3585C32.6698 16.8517 32.9716 16.7346 33.1946 16.5171C33.4181 16.3001 33.5436 16.0019 33.5436 15.6905C33.5436 15.3792 33.4181 15.0809 33.1946 14.864C32.9716 14.647 32.6704 14.5293 32.3591 14.5383H9.15383C8.84784 14.5383 8.555 14.6596 8.33864 14.8759Z" fill="white"/>
<path d="M9.15383 18.7936C8.51735 18.7936 8.00158 19.3093 8.00158 19.9458C8.00098 20.2512 8.12322 20.5447 8.33958 20.761C8.55592 20.9774 8.84877 21.0987 9.15477 21.0987H32.3585C32.6698 21.1077 32.9716 20.9899 33.1946 20.773C33.4181 20.5554 33.5436 20.2572 33.5436 19.9458C33.5436 19.6345 33.4181 19.3368 33.1946 19.1193C32.9716 18.9024 32.6704 18.7846 32.3591 18.7936H9.15383Z" fill="white"/>
<path d="M49.9734 29.4766C50.6098 29.4766 51.1256 28.9608 51.1256 28.3243C51.1262 28.0189 51.0049 27.7255 50.7885 27.5091C50.5722 27.2928 50.2793 27.1715 49.9734 27.1715H9.15347C8.52893 27.1888 8.03228 27.6998 8.03228 28.3237C8.03228 28.9483 8.52893 29.4592 9.15347 29.4766H49.9734Z" fill="white"/>
<path d="M49.9734 36.4123C50.6098 36.4123 51.1256 35.8965 51.1256 35.26C51.1262 34.954 51.0049 34.6606 50.7885 34.4448C50.5722 34.2285 50.2793 34.1065 49.9734 34.1065H9.15347C8.52893 34.1239 8.03228 34.6349 8.03228 35.2594C8.03228 35.884 8.52893 36.395 9.15347 36.4123H49.9734Z" fill="white"/>
<path d="M50.7885 43.0097C51.0049 42.7934 51.1262 42.5005 51.1256 42.1945C51.1256 41.558 50.6099 41.0422 49.9734 41.0422H9.15347C8.52893 41.0596 8.03228 41.5706 8.03228 42.1951C8.03228 42.8191 8.52893 43.33 9.15347 43.3474H49.9734C50.2793 43.3474 50.5722 43.2261 50.7885 43.0097Z" fill="white"/>
<path d="M48.9734 50.2831C49.6098 50.2825 50.1256 49.7667 50.1256 49.1302C50.1256 48.4937 49.6099 47.9774 48.9734 47.9768H9.15347C8.51637 47.9768 8 48.4931 8 49.1302C8 49.7667 8.51637 50.2831 9.15347 50.2831H48.9734Z" fill="white"/>
<path d="M36.0458 56.8919C36.2687 57.1088 36.5705 57.2266 36.8819 57.2176H40L41.5 54.9125H36.8819C36.5705 54.9041 36.2687 55.0212 36.0458 55.2388C35.8223 55.4557 35.6968 55.754 35.6968 56.0653C35.6968 56.3767 35.8223 56.6749 36.0458 56.8919Z" fill="white"/>
</svg>
