<svg width="85" height="83" viewBox="0 0 85 83" fill="none" xmlns="http://www.w3.org/2000/svg">
<path d="M12.9752 73.6589H8.49234C7.78688 73.6589 7.21521 74.2306 7.21521 74.936C7.21521 75.6415 7.78688 76.2132 8.49234 76.2132H12.9752C13.6806 76.2132 14.2523 75.6415 14.2523 74.936C14.2523 74.2306 13.6806 73.6589 12.9752 73.6589Z" fill="white"/>
<path d="M35.6375 73.6589H17.7014C16.996 73.6589 16.4243 74.2306 16.4243 74.936C16.4243 75.6415 16.996 76.2132 17.7014 76.2132H35.6375C36.3429 76.2132 36.9146 75.6415 36.9146 74.936C36.9146 74.2306 36.3429 73.6589 35.6375 73.6589Z" fill="white"/>
<path d="M84.8446 45.9406C84.8392 45.7468 84.8005 45.5545 84.7305 45.3728C84.7093 45.3142 84.6849 45.2565 84.6576 45.2002C84.6401 45.1645 84.6325 45.1265 84.612 45.0915L79.5217 36.3895H79.5225C79.2169 35.8673 78.6574 35.5465 78.0523 35.5465H64.5923V10.4009L64.5915 10.3979L64.5923 10.3987C64.587 10.1987 64.5474 10.0018 64.4745 9.81558C64.4562 9.76617 64.4372 9.7198 64.4144 9.67191C64.3939 9.62934 64.384 9.58296 64.3597 9.54115L59.2695 0.84229V0.84305C58.9639 0.320795 58.4044 0 57.7992 0H27.2591C26.654 0 26.0945 0.320795 25.7889 0.84305L20.7003 9.54191C20.6759 9.58372 20.666 9.6301 20.6455 9.67267C20.6227 9.7198 20.6037 9.76617 20.5855 9.81558C20.5125 10.0011 20.473 10.1987 20.4684 10.3987L20.4676 10.4017V35.5472H6.78637C6.18201 35.5472 5.6225 35.868 5.31691 36.3903L0.226695 45.0923C0.201608 45.1348 0.190966 45.1827 0.170441 45.2268C0.152196 45.2656 0.136991 45.3028 0.121788 45.3431C0.0381665 45.5507 -0.00288255 45.7734 0.000157252 45.9969V81.2972C0.000157252 81.7487 0.179564 82.182 0.498845 82.5013C0.818122 82.8214 1.25144 83.0008 1.70299 83H83.1414C83.5929 83.0008 84.0262 82.8214 84.3455 82.5013C84.6648 82.182 84.8442 81.7487 84.8442 81.2972V45.9443L84.8446 45.9406ZM58.3874 47.6541H67.1775V62.7652H58.3874V47.6541ZM17.6672 47.6541H26.4589V62.7652H17.6664L17.6672 47.6541ZM38.1343 12.1047H46.9245V27.2242L38.1336 27.2234L38.1343 12.1047ZM37.5072 30.6298L47.5508 30.6291C49.0841 30.6268 50.3271 29.3839 50.3292 27.8506V12.104H61.1848V44.0511H23.8722V12.104H34.7277V27.8506C34.73 29.3847 35.9729 30.6269 37.5062 30.6291L37.5072 30.6298ZM77.0752 38.9525L80.1685 44.2405H64.5914V38.9525H77.0752ZM28.236 3.4051H56.8222L59.9184 8.6983L25.1397 8.69754L28.236 3.4051ZM7.763 38.9525H20.4673V44.2405H4.66968L7.763 38.9525ZM3.40627 47.6545H14.2618V63.392H14.261C14.2633 64.9261 15.5062 66.1691 17.0403 66.1712H27.0862H27.0855C28.6195 66.169 29.8625 64.9261 29.8647 63.392V47.6545H40.7202V79.5939H3.40573L3.40627 47.6545ZM44.1264 79.5939V47.6545H54.982V63.392C54.9842 64.9261 56.2264 66.1691 57.7604 66.1712H67.8048H67.804C69.3381 66.169 70.5811 64.9261 70.5833 63.392V47.6545H81.4388V79.5939H44.1264Z" fill="white"/>
<path d="M53.6934 73.6589H49.2105C48.5051 73.6589 47.9334 74.2306 47.9334 74.936C47.9334 75.6415 48.5051 76.2132 49.2105 76.2132H53.6934C54.3988 76.2132 54.9705 75.6415 54.9705 74.936C54.9705 74.2306 54.3988 73.6589 53.6934 73.6589Z" fill="white"/>
<path d="M76.3557 73.6589H58.4197C57.7142 73.6589 57.1426 74.2306 57.1426 74.936C57.1426 75.6415 57.7142 76.2132 58.4197 76.2132H76.3557C77.0612 76.2132 77.6328 75.6415 77.6328 74.936C77.6328 74.2306 77.0612 73.6589 76.3557 73.6589Z" fill="white"/>
<path d="M33.4403 38.1154H28.9567C28.2512 38.1154 27.6796 38.687 27.6796 39.3925C27.6796 40.0979 28.2512 40.6696 28.9567 40.6696H33.4403C34.1458 40.6696 34.7174 40.0979 34.7174 39.3925C34.7174 38.687 34.1458 38.1154 33.4403 38.1154Z" fill="white"/>
<path d="M38.1674 40.6687H56.1034C56.8089 40.6687 57.3805 40.097 57.3805 39.3915C57.3805 38.6861 56.8089 38.1144 56.1034 38.1144H38.1674C37.4619 38.1144 36.8903 38.6861 36.8903 39.3915C36.8903 40.097 37.4619 40.6687 38.1674 40.6687Z" fill="white"/>
</svg>
