<svg width="24" height="36" viewBox="0 0 24 36" fill="none" xmlns="http://www.w3.org/2000/svg">
<g clip-path="url(#clip0_372_526519)">
<path fill-rule="evenodd" clip-rule="evenodd" d="M17.6505 36H6.7178C4.85094 36 3.35933 34.524 3.24748 32.5657L2.16287 13.4842C2.1506 13.2679 2.31658 13.0825 2.53451 13.0695C2.75389 13.0552 2.9379 13.2226 2.95089 13.4396L4.03622 32.5204C4.12354 34.0554 5.27598 35.2131 6.7178 35.2131H17.6505C19.0923 35.2131 20.2455 34.0554 20.3321 32.5204L21.4167 13.4396C21.4289 13.2226 21.6122 13.0545 21.8331 13.0695C22.0503 13.0818 22.217 13.2679 22.2047 13.4842L21.1194 32.5657C21.0082 34.5232 19.5166 36 17.6498 36H17.6505Z" fill="white"/>
<path fill-rule="evenodd" clip-rule="evenodd" d="M6.72572 32.621H17.6433C17.6736 32.5952 17.727 32.491 17.7335 32.3753L18.6369 16.4895C18.6377 16.4744 18.6369 16.4715 18.6261 16.46C18.616 16.4492 18.6131 16.4485 18.5973 16.4485H5.77172C5.75657 16.4485 5.75368 16.4492 5.74358 16.46C5.73347 16.4715 5.73203 16.4751 5.73275 16.4895L6.63551 32.3746C6.64201 32.491 6.69541 32.5952 6.72572 32.621ZM17.6505 33.4072H6.71778C6.1881 33.4072 5.87419 32.8992 5.84677 32.4198L4.94329 16.534C4.9303 16.3026 5.00824 16.0899 5.16844 15.9203C5.32864 15.7514 5.53719 15.6623 5.77028 15.6623H18.5965C18.8296 15.6623 19.0389 15.7514 19.1991 15.9203C19.3593 16.0899 19.4372 16.3019 19.4235 16.534L18.5208 32.4198C18.4933 32.8984 18.1794 33.4072 17.6505 33.4072Z" fill="white"/>
<path fill-rule="evenodd" clip-rule="evenodd" d="M2.38438 11.3068C1.89583 11.3068 1.49894 11.7034 1.49894 12.1885C1.49894 12.6736 1.89583 13.0703 2.38438 13.0703H21.986C22.4731 13.0703 22.87 12.675 22.87 12.1885C22.87 11.7027 22.4731 11.3068 21.9853 11.3068H2.38438ZM21.9853 13.8564H2.38438C1.46069 13.8564 0.709473 13.1083 0.709473 12.1885C0.709473 11.2687 1.46069 10.5206 2.38438 10.5206H21.986C22.909 10.5206 23.6595 11.2687 23.6595 12.1885C23.6595 13.1083 22.909 13.8564 21.986 13.8564H21.9853Z" fill="white"/>
<path fill-rule="evenodd" clip-rule="evenodd" d="M5.86197 11.3075C5.68806 11.3075 5.52858 11.1911 5.48095 11.0164L4.13872 6.02707C4.11129 5.92646 4.12645 5.81939 4.17768 5.72884C4.23036 5.63901 4.31696 5.57218 4.41799 5.54559L15.1263 2.68908C15.337 2.63231 15.5527 2.75735 15.6083 2.96646L17.7198 10.8124C17.7768 11.0222 17.6512 11.2371 17.4412 11.2938C17.2313 11.3506 17.0148 11.2256 16.9578 11.0164L14.9487 3.54927L5.00467 6.20241L6.24443 10.8116C6.30144 11.0215 6.17588 11.2363 5.96516 11.2931C5.93052 11.3017 5.89661 11.3075 5.86269 11.3075H5.86197Z" fill="white"/>
<path fill-rule="evenodd" clip-rule="evenodd" d="M7.23876 7.64755C7.06485 7.64755 6.90465 7.53114 6.85774 7.35651C6.80145 7.14668 6.9263 6.93181 7.13629 6.87504L13.4376 5.19347C13.6476 5.13813 13.864 5.26245 13.9211 5.47229C13.9766 5.68213 13.8518 5.89699 13.6411 5.95377L7.34123 7.63462C7.3066 7.64324 7.27196 7.64899 7.23804 7.64899L7.23876 7.64755Z" fill="white"/>
<path fill-rule="evenodd" clip-rule="evenodd" d="M7.72661 9.45704C7.5527 9.45704 7.3925 9.34134 7.34487 9.166C7.2893 8.95616 7.41415 8.74129 7.62486 8.68524L13.9254 7.00367C14.1361 6.94833 14.3519 7.07194 14.4089 7.28106C14.4659 7.49161 14.3404 7.7072 14.1304 7.76253L7.82908 9.4441C7.79589 9.45273 7.76053 9.45704 7.72733 9.45704H7.72661Z" fill="white"/>
<path fill-rule="evenodd" clip-rule="evenodd" d="M19.8486 11.3075C19.6747 11.3075 19.5152 11.1911 19.4675 11.0164L16.7391 0.873843L6.79428 3.52843L7.24314 5.1985C7.30014 5.40834 7.17458 5.6232 6.96459 5.67926C6.75459 5.73603 6.5381 5.61099 6.48109 5.40187L5.92977 3.35236C5.90235 3.25176 5.91678 3.14468 5.96874 3.05342C6.02142 2.96359 6.10801 2.8982 6.20904 2.87089L16.9166 0.0136543C17.0183 -0.0136533 17.1251 0.000719085 17.2168 0.0531784C17.307 0.105638 17.3727 0.190435 17.4001 0.29176L20.231 10.8124C20.288 11.0222 20.1625 11.2371 19.9525 11.2938C19.9186 11.3025 19.8839 11.3082 19.85 11.3082H19.8493L19.8486 11.3075Z" fill="white"/>
</g>
<defs>
<clipPath id="clip0_372_526519">
<rect width="22.95" height="36" fill="white" transform="translate(0.709473)"/>
</clipPath>
</defs>
</svg>
