<svg width="23" height="23" viewBox="0 0 23 23" fill="none" xmlns="http://www.w3.org/2000/svg">
<ellipse cx="11.1355" cy="11.1352" rx="11.1355" ry="11.1352" fill="#00A57F"/>
<path d="M17.2933 7.87913L9.66158 17.1671C9.57787 17.269 9.4737 17.3513 9.35614 17.4085C9.23857 17.4657 9.11036 17.4964 8.98018 17.4985H8.96485C8.8375 17.4985 8.71159 17.4711 8.59528 17.4181C8.47897 17.3651 8.37486 17.2877 8.28969 17.1909L5.01897 13.4757C4.9359 13.3856 4.87129 13.2795 4.82892 13.1635C4.78655 13.0476 4.76728 12.9241 4.77225 12.8004C4.77721 12.6768 4.80631 12.5553 4.85784 12.4433C4.90936 12.3313 4.98227 12.2309 5.07227 12.1481C5.16228 12.0653 5.26757 12.0018 5.38195 11.9612C5.49633 11.9205 5.6175 11.9037 5.73834 11.9117C5.85917 11.9196 5.97724 11.9522 6.08559 12.0074C6.19394 12.0627 6.29039 12.1395 6.36928 12.2334L8.941 15.1545L15.9021 6.68448C16.0582 6.49992 16.2791 6.3856 16.5171 6.36622C16.755 6.34684 16.9908 6.42395 17.1736 6.5809C17.3564 6.73784 17.4714 6.962 17.4938 7.20494C17.5162 7.44787 17.4441 7.69005 17.2933 7.87913Z" fill="white"/>
</svg>
