<svg width="53" height="53" viewBox="0 0 53 53" fill="none" xmlns="http://www.w3.org/2000/svg">
<path d="M22.575 30.975L16.9312 25.3312C16.45 24.85 15.8375 24.6094 15.0938 24.6094C14.35 24.6094 13.7375 24.85 13.2563 25.3312C12.775 25.8125 12.5344 26.425 12.5344 27.1688C12.5344 27.9125 12.775 28.525 13.2563 29.0063L20.7375 36.4875C21.2625 37.0125 21.875 37.275 22.575 37.275C23.275 37.275 23.8875 37.0125 24.4125 36.4875L39.2438 21.6562C39.725 21.175 39.9656 20.5625 39.9656 19.8188C39.9656 19.075 39.725 18.4625 39.2438 17.9813C38.7625 17.5 38.15 17.2594 37.4062 17.2594C36.6625 17.2594 36.05 17.5 35.5688 17.9813L22.575 30.975ZM26.25 52.5C22.6187 52.5 19.2063 51.8105 16.0125 50.4315C12.8188 49.0525 10.0406 47.1826 7.67813 44.8219C5.31563 42.4594 3.44575 39.6812 2.0685 36.4875C0.69125 33.2938 0.00175 29.8813 0 26.25C0 22.6187 0.6895 19.2063 2.0685 16.0125C3.4475 12.8188 5.31738 10.0406 7.67813 7.67813C10.0406 5.31563 12.8188 3.44575 16.0125 2.0685C19.2063 0.69125 22.6187 0.00175 26.25 0C29.8813 0 33.2938 0.6895 36.4875 2.0685C39.6812 3.4475 42.4594 5.31738 44.8219 7.67813C47.1844 10.0406 49.0551 12.8188 50.4341 16.0125C51.8131 19.2063 52.5018 22.6187 52.5 26.25C52.5 29.8813 51.8105 33.2938 50.4315 36.4875C49.0525 39.6812 47.1826 42.4594 44.8219 44.8219C42.4594 47.1844 39.6812 49.0551 36.4875 50.4341C33.2938 51.8131 29.8813 52.5018 26.25 52.5Z" fill="#27AE60"/>
</svg>
