<svg width="16" height="20" viewBox="0 0 16 20" fill="none" xmlns="http://www.w3.org/2000/svg">
<path fill-rule="evenodd" clip-rule="evenodd" d="M2.18182 0C0.978244 0 0 0.95232 0 2.12571V17.7143C0 18.8877 0.978244 19.84 2.18182 19.84H13.8182C15.0218 19.84 16 18.8877 16 17.7143V2.12571C16 0.95232 15.0218 0 13.8182 0H2.18182ZM2.18182 1.41714H13.8182C14.2196 1.41714 14.5455 1.73457 14.5455 2.12571V2.83429H1.45455V2.12571C1.45455 1.73457 1.78036 1.41714 2.18182 1.41714ZM1.45455 4.25143H7.27273V18.4229H2.18182C1.78036 18.4229 1.45455 18.1054 1.45455 17.7143V4.25143ZM8.72727 4.25143H14.5455V17.7143C14.5455 18.1054 14.2196 18.4229 13.8182 18.4229H8.72727V4.25143Z" fill="#235B4E"/>
</svg>
