<svg width="19" height="19" viewBox="0 0 19 19" fill="none" xmlns="http://www.w3.org/2000/svg">
<path fill-rule="evenodd" clip-rule="evenodd" d="M14.5557 12.8316C15.7508 11.291 16.314 9.35291 16.1308 7.41173C15.9476 5.47056 15.0317 3.67209 13.5696 2.3822C12.1074 1.09231 10.2088 0.407904 8.2599 0.468211C6.31103 0.528517 4.45834 1.32901 3.07873 2.70683C1.69792 4.08561 0.894814 5.93902 0.833067 7.88937C0.771319 9.83971 1.45558 11.7402 2.74641 13.2036C4.03724 14.6669 5.83748 15.583 7.78029 15.7652C9.72309 15.9473 11.6622 15.3818 13.2026 14.1838L13.2438 14.227L17.309 18.2932C17.3981 18.3822 17.5038 18.4528 17.6201 18.501C17.7364 18.5492 17.8611 18.574 17.987 18.574C18.113 18.574 18.2377 18.5492 18.354 18.501C18.4703 18.4528 18.576 18.3822 18.6651 18.2932C18.7541 18.2041 18.8247 18.0984 18.8729 17.9821C18.9211 17.8658 18.9459 17.7411 18.9459 17.6151C18.9459 17.4892 18.9211 17.3645 18.8729 17.2482C18.8247 17.1319 18.7541 17.0262 18.6651 16.9371L14.5989 12.8719C14.5849 12.8581 14.5705 12.8446 14.5557 12.8316ZM12.5662 4.06287C13.1073 4.59521 13.5376 5.2294 13.8324 5.92888C14.1271 6.62835 14.2805 7.37927 14.2836 8.1383C14.2867 8.89734 14.1394 9.64947 13.8504 10.3513C13.5613 11.0532 13.1362 11.6909 12.5995 12.2276C12.0628 12.7643 11.4251 13.1894 10.7232 13.4785C10.0214 13.7675 9.26923 13.9148 8.5102 13.9117C7.75117 13.9086 7.00025 13.7552 6.30078 13.4605C5.6013 13.1657 4.96711 12.7354 4.43477 12.1943C3.37095 11.113 2.77748 9.65517 2.78366 8.1383C2.78984 6.62143 3.39515 5.16845 4.46775 4.09585C5.54035 3.02325 6.99333 2.41794 8.5102 2.41176C10.0271 2.40558 11.4849 2.99905 12.5662 4.06287Z" fill="white"/>
</svg>
