<svg width="68" height="77" viewBox="0 0 68 77" fill="none" xmlns="http://www.w3.org/2000/svg">
<g clip-path="url(#clip0_383_518514)">
<path d="M48.3628 61.6H8.38228C7.67332 61.6 7.09259 62.1779 7.09259 62.8833C7.09259 63.5888 7.67332 64.1667 8.38228 64.1667H48.3628C49.0717 64.1667 49.6525 63.5888 49.6525 62.8833C49.6525 62.1779 49.0717 61.6 48.3628 61.6Z" fill="white"/>
<path d="M46.0649 24.3804C45.7745 23.5811 45.4149 22.8023 44.983 22.0528H19.1155C18.6836 22.8023 18.324 23.5811 18.0336 24.3804H46.0649Z" fill="white"/>
<path d="M46.6265 22.0088H45.5033C45.9514 22.7861 46.3258 23.5943 46.6265 24.4244V22.0088Z" fill="white"/>
<path d="M13.8963 24.4244H17.5369C17.8376 23.5957 18.212 22.7861 18.66 22.0088H13.8977V24.4244H13.8963Z" fill="white"/>
<path d="M16.6761 28.3257C16.679 28.2876 16.682 28.2509 16.6864 28.2128C16.6982 28.0969 16.71 27.9796 16.7247 27.8637C16.7306 27.808 16.738 27.7523 16.7454 27.6965C16.7586 27.5909 16.7734 27.4868 16.7896 27.3827C16.7999 27.3152 16.8102 27.2477 16.8205 27.1803C16.8368 27.0835 16.853 26.9881 16.8707 26.8913C16.8839 26.8151 16.8987 26.7388 16.9149 26.6625C16.9326 26.5745 16.9502 26.4851 16.9694 26.3971C16.9871 26.3135 17.0077 26.2299 17.0269 26.1463C17.0461 26.0641 17.0652 25.9835 17.0859 25.9013C17.1094 25.8089 17.1345 25.7165 17.1595 25.6256C17.1787 25.5523 17.1979 25.4804 17.22 25.4071C17.2509 25.3 17.2834 25.1944 17.3173 25.0888C17.3349 25.0301 17.3526 24.9729 17.3718 24.9143C17.4249 24.75 17.4809 24.5872 17.5398 24.4244H13.8992V22.0088H8.38521C7.67625 22.0088 7.09552 22.5867 7.09552 23.2921C7.09552 23.9976 7.67625 24.5755 8.38521 24.5755H14.785C14.0599 27.0292 13.8668 29.612 14.2043 32.1317H16.8132C16.6112 30.8733 16.567 29.5929 16.6776 28.3257H16.6761Z" fill="white"/>
<path d="M8.38228 32.1317C7.67332 32.1317 7.09259 32.7096 7.09259 33.4151C7.09259 34.1205 7.67332 34.6984 8.38228 34.6984H13.8963V32.1317H8.38228Z" fill="white"/>
<path d="M21.1348 40.5695C21.0109 40.4463 20.8901 40.3216 20.7722 40.194C20.7338 40.1529 20.697 40.1119 20.6601 40.0723C20.5791 39.9843 20.4995 39.8963 20.4214 39.8068C20.3801 39.7599 20.3388 39.7129 20.2976 39.6645C20.2209 39.5751 20.1457 39.4841 20.072 39.3932C20.0367 39.3492 19.9998 39.3067 19.9644 39.2627C19.8642 39.1365 19.7655 39.0104 19.6697 38.8828C19.6269 38.8256 19.5856 38.7669 19.5429 38.7097C19.4884 38.6349 19.4338 38.5587 19.3793 38.4824C19.3292 38.412 19.2805 38.3401 19.2334 38.2683C19.1906 38.2052 19.1494 38.1436 19.1081 38.0805C19.0565 38.0013 19.0049 37.9221 18.9548 37.8429C18.9268 37.7975 18.8988 37.752 18.8708 37.7065C18.747 37.5056 18.6291 37.3017 18.5156 37.0964C18.5111 37.0891 18.5067 37.0817 18.5038 37.0744C18.4448 36.9673 18.3873 36.8588 18.3313 36.7488C18.3166 36.7209 18.3018 36.6931 18.2871 36.6637C18.2296 36.5523 18.1736 36.4393 18.1206 36.3264C18.1147 36.3147 18.1088 36.3015 18.1029 36.2897C17.8626 35.7852 17.6518 35.2689 17.4691 34.7453H14.7644C15.0562 35.7368 15.4336 36.7107 15.9008 37.6537C15.9008 37.6552 15.9023 37.6581 15.9038 37.6596C15.9804 37.8151 16.06 37.9676 16.1411 38.1216C16.1455 38.1289 16.1499 38.1377 16.1543 38.1451C16.2324 38.2917 16.3135 38.4384 16.3961 38.5836C16.4034 38.5968 16.4123 38.61 16.4196 38.6247C16.4992 38.764 16.5818 38.9033 16.6658 39.0412C16.6776 39.0617 16.6908 39.0808 16.7041 39.1013C16.7852 39.2319 16.8662 39.3624 16.9517 39.4915C16.9709 39.5193 16.99 39.5487 17.0092 39.5765C17.0888 39.6968 17.1684 39.8171 17.2509 39.9359C17.2775 39.974 17.3069 40.0121 17.3335 40.0503C17.4101 40.1588 17.4868 40.2659 17.5649 40.3729C17.6003 40.4199 17.6371 40.4668 17.674 40.5137C17.7477 40.6105 17.8199 40.7073 17.895 40.8027C17.9437 40.8628 17.9938 40.9229 18.0424 40.9831C18.1073 41.0637 18.1721 41.1444 18.2399 41.2251C18.3048 41.3028 18.3726 41.3776 18.4389 41.4553C18.492 41.5169 18.545 41.5785 18.5996 41.6401C18.7219 41.7765 18.8472 41.9129 18.974 42.0464H22.8578C22.2564 41.6035 21.6801 41.1121 21.1348 40.5709V40.5695Z" fill="white"/>
<path d="M66.6779 56.7072L64.097 54.1405L58.0362 48.1096V3.69013C58.0362 1.65293 56.3751 0 54.3278 0H16.6525L0 16.5704V73.3099C0 75.3471 1.66112 77 3.70842 77H54.3293C56.3766 77 58.0377 75.3471 58.0377 73.3099V62.6267L59.1991 63.7824C60.166 64.7445 61.4719 65.2901 62.8427 65.2901C63.2775 65.2901 63.6976 65.2417 64.1 65.1303C65.3572 65.1303 66.6794 63.5741 66.6794 63.5741C67.5342 62.6281 68.0015 61.424 68.0015 60.1407C68.0015 58.8573 67.5342 57.6547 66.6794 56.7072H66.6779ZM16.2339 4.04213V14.6931C16.2339 15.3193 15.7343 15.8165 15.1049 15.8165H4.40117L16.2339 4.04213ZM55.4568 60.3489V73.3113C55.4568 73.9376 54.9571 74.4348 54.3278 74.4348H3.70695C3.07758 74.4348 2.57791 73.9376 2.57791 73.3113V18.3847H15.1034C17.1507 18.3847 18.8118 16.7317 18.8118 14.6945V2.56667H54.3263C54.9557 2.56667 55.4553 3.06387 55.4553 3.69013V45.5429L54.7139 44.8052C53.747 43.8431 52.4411 43.2975 51.0704 43.2975C50.1035 43.2975 49.1675 43.5703 48.3613 44.0675L45.7333 41.4524C50.1344 36.3997 51.231 29.4697 49.0216 23.4857H49.1661C49.875 23.4857 50.4558 22.9079 50.4558 22.2024C50.4558 21.4969 49.875 20.9191 49.1661 20.9191H47.8439C47.0539 19.5081 46.0546 18.1764 44.846 16.9884C37.8005 9.97773 26.3554 9.97773 19.31 16.9884C17.811 18.48 16.6171 20.1813 15.7637 22.0088H18.6571C19.3203 20.856 20.1457 19.7692 21.1333 18.7851C24.1475 15.7857 28.1138 14.278 32.0802 14.278C36.0466 14.278 40.0114 15.7857 43.0271 18.7851C44.0147 19.7707 44.8386 20.856 45.5033 22.0088H46.6265V24.4244C46.6854 24.5872 46.7414 24.75 46.7945 24.9143C46.8137 24.9729 46.8299 25.0316 46.849 25.0903C46.8815 25.1959 46.9154 25.3015 46.9448 25.4071C46.9655 25.4804 46.9846 25.5523 47.0053 25.6256C47.0303 25.718 47.0554 25.8089 47.079 25.9013C47.0996 25.982 47.1188 26.0641 47.1379 26.1463C47.1571 26.2299 47.1777 26.3135 47.1954 26.3971C47.2146 26.4851 47.2323 26.5745 47.2499 26.664C47.2647 26.7403 47.2794 26.8151 47.2942 26.8913C47.3118 26.9867 47.3281 27.0835 47.3443 27.1803C47.3546 27.2477 47.3664 27.3152 47.3752 27.3827C47.3914 27.4868 47.4062 27.5924 47.4194 27.6965C47.4268 27.7523 47.4327 27.808 47.4401 27.8652C47.4533 27.9811 47.4666 28.0969 47.4784 28.2128C47.4813 28.2509 47.4843 28.2891 47.4887 28.3272C47.5993 29.5959 47.555 30.8748 47.3531 32.1332H49.1867V34.7483H46.6943C46.5115 35.2719 46.3007 35.7881 46.0605 36.2941C46.0546 36.3059 46.0502 36.3176 46.0443 36.3293C45.9897 36.4423 45.9337 36.5552 45.8762 36.6681C45.8615 36.696 45.8482 36.7239 45.8335 36.7503C45.7775 36.8603 45.72 36.9688 45.6596 37.0773C45.6551 37.0847 45.6522 37.0905 45.6478 37.0979C45.5343 37.3047 45.4149 37.5085 45.2911 37.7095C45.2631 37.7549 45.2365 37.8004 45.2085 37.8444C45.1584 37.9236 45.1068 38.0028 45.0553 38.082C45.014 38.1451 44.9727 38.2081 44.93 38.2712C44.8813 38.3431 44.8327 38.4135 44.784 38.4839C44.731 38.5601 44.6765 38.6364 44.6204 38.7112C44.5777 38.7684 44.5364 38.8271 44.4937 38.8843C44.3979 39.0119 44.3006 39.138 44.2004 39.2641C44.165 39.3081 44.1281 39.3507 44.0928 39.3947C44.0191 39.4856 43.9439 39.5765 43.8673 39.666C43.826 39.7129 43.7847 39.7613 43.7435 39.8083C43.6653 39.8977 43.5857 39.9857 43.5047 40.0737C43.4678 40.1148 43.431 40.1559 43.3927 40.1955C43.2733 40.3216 43.1539 40.4477 43.0301 40.5709C42.4862 41.1121 41.9113 41.6035 41.3115 42.0464H41.6151V44.3769H36.6951C33.7015 45.2995 30.4795 45.2995 27.4845 44.3769H14.334V42.0464H8.38522C7.67625 42.0464 7.09552 42.6243 7.09552 43.3297C7.09552 44.0352 7.67625 44.6131 8.38522 44.6131H22.0073C25.0377 46.6503 28.5693 47.6608 32.0831 47.6608C36.3074 47.6608 40.5303 46.2015 43.8997 43.2813L46.5764 45.9448C46.1415 46.6987 45.916 47.5655 45.916 48.4631C45.916 49.5059 46.2388 50.5164 46.8181 51.3671H8.38227C7.67331 51.3671 7.09258 51.9449 7.09258 52.6504C7.09258 53.3559 7.67331 53.9337 8.38227 53.9337H49.2663L55.4892 60.126C55.473 60.1744 55.4568 60.2697 55.4568 60.3504V60.3489ZM64.6615 61.9535C64.1781 62.4345 63.5325 62.7073 62.8398 62.7073C62.147 62.7073 61.5014 62.4345 61.018 61.9535L49.2501 50.2436C48.7666 49.7625 48.4925 49.1201 48.4925 48.4308C48.4925 47.7415 48.7666 47.0991 49.2501 46.618C49.7335 46.1369 50.3791 45.8641 51.0719 45.8641C51.7646 45.8641 52.4102 46.1369 52.8936 46.618L64.6615 58.3279C65.145 58.8089 65.4191 59.4513 65.4191 60.1407C65.4191 60.83 65.145 61.4724 64.6615 61.9535Z" fill="white"/>
<path d="M17.7919 34.7145H46.2992C46.5896 33.8815 46.8033 33.0279 46.9419 32.164H17.1492C17.2878 33.0279 17.5015 33.8815 17.7919 34.7145Z" fill="white"/>
<path d="M49.1852 34.7468V32.1317H47.3517C47.2102 33.0176 46.9905 33.8932 46.6928 34.7468H49.1852Z" fill="white"/>
<path d="M17.4706 34.7468C17.3585 34.4271 17.2583 34.1029 17.1684 33.7773C17.0785 33.4517 17.0004 33.1232 16.9326 32.7932C16.8869 32.5732 16.8471 32.3532 16.8117 32.1317H13.8977V34.7468H17.4706Z" fill="white"/>
<path d="M27.8279 44.2816H36.2883C37.7873 43.8196 39.2229 43.1068 40.5288 42.1403H23.5815C24.8903 43.1053 26.3274 43.8196 27.8279 44.2816Z" fill="white"/>
<path d="M41.6121 44.3769V42.0464H41.3085C39.8862 43.098 38.3238 43.8739 36.6907 44.3769H41.6107H41.6121Z" fill="white"/>
<path d="M18.974 42.0449H14.3311V44.3755H27.4815C25.8484 43.8724 24.2831 43.0965 22.8578 42.0449H18.974Z" fill="white"/>
</g>
<defs>
<clipPath id="clip0_383_518514">
<rect width="68" height="77" fill="white"/>
</clipPath>
</defs>
</svg>
