<svg width="247" height="36" viewBox="0 0 247 36" fill="none" xmlns="http://www.w3.org/2000/svg">
<path d="M99.1874 13V1.80002H104.275C105.491 1.80002 106.563 2.03469 107.491 2.50402C108.419 2.96269 109.145 3.60802 109.667 4.44002C110.19 5.27202 110.451 6.25869 110.451 7.40002C110.451 8.53069 110.19 9.51735 109.667 10.36C109.145 11.192 108.419 11.8427 107.491 12.312C106.563 12.7707 105.491 13 104.275 13H99.1874ZM101.779 10.872H104.147C104.894 10.872 105.539 10.7334 106.083 10.456C106.638 10.168 107.065 9.76269 107.363 9.24002C107.673 8.71735 107.827 8.10402 107.827 7.40002C107.827 6.68535 107.673 6.07202 107.363 5.56002C107.065 5.03735 106.638 4.63735 106.083 4.36002C105.539 4.07202 104.894 3.92802 104.147 3.92802H101.779V10.872Z" fill="white"/>
<path d="M112.23 13V4.39202H114.726V13H112.23ZM113.478 3.19202C113.019 3.19202 112.646 3.05869 112.358 2.79202C112.07 2.52535 111.926 2.19469 111.926 1.80002C111.926 1.40535 112.07 1.07469 112.358 0.808021C112.646 0.541354 113.019 0.40802 113.478 0.40802C113.937 0.40802 114.31 0.53602 114.598 0.792021C114.886 1.03735 115.03 1.35735 115.03 1.75202C115.03 2.16802 114.886 2.51469 114.598 2.79202C114.321 3.05869 113.947 3.19202 113.478 3.19202Z" fill="white"/>
<path d="M117.043 13V4.39202H119.427V6.82402L119.091 6.12002C119.347 5.51202 119.757 5.05335 120.323 4.74402C120.888 4.42402 121.576 4.26402 122.387 4.26402V6.56802C122.28 6.55735 122.184 6.55202 122.099 6.55202C122.013 6.54135 121.923 6.53602 121.827 6.53602C121.144 6.53602 120.589 6.73335 120.163 7.12802C119.747 7.51202 119.539 8.11469 119.539 8.93602V13H117.043Z" fill="white"/>
<path d="M128.08 13.128C127.099 13.128 126.235 12.936 125.488 12.552C124.752 12.168 124.182 11.6454 123.776 10.984C123.371 10.312 123.168 9.54935 123.168 8.69602C123.168 7.83202 123.366 7.06935 123.76 6.40802C124.166 5.73602 124.715 5.21335 125.408 4.84002C126.102 4.45602 126.886 4.26402 127.76 4.26402C128.603 4.26402 129.36 4.44535 130.032 4.80802C130.715 5.16002 131.254 5.67202 131.648 6.34402C132.043 7.00535 132.24 7.80002 132.24 8.72802C132.24 8.82402 132.235 8.93602 132.224 9.06402C132.214 9.18135 132.203 9.29335 132.192 9.40002H125.2V7.94402H130.88L129.92 8.37602C129.92 7.92802 129.83 7.53869 129.648 7.20802C129.467 6.87735 129.216 6.62135 128.896 6.44002C128.576 6.24802 128.203 6.15202 127.776 6.15202C127.35 6.15202 126.971 6.24802 126.64 6.44002C126.32 6.62135 126.07 6.88269 125.888 7.22402C125.707 7.55469 125.616 7.94935 125.616 8.40802V8.79202C125.616 9.26135 125.718 9.67735 125.92 10.04C126.134 10.392 126.427 10.664 126.8 10.856C127.184 11.0374 127.632 11.128 128.144 11.128C128.603 11.128 129.003 11.0587 129.344 10.92C129.696 10.7814 130.016 10.5734 130.304 10.296L131.632 11.736C131.238 12.184 130.742 12.5307 130.144 12.776C129.547 13.0107 128.859 13.128 128.08 13.128Z" fill="white"/>
<path d="M138.062 13.128C137.134 13.128 136.307 12.9414 135.582 12.568C134.857 12.184 134.286 11.656 133.87 10.984C133.465 10.312 133.262 9.54935 133.262 8.69602C133.262 7.83202 133.465 7.06935 133.87 6.40802C134.286 5.73602 134.857 5.21335 135.582 4.84002C136.307 4.45602 137.134 4.26402 138.062 4.26402C138.969 4.26402 139.758 4.45602 140.43 4.84002C141.102 5.21335 141.598 5.75202 141.918 6.45602L139.982 7.49602C139.758 7.09069 139.475 6.79202 139.134 6.60002C138.803 6.40802 138.441 6.31202 138.046 6.31202C137.619 6.31202 137.235 6.40802 136.894 6.60002C136.553 6.79202 136.281 7.06402 136.078 7.41602C135.886 7.76802 135.79 8.19469 135.79 8.69602C135.79 9.19735 135.886 9.62402 136.078 9.97602C136.281 10.328 136.553 10.6 136.894 10.792C137.235 10.984 137.619 11.08 138.046 11.08C138.441 11.08 138.803 10.9894 139.134 10.808C139.475 10.616 139.758 10.312 139.982 9.89602L141.918 10.952C141.598 11.6454 141.102 12.184 140.43 12.568C139.758 12.9414 138.969 13.128 138.062 13.128Z" fill="white"/>
<path d="M147.406 13.128C146.478 13.128 145.651 12.9414 144.926 12.568C144.2 12.184 143.63 11.656 143.214 10.984C142.808 10.312 142.606 9.54935 142.606 8.69602C142.606 7.83202 142.808 7.06935 143.214 6.40802C143.63 5.73602 144.2 5.21335 144.926 4.84002C145.651 4.45602 146.478 4.26402 147.406 4.26402C148.312 4.26402 149.102 4.45602 149.774 4.84002C150.446 5.21335 150.942 5.75202 151.262 6.45602L149.326 7.49602C149.102 7.09069 148.819 6.79202 148.478 6.60002C148.147 6.40802 147.784 6.31202 147.39 6.31202C146.963 6.31202 146.579 6.40802 146.238 6.60002C145.896 6.79202 145.624 7.06402 145.422 7.41602C145.23 7.76802 145.134 8.19469 145.134 8.69602C145.134 9.19735 145.23 9.62402 145.422 9.97602C145.624 10.328 145.896 10.6 146.238 10.792C146.579 10.984 146.963 11.08 147.39 11.08C147.784 11.08 148.147 10.9894 148.478 10.808C148.819 10.616 149.102 10.312 149.326 9.89602L151.262 10.952C150.942 11.6454 150.446 12.184 149.774 12.568C149.102 12.9414 148.312 13.128 147.406 13.128Z" fill="white"/>
<path d="M152.652 13V4.39202H155.148V13H152.652ZM153.9 3.19202C153.441 3.19202 153.068 3.05869 152.78 2.79202C152.492 2.52535 152.348 2.19469 152.348 1.80002C152.348 1.40535 152.492 1.07469 152.78 0.808021C153.068 0.541354 153.441 0.40802 153.9 0.40802C154.359 0.40802 154.732 0.53602 155.02 0.792021C155.308 1.03735 155.452 1.35735 155.452 1.75202C155.452 2.16802 155.308 2.51469 155.02 2.79202C154.743 3.05869 154.369 3.19202 153.9 3.19202Z" fill="white"/>
<path d="M161.561 13.128C160.643 13.128 159.827 12.936 159.113 12.552C158.409 12.168 157.849 11.6454 157.433 10.984C157.027 10.312 156.825 9.54935 156.825 8.69602C156.825 7.83202 157.027 7.06935 157.433 6.40802C157.849 5.73602 158.409 5.21335 159.113 4.84002C159.827 4.45602 160.643 4.26402 161.561 4.26402C162.467 4.26402 163.278 4.45602 163.993 4.84002C164.707 5.21335 165.267 5.73069 165.673 6.39202C166.078 7.05335 166.281 7.82135 166.281 8.69602C166.281 9.54935 166.078 10.312 165.673 10.984C165.267 11.6454 164.707 12.168 163.993 12.552C163.278 12.936 162.467 13.128 161.561 13.128ZM161.561 11.08C161.977 11.08 162.35 10.984 162.681 10.792C163.011 10.6 163.273 10.328 163.465 9.97602C163.657 9.61335 163.753 9.18669 163.753 8.69602C163.753 8.19469 163.657 7.76802 163.465 7.41602C163.273 7.06402 163.011 6.79202 162.681 6.60002C162.35 6.40802 161.977 6.31202 161.561 6.31202C161.145 6.31202 160.771 6.40802 160.441 6.60002C160.11 6.79202 159.843 7.06402 159.641 7.41602C159.449 7.76802 159.353 8.19469 159.353 8.69602C159.353 9.18669 159.449 9.61335 159.641 9.97602C159.843 10.328 160.11 10.6 160.441 10.792C160.771 10.984 161.145 11.08 161.561 11.08ZM160.073 3.28802L162.233 0.98402H164.921L162.025 3.28802H160.073Z" fill="white"/>
<path d="M173.181 4.26402C173.864 4.26402 174.472 4.40269 175.005 4.68002C175.549 4.94669 175.976 5.36269 176.285 5.92802C176.594 6.48269 176.749 7.19735 176.749 8.07202V13H174.253V8.45602C174.253 7.76269 174.098 7.25069 173.789 6.92002C173.49 6.58935 173.064 6.42402 172.509 6.42402C172.114 6.42402 171.757 6.50935 171.437 6.68002C171.128 6.84002 170.882 7.09069 170.701 7.43202C170.53 7.77335 170.445 8.21069 170.445 8.74402V13H167.949V4.39202H170.333V6.77602L169.885 6.05602C170.194 5.48002 170.637 5.03735 171.213 4.72802C171.789 4.41869 172.445 4.26402 173.181 4.26402Z" fill="white"/>
<path d="M189.127 13.192C188.241 13.192 187.425 13.0534 186.679 12.776C185.943 12.488 185.297 12.0827 184.743 11.56C184.199 11.0374 183.772 10.424 183.463 9.72002C183.164 9.01602 183.015 8.24269 183.015 7.40002C183.015 6.55735 183.164 5.78402 183.463 5.08002C183.772 4.37602 184.204 3.76269 184.759 3.24002C185.313 2.71735 185.964 2.31735 186.711 2.04002C187.457 1.75202 188.279 1.60802 189.175 1.60802C190.167 1.60802 191.057 1.77335 191.847 2.10402C192.647 2.43469 193.319 2.91469 193.863 3.54402L192.199 5.08002C191.793 4.65335 191.351 4.33869 190.871 4.13602C190.391 3.92269 189.868 3.81602 189.303 3.81602C188.759 3.81602 188.263 3.90135 187.815 4.07202C187.367 4.24269 186.977 4.48802 186.647 4.80802C186.327 5.12802 186.076 5.50669 185.895 5.94402C185.724 6.38135 185.639 6.86669 185.639 7.40002C185.639 7.92269 185.724 8.40269 185.895 8.84002C186.076 9.27735 186.327 9.66135 186.647 9.99202C186.977 10.312 187.361 10.5574 187.799 10.728C188.247 10.8987 188.737 10.984 189.271 10.984C189.783 10.984 190.279 10.904 190.759 10.744C191.249 10.5734 191.724 10.2907 192.183 9.89602L193.655 11.768C193.047 12.2267 192.337 12.5787 191.527 12.824C190.727 13.0694 189.927 13.192 189.127 13.192ZM191.287 11.432V7.22402H193.655V11.768L191.287 11.432Z" fill="white"/>
<path d="M200.158 13.128C199.177 13.128 198.313 12.936 197.566 12.552C196.83 12.168 196.26 11.6454 195.854 10.984C195.449 10.312 195.246 9.54935 195.246 8.69602C195.246 7.83202 195.444 7.06935 195.838 6.40802C196.244 5.73602 196.793 5.21335 197.486 4.84002C198.18 4.45602 198.964 4.26402 199.838 4.26402C200.681 4.26402 201.438 4.44535 202.11 4.80802C202.793 5.16002 203.332 5.67202 203.726 6.34402C204.121 7.00535 204.318 7.80002 204.318 8.72802C204.318 8.82402 204.313 8.93602 204.302 9.06402C204.292 9.18135 204.281 9.29335 204.27 9.40002H197.278V7.94402H202.958L201.998 8.37602C201.998 7.92802 201.908 7.53869 201.726 7.20802C201.545 6.87735 201.294 6.62135 200.974 6.44002C200.654 6.24802 200.281 6.15202 199.854 6.15202C199.428 6.15202 199.049 6.24802 198.718 6.44002C198.398 6.62135 198.148 6.88269 197.966 7.22402C197.785 7.55469 197.694 7.94935 197.694 8.40802V8.79202C197.694 9.26135 197.796 9.67735 197.998 10.04C198.212 10.392 198.505 10.664 198.878 10.856C199.262 11.0374 199.71 11.128 200.222 11.128C200.681 11.128 201.081 11.0587 201.422 10.92C201.774 10.7814 202.094 10.5734 202.382 10.296L203.71 11.736C203.316 12.184 202.82 12.5307 202.222 12.776C201.625 13.0107 200.937 13.128 200.158 13.128Z" fill="white"/>
<path d="M211.212 4.26402C211.895 4.26402 212.503 4.40269 213.036 4.68002C213.58 4.94669 214.007 5.36269 214.316 5.92802C214.625 6.48269 214.78 7.19735 214.78 8.07202V13H212.284V8.45602C212.284 7.76269 212.129 7.25069 211.82 6.92002C211.521 6.58935 211.095 6.42402 210.54 6.42402C210.145 6.42402 209.788 6.50935 209.468 6.68002C209.159 6.84002 208.913 7.09069 208.732 7.43202C208.561 7.77335 208.476 8.21069 208.476 8.74402V13H205.98V4.39202H208.364V6.77602L207.916 6.05602C208.225 5.48002 208.668 5.03735 209.244 4.72802C209.82 4.41869 210.476 4.26402 211.212 4.26402Z" fill="white"/>
<path d="M221.377 13.128C220.396 13.128 219.532 12.936 218.785 12.552C218.049 12.168 217.478 11.6454 217.073 10.984C216.668 10.312 216.465 9.54935 216.465 8.69602C216.465 7.83202 216.662 7.06935 217.057 6.40802C217.462 5.73602 218.012 5.21335 218.705 4.84002C219.398 4.45602 220.182 4.26402 221.057 4.26402C221.9 4.26402 222.657 4.44535 223.329 4.80802C224.012 5.16002 224.55 5.67202 224.945 6.34402C225.34 7.00535 225.537 7.80002 225.537 8.72802C225.537 8.82402 225.532 8.93602 225.521 9.06402C225.51 9.18135 225.5 9.29335 225.489 9.40002H218.497V7.94402H224.177L223.217 8.37602C223.217 7.92802 223.126 7.53869 222.945 7.20802C222.764 6.87735 222.513 6.62135 222.193 6.44002C221.873 6.24802 221.5 6.15202 221.073 6.15202C220.646 6.15202 220.268 6.24802 219.937 6.44002C219.617 6.62135 219.366 6.88269 219.185 7.22402C219.004 7.55469 218.913 7.94935 218.913 8.40802V8.79202C218.913 9.26135 219.014 9.67735 219.217 10.04C219.43 10.392 219.724 10.664 220.097 10.856C220.481 11.0374 220.929 11.128 221.441 11.128C221.9 11.128 222.3 11.0587 222.641 10.92C222.993 10.7814 223.313 10.5734 223.601 10.296L224.929 11.736C224.534 12.184 224.038 12.5307 223.441 12.776C222.844 13.0107 222.156 13.128 221.377 13.128Z" fill="white"/>
<path d="M227.199 13V4.39202H229.583V6.82402L229.247 6.12002C229.503 5.51202 229.914 5.05335 230.479 4.74402C231.044 4.42402 231.732 4.26402 232.543 4.26402V6.56802C232.436 6.55735 232.34 6.55202 232.255 6.55202C232.17 6.54135 232.079 6.53602 231.983 6.53602C231.3 6.53602 230.746 6.73335 230.319 7.12802C229.903 7.51202 229.695 8.11469 229.695 8.93602V13H227.199Z" fill="white"/>
<path d="M238.745 13V11.32L238.585 10.952V7.94402C238.585 7.41069 238.419 6.99469 238.089 6.69602C237.769 6.39735 237.273 6.24802 236.601 6.24802C236.142 6.24802 235.689 6.32269 235.241 6.47202C234.803 6.61069 234.43 6.80269 234.121 7.04802L233.225 5.30402C233.694 4.97335 234.259 4.71735 234.921 4.53602C235.582 4.35469 236.254 4.26402 236.937 4.26402C238.249 4.26402 239.267 4.57335 239.993 5.19202C240.718 5.81069 241.081 6.77602 241.081 8.08802V13H238.745ZM236.121 13.128C235.449 13.128 234.873 13.016 234.393 12.792C233.913 12.5574 233.545 12.2427 233.289 11.848C233.033 11.4534 232.905 11.0107 232.905 10.52C232.905 10.008 233.027 9.56002 233.273 9.17602C233.529 8.79202 233.929 8.49335 234.473 8.28002C235.017 8.05602 235.726 7.94402 236.601 7.94402H238.889V9.40002H236.873C236.286 9.40002 235.881 9.49602 235.657 9.68802C235.443 9.88002 235.337 10.12 235.337 10.408C235.337 10.728 235.459 10.984 235.705 11.176C235.961 11.3574 236.307 11.448 236.745 11.448C237.161 11.448 237.534 11.352 237.865 11.16C238.195 10.9574 238.435 10.664 238.585 10.28L238.969 11.432C238.787 11.9867 238.457 12.408 237.977 12.696C237.497 12.984 236.878 13.128 236.121 13.128Z" fill="white"/>
<path d="M243.34 13V1.12802H245.836V13H243.34Z" fill="white"/>
<path d="M5.28551 32.128C4.47484 32.128 3.74417 31.9467 3.09351 31.584C2.44284 31.2107 1.92551 30.6934 1.54151 30.032C1.16817 29.3707 0.981506 28.592 0.981506 27.696C0.981506 26.7894 1.16817 26.0054 1.54151 25.344C1.92551 24.6827 2.44284 24.1707 3.09351 23.808C3.74417 23.4454 4.47484 23.264 5.28551 23.264C6.01084 23.264 6.64551 23.424 7.18951 23.744C7.73351 24.064 8.15484 24.5494 8.45351 25.2C8.75217 25.8507 8.90151 26.6827 8.90151 27.696C8.90151 28.6987 8.75751 29.5307 8.46951 30.192C8.18151 30.8427 7.76551 31.328 7.22151 31.648C6.68817 31.968 6.04284 32.128 5.28551 32.128ZM5.71751 30.08C6.12284 30.08 6.49084 29.984 6.82151 29.792C7.15217 29.6 7.41351 29.328 7.60551 28.976C7.80817 28.6134 7.90951 28.1867 7.90951 27.696C7.90951 27.1947 7.80817 26.768 7.60551 26.416C7.41351 26.064 7.15217 25.792 6.82151 25.6C6.49084 25.408 6.12284 25.312 5.71751 25.312C5.30151 25.312 4.92817 25.408 4.59751 25.6C4.26684 25.792 4.00017 26.064 3.79751 26.416C3.60551 26.768 3.50951 27.1947 3.50951 27.696C3.50951 28.1867 3.60551 28.6134 3.79751 28.976C4.00017 29.328 4.26684 29.6 4.59751 29.792C4.92817 29.984 5.30151 30.08 5.71751 30.08ZM7.97351 32V30.24L8.02151 27.68L7.86151 25.136V20.128H10.3575V32H7.97351Z" fill="white"/>
<path d="M16.9396 32.128C15.9583 32.128 15.0943 31.936 14.3476 31.552C13.6116 31.168 13.041 30.6454 12.6356 29.984C12.2303 29.312 12.0276 28.5494 12.0276 27.696C12.0276 26.832 12.225 26.0694 12.6196 25.408C13.025 24.736 13.5743 24.2134 14.2676 23.84C14.961 23.456 15.745 23.264 16.6196 23.264C17.4623 23.264 18.2196 23.4454 18.8916 23.808C19.5743 24.16 20.113 24.672 20.5076 25.344C20.9023 26.0054 21.0996 26.8 21.0996 27.728C21.0996 27.824 21.0943 27.936 21.0836 28.064C21.073 28.1814 21.0623 28.2934 21.0516 28.4H14.0596V26.944H19.7396L18.7796 27.376C18.7796 26.928 18.689 26.5387 18.5076 26.208C18.3263 25.8774 18.0756 25.6214 17.7556 25.44C17.4356 25.248 17.0623 25.152 16.6356 25.152C16.209 25.152 15.8303 25.248 15.4996 25.44C15.1796 25.6214 14.929 25.8827 14.7476 26.224C14.5663 26.5547 14.4756 26.9494 14.4756 27.408V27.792C14.4756 28.2614 14.577 28.6774 14.7796 29.04C14.993 29.392 15.2863 29.664 15.6596 29.856C16.0436 30.0374 16.4916 30.128 17.0036 30.128C17.4623 30.128 17.8623 30.0587 18.2036 29.92C18.5556 29.7814 18.8756 29.5734 19.1636 29.296L20.4916 30.736C20.097 31.184 19.601 31.5307 19.0036 31.776C18.4063 32.0107 17.7183 32.128 16.9396 32.128Z" fill="white"/>
<path d="M25.9966 32L30.9886 20.8H33.5486L38.5566 32H35.8366L31.7406 22.112H32.7646L28.6526 32H25.9966ZM28.4926 29.6L29.1806 27.632H34.9406L35.6446 29.6H28.4926Z" fill="white"/>
<path d="M43.1605 32.128C42.3498 32.128 41.6192 31.9467 40.9685 31.584C40.3178 31.2107 39.8005 30.6934 39.4165 30.032C39.0432 29.3707 38.8565 28.592 38.8565 27.696C38.8565 26.7894 39.0432 26.0054 39.4165 25.344C39.8005 24.6827 40.3178 24.1707 40.9685 23.808C41.6192 23.4454 42.3498 23.264 43.1605 23.264C43.8858 23.264 44.5205 23.424 45.0645 23.744C45.6085 24.064 46.0298 24.5494 46.3285 25.2C46.6272 25.8507 46.7765 26.6827 46.7765 27.696C46.7765 28.6987 46.6325 29.5307 46.3445 30.192C46.0565 30.8427 45.6405 31.328 45.0965 31.648C44.5632 31.968 43.9178 32.128 43.1605 32.128ZM43.5925 30.08C43.9978 30.08 44.3658 29.984 44.6965 29.792C45.0272 29.6 45.2885 29.328 45.4805 28.976C45.6832 28.6134 45.7845 28.1867 45.7845 27.696C45.7845 27.1947 45.6832 26.768 45.4805 26.416C45.2885 26.064 45.0272 25.792 44.6965 25.6C44.3658 25.408 43.9978 25.312 43.5925 25.312C43.1765 25.312 42.8032 25.408 42.4725 25.6C42.1418 25.792 41.8752 26.064 41.6725 26.416C41.4805 26.768 41.3845 27.1947 41.3845 27.696C41.3845 28.1867 41.4805 28.6134 41.6725 28.976C41.8752 29.328 42.1418 29.6 42.4725 29.792C42.8032 29.984 43.1765 30.08 43.5925 30.08ZM45.8485 32V30.24L45.8965 27.68L45.7365 25.136V20.128H48.2325V32H45.8485Z" fill="white"/>
<path d="M61.5666 23.264C62.2493 23.264 62.852 23.4027 63.3746 23.68C63.908 23.9467 64.324 24.3627 64.6226 24.928C64.932 25.4827 65.0866 26.1974 65.0866 27.072V32H62.5906V27.456C62.5906 26.7627 62.4466 26.2507 62.1586 25.92C61.8706 25.5894 61.4653 25.424 60.9426 25.424C60.58 25.424 60.2546 25.5094 59.9666 25.68C59.6786 25.84 59.4546 26.0854 59.2946 26.416C59.1346 26.7467 59.0546 27.168 59.0546 27.68V32H56.5586V27.456C56.5586 26.7627 56.4146 26.2507 56.1266 25.92C55.8493 25.5894 55.4493 25.424 54.9266 25.424C54.564 25.424 54.2386 25.5094 53.9506 25.68C53.6626 25.84 53.4386 26.0854 53.2786 26.416C53.1186 26.7467 53.0386 27.168 53.0386 27.68V32H50.5426V23.392H52.9266V25.744L52.4786 25.056C52.7773 24.4694 53.1986 24.0267 53.7426 23.728C54.2973 23.4187 54.9266 23.264 55.6306 23.264C56.42 23.264 57.108 23.4667 57.6946 23.872C58.292 24.2667 58.6866 24.8747 58.8786 25.696L57.9986 25.456C58.2866 24.784 58.7453 24.2507 59.3746 23.856C60.0146 23.4614 60.7453 23.264 61.5666 23.264Z" fill="white"/>
<path d="M67.3239 32V23.392H69.8199V32H67.3239ZM68.5719 22.192C68.1132 22.192 67.7399 22.0587 67.4519 21.792C67.1639 21.5254 67.0199 21.1947 67.0199 20.8C67.0199 20.4054 67.1639 20.0747 67.4519 19.808C67.7399 19.5414 68.1132 19.408 68.5719 19.408C69.0306 19.408 69.4039 19.536 69.6919 19.792C69.9799 20.0374 70.1239 20.3574 70.1239 20.752C70.1239 21.168 69.9799 21.5147 69.6919 21.792C69.4145 22.0587 69.0412 22.192 68.5719 22.192Z" fill="white"/>
<path d="M77.3684 23.264C78.0511 23.264 78.659 23.4027 79.1924 23.68C79.7364 23.9467 80.163 24.3627 80.4724 24.928C80.7817 25.4827 80.9364 26.1974 80.9364 27.072V32H78.4404V27.456C78.4404 26.7627 78.2857 26.2507 77.9764 25.92C77.6777 25.5894 77.251 25.424 76.6964 25.424C76.3017 25.424 75.9444 25.5094 75.6244 25.68C75.315 25.84 75.0697 26.0907 74.8884 26.432C74.7177 26.7734 74.6324 27.2107 74.6324 27.744V32H72.1364V23.392H74.5204V25.776L74.0724 25.056C74.3817 24.48 74.8244 24.0374 75.4004 23.728C75.9764 23.4187 76.6324 23.264 77.3684 23.264Z" fill="white"/>
<path d="M83.1989 32V23.392H85.6949V32H83.1989ZM84.4469 22.192C83.9882 22.192 83.6149 22.0587 83.3269 21.792C83.0389 21.5254 82.8949 21.1947 82.8949 20.8C82.8949 20.4054 83.0389 20.0747 83.3269 19.808C83.6149 19.5414 83.9882 19.408 84.4469 19.408C84.9056 19.408 85.2789 19.536 85.5669 19.792C85.8549 20.0374 85.9989 20.3574 85.9989 20.752C85.9989 21.168 85.8549 21.5147 85.5669 21.792C85.2895 22.0587 84.9162 22.192 84.4469 22.192Z" fill="white"/>
<path d="M90.9074 32.128C90.1714 32.128 89.462 32.0427 88.7794 31.872C88.1074 31.6907 87.574 31.4667 87.1794 31.2L88.0114 29.408C88.406 29.6534 88.87 29.856 89.4034 30.016C89.9474 30.1654 90.4807 30.24 91.0034 30.24C91.5794 30.24 91.9847 30.1707 92.2194 30.032C92.4647 29.8934 92.5874 29.7014 92.5874 29.456C92.5874 29.2534 92.4914 29.104 92.2994 29.008C92.1181 28.9014 91.8727 28.8214 91.5634 28.768C91.2541 28.7147 90.9127 28.6614 90.5394 28.608C90.1767 28.5547 89.8087 28.4854 89.4354 28.4C89.062 28.304 88.7207 28.1654 88.4114 27.984C88.1021 27.8027 87.8514 27.5574 87.6594 27.248C87.478 26.9387 87.3874 26.5387 87.3874 26.048C87.3874 25.504 87.542 25.024 87.8514 24.608C88.1714 24.192 88.63 23.8667 89.2274 23.632C89.8247 23.3867 90.5394 23.264 91.3714 23.264C91.9581 23.264 92.5554 23.328 93.1634 23.456C93.7714 23.584 94.278 23.7707 94.6834 24.016L93.8514 25.792C93.4354 25.5467 93.014 25.3814 92.5874 25.296C92.1714 25.2 91.7661 25.152 91.3714 25.152C90.8167 25.152 90.4114 25.2267 90.1554 25.376C89.8994 25.5254 89.7714 25.7174 89.7714 25.952C89.7714 26.1654 89.862 26.3254 90.0434 26.432C90.2354 26.5387 90.486 26.624 90.7954 26.688C91.1047 26.752 91.4407 26.8107 91.8034 26.864C92.1767 26.9067 92.55 26.976 92.9234 27.072C93.2967 27.168 93.6327 27.3067 93.9314 27.488C94.2407 27.6587 94.4914 27.8987 94.6834 28.208C94.8754 28.5067 94.9714 28.9014 94.9714 29.392C94.9714 29.9254 94.8114 30.4 94.4914 30.816C94.1714 31.2214 93.7074 31.5414 93.0994 31.776C92.502 32.0107 91.7714 32.128 90.9074 32.128Z" fill="white"/>
<path d="M100.031 32.128C99.018 32.128 98.2287 31.872 97.6634 31.36C97.0981 30.8374 96.8154 30.064 96.8154 29.04V21.488H99.3114V29.008C99.3114 29.3707 99.4074 29.6534 99.5994 29.856C99.7914 30.048 100.053 30.144 100.383 30.144C100.778 30.144 101.114 30.0374 101.391 29.824L102.063 31.584C101.807 31.7654 101.498 31.904 101.135 32C100.783 32.0854 100.415 32.128 100.031 32.128ZM95.4874 25.504V23.584H101.455V25.504H95.4874Z" fill="white"/>
<path d="M103.465 32V23.392H105.849V25.824L105.513 25.12C105.769 24.512 106.179 24.0534 106.745 23.744C107.31 23.424 107.998 23.264 108.809 23.264V25.568C108.702 25.5574 108.606 25.552 108.521 25.552C108.435 25.5414 108.345 25.536 108.249 25.536C107.566 25.536 107.011 25.7334 106.585 26.128C106.169 26.512 105.961 27.1147 105.961 27.936V32H103.465Z" fill="white"/>
<path d="M115.01 32V30.32L114.85 29.952V26.944C114.85 26.4107 114.685 25.9947 114.354 25.696C114.034 25.3974 113.538 25.248 112.866 25.248C112.407 25.248 111.954 25.3227 111.506 25.472C111.069 25.6107 110.695 25.8027 110.386 26.048L109.49 24.304C109.959 23.9734 110.525 23.7174 111.186 23.536C111.847 23.3547 112.519 23.264 113.202 23.264C114.514 23.264 115.533 23.5734 116.258 24.192C116.983 24.8107 117.346 25.776 117.346 27.088V32H115.01ZM112.386 32.128C111.714 32.128 111.138 32.016 110.658 31.792C110.178 31.5574 109.81 31.2427 109.554 30.848C109.298 30.4534 109.17 30.0107 109.17 29.52C109.17 29.008 109.293 28.56 109.538 28.176C109.794 27.792 110.194 27.4934 110.738 27.28C111.282 27.056 111.991 26.944 112.866 26.944H115.154V28.4H113.138C112.551 28.4 112.146 28.496 111.922 28.688C111.709 28.88 111.602 29.12 111.602 29.408C111.602 29.728 111.725 29.984 111.97 30.176C112.226 30.3574 112.573 30.448 113.01 30.448C113.426 30.448 113.799 30.352 114.13 30.16C114.461 29.9574 114.701 29.664 114.85 29.28L115.234 30.432C115.053 30.9867 114.722 31.408 114.242 31.696C113.762 31.984 113.143 32.128 112.386 32.128Z" fill="white"/>
<path d="M123.828 32.128C122.9 32.128 122.073 31.9414 121.348 31.568C120.622 31.184 120.052 30.656 119.636 29.984C119.23 29.312 119.028 28.5494 119.028 27.696C119.028 26.832 119.23 26.0694 119.636 25.408C120.052 24.736 120.622 24.2134 121.348 23.84C122.073 23.456 122.9 23.264 123.828 23.264C124.734 23.264 125.524 23.456 126.196 23.84C126.868 24.2134 127.364 24.752 127.684 25.456L125.748 26.496C125.524 26.0907 125.241 25.792 124.9 25.6C124.569 25.408 124.206 25.312 123.812 25.312C123.385 25.312 123.001 25.408 122.66 25.6C122.318 25.792 122.046 26.064 121.844 26.416C121.652 26.768 121.556 27.1947 121.556 27.696C121.556 28.1974 121.652 28.624 121.844 28.976C122.046 29.328 122.318 29.6 122.66 29.792C123.001 29.984 123.385 30.08 123.812 30.08C124.206 30.08 124.569 29.9894 124.9 29.808C125.241 29.616 125.524 29.312 125.748 28.896L127.684 29.952C127.364 30.6454 126.868 31.184 126.196 31.568C125.524 31.9414 124.734 32.128 123.828 32.128Z" fill="white"/>
<path d="M129.074 32V23.392H131.57V32H129.074ZM130.322 22.192C129.863 22.192 129.49 22.0587 129.202 21.792C128.914 21.5254 128.77 21.1947 128.77 20.8C128.77 20.4054 128.914 20.0747 129.202 19.808C129.49 19.5414 129.863 19.408 130.322 19.408C130.781 19.408 131.154 19.536 131.442 19.792C131.73 20.0374 131.874 20.3574 131.874 20.752C131.874 21.168 131.73 21.5147 131.442 21.792C131.165 22.0587 130.791 22.192 130.322 22.192Z" fill="white"/>
<path d="M137.982 32.128C137.065 32.128 136.249 31.936 135.534 31.552C134.83 31.168 134.27 30.6454 133.854 29.984C133.449 29.312 133.246 28.5494 133.246 27.696C133.246 26.832 133.449 26.0694 133.854 25.408C134.27 24.736 134.83 24.2134 135.534 23.84C136.249 23.456 137.065 23.264 137.982 23.264C138.889 23.264 139.7 23.456 140.414 23.84C141.129 24.2134 141.689 24.7307 142.094 25.392C142.5 26.0534 142.702 26.8214 142.702 27.696C142.702 28.5494 142.5 29.312 142.094 29.984C141.689 30.6454 141.129 31.168 140.414 31.552C139.7 31.936 138.889 32.128 137.982 32.128ZM137.982 30.08C138.398 30.08 138.772 29.984 139.102 29.792C139.433 29.6 139.694 29.328 139.886 28.976C140.078 28.6134 140.174 28.1867 140.174 27.696C140.174 27.1947 140.078 26.768 139.886 26.416C139.694 26.064 139.433 25.792 139.102 25.6C138.772 25.408 138.398 25.312 137.982 25.312C137.566 25.312 137.193 25.408 136.862 25.6C136.532 25.792 136.265 26.064 136.062 26.416C135.87 26.768 135.774 27.1947 135.774 27.696C135.774 28.1867 135.87 28.6134 136.062 28.976C136.265 29.328 136.532 29.6 136.862 29.792C137.193 29.984 137.566 30.08 137.982 30.08ZM136.494 22.288L138.654 19.984H141.342L138.446 22.288H136.494Z" fill="white"/>
<path d="M149.603 23.264C150.285 23.264 150.893 23.4027 151.427 23.68C151.971 23.9467 152.397 24.3627 152.707 24.928C153.016 25.4827 153.171 26.1974 153.171 27.072V32H150.675V27.456C150.675 26.7627 150.52 26.2507 150.211 25.92C149.912 25.5894 149.485 25.424 148.931 25.424C148.536 25.424 148.179 25.5094 147.859 25.68C147.549 25.84 147.304 26.0907 147.123 26.432C146.952 26.7734 146.867 27.2107 146.867 27.744V32H144.371V23.392H146.755V25.776L146.307 25.056C146.616 24.48 147.059 24.0374 147.635 23.728C148.211 23.4187 148.867 23.264 149.603 23.264Z" fill="white"/>
<path d="M161.053 35.232C160.605 35.232 160.162 35.1627 159.725 35.024C159.287 34.8854 158.93 34.6934 158.653 34.448L159.564 32.672C159.756 32.8427 159.975 32.976 160.221 33.072C160.477 33.168 160.727 33.216 160.973 33.216C161.325 33.216 161.602 33.1307 161.805 32.96C162.018 32.8 162.21 32.528 162.381 32.144L162.829 31.088L163.021 30.816L166.109 23.392H168.508L164.621 32.528C164.343 33.2214 164.023 33.7654 163.661 34.16C163.309 34.5547 162.914 34.832 162.477 34.992C162.05 35.152 161.575 35.232 161.053 35.232ZM162.525 32.336L158.685 23.392H161.261L164.237 30.592L162.525 32.336Z" fill="white"/>
<path d="M176.634 25.84H182.01V27.92H176.634V25.84ZM176.826 32H174.234V20.8H182.698V22.88H176.826V32Z" fill="white"/>
<path d="M184.277 32V23.392H186.773V32H184.277ZM185.525 22.192C185.066 22.192 184.693 22.0587 184.405 21.792C184.117 21.5254 183.973 21.1947 183.973 20.8C183.973 20.4054 184.117 20.0747 184.405 19.808C184.693 19.5414 185.066 19.408 185.525 19.408C185.984 19.408 186.357 19.536 186.645 19.792C186.933 20.0374 187.077 20.3574 187.077 20.752C187.077 21.168 186.933 21.5147 186.645 21.792C186.368 22.0587 185.994 22.192 185.525 22.192Z" fill="white"/>
<path d="M194.322 23.264C195.004 23.264 195.612 23.4027 196.146 23.68C196.69 23.9467 197.116 24.3627 197.426 24.928C197.735 25.4827 197.89 26.1974 197.89 27.072V32H195.394V27.456C195.394 26.7627 195.239 26.2507 194.93 25.92C194.631 25.5894 194.204 25.424 193.65 25.424C193.255 25.424 192.897 25.5094 192.577 25.68C192.268 25.84 192.023 26.0907 191.842 26.432C191.671 26.7734 191.586 27.2107 191.586 27.744V32H189.09V23.392H191.474V25.776L191.026 25.056C191.335 24.48 191.778 24.0374 192.354 23.728C192.93 23.4187 193.586 23.264 194.322 23.264Z" fill="white"/>
<path d="M205.432 32V30.32L205.272 29.952V26.944C205.272 26.4107 205.107 25.9947 204.776 25.696C204.456 25.3974 203.96 25.248 203.288 25.248C202.829 25.248 202.376 25.3227 201.928 25.472C201.491 25.6107 201.117 25.8027 200.808 26.048L199.912 24.304C200.381 23.9734 200.947 23.7174 201.608 23.536C202.269 23.3547 202.941 23.264 203.624 23.264C204.936 23.264 205.955 23.5734 206.68 24.192C207.405 24.8107 207.768 25.776 207.768 27.088V32H205.432ZM202.808 32.128C202.136 32.128 201.56 32.016 201.08 31.792C200.6 31.5574 200.232 31.2427 199.976 30.848C199.72 30.4534 199.592 30.0107 199.592 29.52C199.592 29.008 199.715 28.56 199.96 28.176C200.216 27.792 200.616 27.4934 201.16 27.28C201.704 27.056 202.413 26.944 203.288 26.944H205.576V28.4H203.56C202.973 28.4 202.568 28.496 202.344 28.688C202.131 28.88 202.024 29.12 202.024 29.408C202.024 29.728 202.147 29.984 202.392 30.176C202.648 30.3574 202.995 30.448 203.432 30.448C203.848 30.448 204.221 30.352 204.552 30.16C204.883 29.9574 205.123 29.664 205.272 29.28L205.656 30.432C205.475 30.9867 205.144 31.408 204.664 31.696C204.184 31.984 203.565 32.128 202.808 32.128Z" fill="white"/>
<path d="M215.259 23.264C215.942 23.264 216.55 23.4027 217.083 23.68C217.627 23.9467 218.054 24.3627 218.363 24.928C218.672 25.4827 218.827 26.1974 218.827 27.072V32H216.331V27.456C216.331 26.7627 216.176 26.2507 215.867 25.92C215.568 25.5894 215.142 25.424 214.587 25.424C214.192 25.424 213.835 25.5094 213.515 25.68C213.206 25.84 212.96 26.0907 212.779 26.432C212.608 26.7734 212.523 27.2107 212.523 27.744V32H210.027V23.392H212.411V25.776L211.963 25.056C212.272 24.48 212.715 24.0374 213.291 23.728C213.867 23.4187 214.523 23.264 215.259 23.264Z" fill="white"/>
<path d="M220.498 32V30.496L225.586 24.48L226.018 25.312H220.61V23.392H228.034V24.896L222.946 30.912L222.498 30.08H228.178V32H220.498Z" fill="white"/>
<path d="M235.057 32V30.32L234.897 29.952V26.944C234.897 26.4107 234.732 25.9947 234.401 25.696C234.081 25.3974 233.585 25.248 232.913 25.248C232.454 25.248 232.001 25.3227 231.553 25.472C231.116 25.6107 230.742 25.8027 230.433 26.048L229.537 24.304C230.006 23.9734 230.572 23.7174 231.233 23.536C231.894 23.3547 232.566 23.264 233.249 23.264C234.561 23.264 235.58 23.5734 236.305 24.192C237.03 24.8107 237.393 25.776 237.393 27.088V32H235.057ZM232.433 32.128C231.761 32.128 231.185 32.016 230.705 31.792C230.225 31.5574 229.857 31.2427 229.601 30.848C229.345 30.4534 229.217 30.0107 229.217 29.52C229.217 29.008 229.34 28.56 229.585 28.176C229.841 27.792 230.241 27.4934 230.785 27.28C231.329 27.056 232.038 26.944 232.913 26.944H235.201V28.4H233.185C232.598 28.4 232.193 28.496 231.969 28.688C231.756 28.88 231.649 29.12 231.649 29.408C231.649 29.728 231.772 29.984 232.017 30.176C232.273 30.3574 232.62 30.448 233.057 30.448C233.473 30.448 233.846 30.352 234.177 30.16C234.508 29.9574 234.748 29.664 234.897 29.28L235.281 30.432C235.1 30.9867 234.769 31.408 234.289 31.696C233.809 31.984 233.19 32.128 232.433 32.128Z" fill="white"/>
<path d="M242.548 32.128C241.812 32.128 241.103 32.0427 240.42 31.872C239.748 31.6907 239.215 31.4667 238.82 31.2L239.652 29.408C240.047 29.6534 240.511 29.856 241.044 30.016C241.588 30.1654 242.121 30.24 242.644 30.24C243.22 30.24 243.625 30.1707 243.86 30.032C244.105 29.8934 244.228 29.7014 244.228 29.456C244.228 29.2534 244.132 29.104 243.94 29.008C243.759 28.9014 243.513 28.8214 243.204 28.768C242.895 28.7147 242.553 28.6614 242.18 28.608C241.817 28.5547 241.449 28.4854 241.076 28.4C240.703 28.304 240.361 28.1654 240.052 27.984C239.743 27.8027 239.492 27.5574 239.3 27.248C239.119 26.9387 239.028 26.5387 239.028 26.048C239.028 25.504 239.183 25.024 239.492 24.608C239.812 24.192 240.271 23.8667 240.868 23.632C241.465 23.3867 242.18 23.264 243.012 23.264C243.599 23.264 244.196 23.328 244.804 23.456C245.412 23.584 245.919 23.7707 246.324 24.016L245.492 25.792C245.076 25.5467 244.655 25.3814 244.228 25.296C243.812 25.2 243.407 25.152 243.012 25.152C242.457 25.152 242.052 25.2267 241.796 25.376C241.54 25.5254 241.412 25.7174 241.412 25.952C241.412 26.1654 241.503 26.3254 241.684 26.432C241.876 26.5387 242.127 26.624 242.436 26.688C242.745 26.752 243.081 26.8107 243.444 26.864C243.817 26.9067 244.191 26.976 244.564 27.072C244.937 27.168 245.273 27.3067 245.572 27.488C245.881 27.6587 246.132 27.8987 246.324 28.208C246.516 28.5067 246.612 28.9014 246.612 29.392C246.612 29.9254 246.452 30.4 246.132 30.816C245.812 31.2214 245.348 31.5414 244.74 31.776C244.143 32.0107 243.412 32.128 242.548 32.128Z" fill="white"/>
</svg>
