<svg width="83" height="83" viewBox="0 0 83 83" fill="none" xmlns="http://www.w3.org/2000/svg">
<path d="M82.9994 11.4953C82.9994 11.2186 82.9305 10.9696 82.8193 10.7345C82.7776 10.4439 82.6671 10.1672 82.4737 9.9321L73.9526 0H9.04679L0.525684 9.9321C0.331732 10.1677 0.221149 10.4439 0.18005 10.7345C0.0688895 10.9696 0 11.2186 0 11.4953V26.283H4.14999V83H78.8497V26.283H82.9997L82.9994 11.4953ZM10.3183 2.76684H72.6792L78.6136 9.68368L4.38514 9.6831L10.3183 2.76684ZM76.0822 80.2323H6.91678V26.2824H76.0837L76.0822 80.2323ZM80.2322 23.5168H2.76679V12.4499H80.2337L80.2322 23.5168Z" fill="white"/>
<path d="M58.0995 31.817H24.8996V45.6501H58.0995V31.817ZM55.3326 42.8833H27.667V34.5833H55.3341L55.3326 42.8833Z" fill="white"/>
<path d="M62.2494 52.567H20.7496V71.934H62.2494V52.567ZM59.4826 69.1669H23.517V55.3332H59.4841L59.4826 69.1669Z" fill="white"/>
<path d="M30.4324 66.3997H37.3492C38.11 66.3997 38.7324 65.7774 38.7324 65.0166C38.7324 64.2559 38.11 63.6335 37.3492 63.6335H30.4324C29.6716 63.6335 29.0493 64.2559 29.0493 65.0166C29.0493 65.7774 29.6716 66.3997 30.4324 66.3997Z" fill="white"/>
<path d="M37.3495 60.8669H52.5666C53.3274 60.8669 53.9497 60.2446 53.9497 59.4838C53.9497 58.7231 53.3274 58.1007 52.5666 58.1007L37.3495 58.1001C36.5887 58.1001 35.9664 58.7225 35.9664 59.4832C35.9664 60.244 36.5887 60.8669 37.3495 60.8669Z" fill="white"/>
<path d="M30.4324 60.867C30.7919 60.867 31.1515 60.7147 31.4143 60.4658C31.6638 60.2029 31.8161 59.8434 31.8161 59.4833C31.8161 59.1237 31.6639 58.7642 31.4149 58.5013C30.8892 57.9895 29.9762 57.9895 29.4505 58.5013C29.2015 58.7642 29.0493 59.1237 29.0493 59.4833C29.0493 59.8567 29.2015 60.2023 29.4505 60.4652C29.7133 60.7147 30.059 60.867 30.4324 60.867Z" fill="white"/>
<path d="M43.284 64.0343C43.0351 64.2971 42.8828 64.6567 42.8828 65.0168C42.8828 65.3763 43.0351 65.7359 43.284 65.9987C43.5469 66.2477 43.9064 66.3999 44.2665 66.3999C44.6261 66.3999 44.9856 66.2477 45.2484 65.9987C45.4974 65.7359 45.6496 65.3763 45.6496 65.0168C45.6496 64.6572 45.4974 64.2977 45.2484 64.0349C44.7366 63.5225 43.7958 63.5225 43.284 64.0343Z" fill="white"/>
<path d="M52.5666 63.6326H51.1835C50.4227 63.6326 49.8004 64.255 49.8004 65.0158C49.8004 65.7765 50.4227 66.3989 51.1835 66.3989H52.5666C53.3274 66.3989 53.9497 65.7765 53.9497 65.0158C53.9497 64.2556 53.3274 63.6326 52.5666 63.6326Z" fill="white"/>
</svg>
