<svg width="64" height="83" viewBox="0 0 64 83" fill="none" xmlns="http://www.w3.org/2000/svg">
<path d="M31.5637 83C15.4311 83 0.935605 78.3244 0.818704 78.3244C0.351455 78.2078 0 77.7397 0 77.155V38.5777C0 37.9931 0.35064 37.5258 0.935312 37.4084C1.05192 37.4084 15.4312 33.9012 31.5634 33.9012C47.6959 33.9012 62.0745 37.4084 62.1914 37.4084C62.6587 37.525 63.1267 37.9931 63.1267 38.5777V77.155C63.1267 77.6223 62.7761 78.0904 62.308 78.3244C62.1922 78.3236 47.6971 83 31.5652 83H31.5637ZM2.33842 76.3362C5.61164 77.2715 18.0029 80.6614 31.5637 80.6614C45.1244 80.6614 57.5157 77.2717 60.7889 76.3362V39.5124C57.3992 38.8112 45.1244 36.2392 31.5637 36.2392C18.0029 36.2392 5.72854 38.811 2.33842 39.5124V76.3362Z" fill="#333333"/>
<path d="M5.84509 37.4083C5.84509 38.1104 6.31315 38.5776 7.01443 38.5776C7.71653 38.5776 8.18424 37.9926 8.18261 37.4079V25.7178C8.18261 12.8583 18.7033 2.3376 31.5628 2.3376C44.0716 2.3376 54.3583 12.1575 54.943 24.5488V37.1705L57.2815 37.4665V25.7182C57.2815 11.5734 45.7087 0 31.5633 0C17.4185 0 5.84509 11.5728 5.84509 25.7182V37.4083Z" fill="#333333"/>
<path d="M31.5626 9.35249C40.5634 9.35249 47.9283 16.7166 47.9283 25.7182V35.8175L50.2674 36.494V24.5488C49.6826 14.7293 41.4998 7.01364 31.5628 7.01364C21.2751 7.01364 12.8582 15.4307 12.8582 25.7182V36.2389C12.8582 36.941 13.3263 37.4082 14.0276 37.4082C14.7297 37.4082 15.1969 36.9402 15.1969 36.2389V25.7182C15.1969 16.7175 22.5611 9.35249 31.5626 9.35249Z" fill="#333333"/>
<path d="M31.5636 70.1409C29.5764 70.1409 28.0564 68.6209 28.0564 66.6337V62.5425C26.1858 61.14 25.3679 58.8013 25.9526 56.4635C26.4198 54.3597 28.1739 52.7222 30.2777 52.2551C32.0309 51.7878 33.9014 52.2551 35.304 53.307C36.7066 54.4763 37.5254 56.1128 37.5254 57.8661C37.5254 59.7367 36.5901 61.3733 35.1876 62.5417V66.6337C35.0709 68.6217 33.551 70.1409 31.5638 70.1409L31.5636 70.1409ZM31.5636 54.3597C31.3296 54.3597 30.979 54.3597 30.7449 54.4763C29.5756 54.7103 28.5236 55.7622 28.1731 56.9316C27.8225 58.4516 28.4071 60.0882 29.8097 60.7894C30.1603 61.0234 30.3943 61.374 30.3943 61.8413V66.6344C30.3943 67.3357 30.8616 67.8038 31.5637 67.8038C32.265 67.8038 32.733 67.3365 32.733 66.6344V61.8413C32.733 61.374 32.9671 61.0226 33.3177 60.7894C34.3696 60.2047 35.0709 59.152 35.0709 57.866C35.0709 56.8141 34.6036 55.7622 33.7849 55.0602C33.0837 54.5929 32.3824 54.3597 31.5636 54.3597Z" fill="#333333"/>
</svg>
