<svg width="82" height="83" viewBox="0 0 82 83" fill="none" xmlns="http://www.w3.org/2000/svg">
<path d="M31.5637 83C15.4311 83 0.935605 78.3244 0.818704 78.3244C0.351455 78.2078 0 77.7397 0 77.155V38.5777C0 37.9931 0.35064 37.5258 0.935312 37.4084C1.05192 37.4084 15.4312 33.9012 31.5634 33.9012C47.6959 33.9012 62.0745 37.4084 62.1914 37.4084C62.6587 37.525 63.1267 37.9931 63.1267 38.5777V77.155C63.1267 77.6223 62.7761 78.0904 62.308 78.3244C62.1922 78.3236 47.6971 83 31.5652 83H31.5637ZM2.33842 76.3362C5.61164 77.2715 18.0029 80.6614 31.5637 80.6614C45.1244 80.6614 57.5157 77.2717 60.7889 76.3362V39.5124C57.3992 38.8112 45.1244 36.2392 31.5637 36.2392C18.0029 36.2392 5.72854 38.811 2.33842 39.5124V76.3362Z" fill="#333333"/>
<path d="M7.01437 38.5776C6.31309 38.5776 5.84503 38.1104 5.84503 37.4083V25.7182C5.84503 11.5728 17.4184 0 31.5632 0C45.7087 0 57.2814 11.5734 57.2814 25.7182C57.2814 26.4195 56.8142 26.8876 56.1121 26.8876H49.0976C48.3963 26.8876 47.9283 26.4203 47.9283 25.7182C47.9283 16.7166 40.5633 9.35249 31.5626 9.35249C22.561 9.35249 15.1969 16.7175 15.1969 25.7182V36.2389C15.1969 36.9402 14.7296 37.4082 14.0275 37.4082C13.3262 37.4082 12.8582 36.941 12.8582 36.2389V25.7182C12.8582 15.4307 21.275 7.01364 31.5627 7.01364C41.4997 7.01364 49.6826 14.7293 50.2673 24.5488H54.9429C54.3582 12.1575 44.0716 2.3376 31.5627 2.3376C18.7032 2.3376 8.18255 12.8583 8.18255 25.7178V37.4079C8.18418 37.9926 7.71693 38.5772 7.01484 38.5772L7.01437 38.5776Z" fill="#333333"/>
<path d="M31.5636 70.1409C29.5764 70.1409 28.0564 68.6209 28.0564 66.6337V62.5425C26.1858 61.14 25.3679 58.8013 25.9526 56.4635C26.4198 54.3597 28.1739 52.7222 30.2777 52.2551C32.0309 51.7878 33.9014 52.2551 35.304 53.307C36.7066 54.4763 37.5254 56.1128 37.5254 57.8661C37.5254 59.7367 36.5901 61.3733 35.1876 62.5417V66.6337C35.0709 68.6217 33.551 70.1409 31.5638 70.1409L31.5636 70.1409ZM31.5636 54.3597C31.3296 54.3597 30.979 54.3597 30.7449 54.4763C29.5756 54.7103 28.5236 55.7622 28.1731 56.9316C27.8225 58.4516 28.4071 60.0882 29.8097 60.7894C30.1603 61.0234 30.3943 61.374 30.3943 61.8413V66.6344C30.3943 67.3357 30.8616 67.8038 31.5637 67.8038C32.265 67.8038 32.733 67.3365 32.733 66.6344V61.8413C32.733 61.374 32.9671 61.0226 33.3177 60.7894C34.3696 60.2047 35.0709 59.152 35.0709 57.866C35.0709 56.8141 34.6036 55.7622 33.7849 55.0602C33.0837 54.5929 32.3824 54.3597 31.5636 54.3597Z" fill="#333333"/>
<path d="M80.4282 31.9143H70.7254C70.0241 31.9143 69.5561 31.4471 69.5561 30.745C69.5561 30.0437 70.0233 29.5756 70.7254 29.5756H80.4282C81.1295 29.5756 81.5975 30.0429 81.5975 30.745C81.5975 31.4471 81.0129 31.9143 80.4282 31.9143Z" fill="#333333"/>
<path d="M76.9211 43.6044C76.8045 43.6044 76.6871 43.6044 76.5705 43.4878L66.8677 39.9805C66.283 39.7465 65.9324 39.0452 66.1664 38.4606C66.4005 37.8759 67.1017 37.5253 67.6864 37.7593L77.3892 41.2665C77.9738 41.5006 78.3245 42.2018 78.0904 42.7865C77.739 43.2537 77.3884 43.6044 76.9211 43.6044Z" fill="#333333"/>
<path d="M67.2184 23.7312C66.7511 23.7312 66.283 23.3806 66.1664 22.9125C65.9324 22.3279 66.283 21.6266 66.8677 21.3926L76.5705 17.8853C77.1552 17.6513 77.8564 18.0019 78.0904 18.5866C78.3245 19.1713 77.9738 19.8726 77.3892 20.1066L67.6864 23.6138C67.4524 23.6146 67.335 23.7312 67.2184 23.7312Z" fill="#333333"/>
</svg>
