<svg width="75" height="83" viewBox="0 0 75 83" fill="none" xmlns="http://www.w3.org/2000/svg">
<path d="M74.955 67.0765L69.8535 48.0374V18.5409C69.8535 18.2349 69.7321 17.942 69.5164 17.7257L56.1763 4.38671C55.9606 4.16976 55.6671 4.04785 55.3617 4.04845H49.6087L42.8636 0.154191C42.5989 0.00179151 42.2845 -0.0400397 41.9893 0.0394428L27.0265 4.04845H12.7755C12.1384 4.04845 11.6221 4.56482 11.6221 5.20132V8.17576L0.854214 11.0611C0.239835 11.2267 -0.125325 11.8584 0.0396226 12.4734L11.6233 55.703V77.3323C11.6227 77.6383 11.744 77.9318 11.9603 78.1481C12.1767 78.3639 12.4695 78.4858 12.7755 78.4858H17.727L18.7089 82.1452C18.8739 82.7608 19.5056 83.1253 20.1206 82.9604L36.8264 78.4858H68.7005C69.0065 78.4858 69.3 78.3645 69.5163 78.1481C69.7327 77.9318 69.854 77.6383 69.8534 77.3324V69.6364L74.1373 68.4877C74.7523 68.3228 75.1169 67.6911 74.9525 67.0761L74.955 67.0765ZM56.5142 7.98402L65.9176 17.3887H56.5142V7.98402ZM42.1246 2.39011L44.9939 4.0486H35.9341L42.1246 2.39011ZM2.56538 12.99L11.6233 10.5623V46.7969L2.56538 12.99ZM20.6375 80.4361L20.1146 78.4854H27.9187L20.6375 80.4361ZM13.9288 76.1797V6.35444H54.2086V18.5404C54.2086 19.1769 54.725 19.6933 55.3621 19.6933H67.5487V76.1802L13.9288 76.1797ZM69.8542 67.249V56.9449L72.4301 66.5587L69.8542 67.249ZM19.1767 17.4359C19.1767 16.7994 19.6925 16.2837 20.3289 16.2837H33.1736C33.485 16.2747 33.7862 16.3924 34.0097 16.6094C34.2326 16.8269 34.3587 17.1246 34.3587 17.4365C34.3587 17.7479 34.2326 18.0455 34.0097 18.2631C33.7862 18.48 33.485 18.5978 33.1736 18.5888H20.3289C20.0229 18.5888 19.7301 18.4675 19.5138 18.2511C19.2974 18.0348 19.1761 17.7413 19.1767 17.4359ZM19.1767 21.6911C19.1761 21.3851 19.2974 21.0923 19.5138 20.8759C19.7301 20.6596 20.0229 20.5383 20.3289 20.5383H43.5342C43.8455 20.5293 44.1467 20.647 44.3697 20.864C44.5932 21.0809 44.7187 21.3792 44.7187 21.6905C44.7187 22.0019 44.5932 22.3001 44.3697 22.5171C44.1467 22.7346 43.8449 22.8517 43.5336 22.8434H20.3299C20.0233 22.8434 19.7298 22.7215 19.5135 22.5045C19.2977 22.2876 19.1764 21.9935 19.1776 21.6875L19.1767 21.6911ZM19.1767 25.9458C19.1767 25.3093 19.6925 24.7936 20.3289 24.7936H43.5342C43.8455 24.7846 44.1467 24.9024 44.3697 25.1193C44.5932 25.3368 44.7187 25.6345 44.7187 25.9458C44.7187 26.2572 44.5932 26.5554 44.3697 26.773C44.1467 26.9899 43.8449 27.1077 43.5336 27.0987H20.3299C20.0239 27.0987 19.731 26.9774 19.5147 26.761C19.2983 26.5447 19.1761 26.2512 19.1767 25.9458ZM62.3007 34.3243C62.3007 34.9608 61.7849 35.4766 61.1485 35.4766H20.3286C19.704 35.4592 19.2074 34.9483 19.2074 34.3237C19.2074 33.6998 19.704 33.1888 20.3286 33.1714H61.1485C61.4545 33.1714 61.7473 33.2928 61.9636 33.5091C62.18 33.7255 62.3013 34.0189 62.3007 34.3243ZM62.3007 41.26C62.3007 41.8965 61.7849 42.4123 61.1485 42.4123H20.3286C19.704 42.395 19.2074 41.884 19.2074 41.2594C19.2074 40.6349 19.704 40.1239 20.3286 40.1065H61.1485C61.4545 40.1065 61.7473 40.2285 61.9636 40.4448C62.18 40.6606 62.3013 40.954 62.3007 41.26ZM62.3007 48.1945C62.3013 48.5005 62.18 48.7934 61.9636 49.0097C61.7473 49.2261 61.4545 49.3474 61.1485 49.3474H20.3286C19.704 49.33 19.2074 48.819 19.2074 48.1951C19.2074 47.5706 19.704 47.0596 20.3286 47.0422H61.1485C61.785 47.0422 62.3007 47.558 62.3007 48.1945ZM62.3007 55.1302C62.3007 55.7667 61.7849 56.2825 61.1485 56.2831H20.3286C19.6915 56.2831 19.1751 55.7667 19.1751 55.1302C19.1751 54.4931 19.6915 53.9768 20.3286 53.9768H61.1485C61.785 53.9774 62.3007 54.4937 62.3007 55.1302ZM62.3007 62.0659C62.3007 62.7024 61.7849 63.2176 61.1485 63.2176H48.057C47.7456 63.2266 47.4438 63.1088 47.2209 62.8919C46.9974 62.6749 46.8719 62.3767 46.8719 62.0653C46.8719 61.754 46.9974 61.4557 47.2209 61.2388C47.4438 61.0212 47.7457 60.9041 48.057 60.9125H61.1485C61.4545 60.9125 61.7473 61.0338 61.9636 61.2501C62.18 61.4665 62.3013 61.7605 62.3007 62.0659Z" fill="#333333"/>
</svg>
