<svg width="23" height="23" viewBox="0 0 23 23" fill="none" xmlns="http://www.w3.org/2000/svg">
<path d="M7.42708 11.0208C7.23646 11.0208 7.05364 11.0966 6.91885 11.2314C6.78406 11.3661 6.70833 11.549 6.70833 11.7396C6.70833 11.9302 6.78406 12.113 6.91885 12.2478C7.05364 12.3826 7.23646 12.4583 7.42708 12.4583C7.61771 12.4583 7.80052 12.3826 7.93531 12.2478C8.07011 12.113 8.14583 11.9302 8.14583 11.7396C8.14583 11.549 8.07011 11.3661 7.93531 11.2314C7.80052 11.0966 7.61771 11.0208 7.42708 11.0208ZM6.70833 14.6146C6.70833 14.424 6.78406 14.2411 6.91885 14.1064C7.05364 13.9716 7.23646 13.8958 7.42708 13.8958C7.61771 13.8958 7.80052 13.9716 7.93531 14.1064C8.07011 14.2411 8.14583 14.424 8.14583 14.6146C8.14583 14.8052 8.07011 14.988 7.93531 15.1228C7.80052 15.2576 7.61771 15.3333 7.42708 15.3333C7.23646 15.3333 7.05364 15.2576 6.91885 15.1228C6.78406 14.988 6.70833 14.8052 6.70833 14.6146ZM9.58333 11.7396C9.58333 11.549 9.65906 11.3661 9.79385 11.2314C9.92864 11.0966 10.1115 11.0208 10.3021 11.0208H13.2288C13.4195 11.0208 13.6023 11.0966 13.7371 11.2314C13.8719 11.3661 13.9476 11.549 13.9476 11.7396C13.9476 11.9302 13.8719 12.113 13.7371 12.2478C13.6023 12.3826 13.4195 12.4583 13.2288 12.4583H10.3021C10.1115 12.4583 9.92864 12.3826 9.79385 12.2478C9.65906 12.113 9.58333 11.9302 9.58333 11.7396ZM10.3021 13.8958C10.1115 13.8958 9.92864 13.9716 9.79385 14.1064C9.65906 14.2411 9.58333 14.424 9.58333 14.6146C9.58333 14.8052 9.65906 14.988 9.79385 15.1228C9.92864 15.2576 10.1115 15.3333 10.3021 15.3333H13.2288C13.4195 15.3333 13.6023 15.2576 13.7371 15.1228C13.8719 14.988 13.9476 14.8052 13.9476 14.6146C13.9476 14.424 13.8719 14.2411 13.7371 14.1064C13.6023 13.9716 13.4195 13.8958 13.2288 13.8958H10.3021ZM5.98958 1.91667C5.41771 1.91667 4.86926 2.14385 4.46488 2.54822C4.06051 2.9526 3.83333 3.50105 3.83333 4.07292V16.5313C3.83333 17.1031 4.06051 17.6516 4.46488 18.056C4.86926 18.4603 5.41771 18.6875 5.98958 18.6875H14.6146C15.1865 18.6875 15.7349 18.4603 16.1393 18.056C16.5437 17.6516 16.7708 17.1031 16.7708 16.5313V8.49946C16.7708 8.2163 16.7151 7.93591 16.6067 7.6743C16.4983 7.41269 16.3395 7.17498 16.1393 6.97475L11.7127 2.54821C11.3086 2.14407 10.7605 1.91692 10.189 1.91667H5.98958ZM5.27083 4.07292C5.27083 3.8823 5.34656 3.69948 5.48135 3.56469C5.61614 3.4299 5.79896 3.35417 5.98958 3.35417H10.0663V6.46684C10.0663 6.75 10.1221 7.03039 10.2305 7.292C10.3388 7.55361 10.4977 7.79131 10.6979 7.99154C11.1023 8.39591 11.6507 8.62309 12.2226 8.62309H15.3333V16.5313C15.3333 16.7219 15.2576 16.9047 15.1228 17.0395C14.988 17.1743 14.8052 17.25 14.6146 17.25H5.98958C5.79896 17.25 5.61614 17.1743 5.48135 17.0395C5.34656 16.9047 5.27083 16.7219 5.27083 16.5313V4.07292ZM11.5038 6.46684V4.37192L14.3165 7.18559H12.2226C12.032 7.18559 11.8491 7.10986 11.7143 6.97507C11.5796 6.84028 11.5038 6.65746 11.5038 6.46684ZM8.38542 21.0833C7.9394 21.0835 7.50432 20.9453 7.14012 20.6878C6.77591 20.4304 6.5005 20.0663 6.35183 19.6458H14.6146C15.4406 19.6458 16.2328 19.3177 16.8169 18.7336C17.401 18.1495 17.7292 17.3573 17.7292 16.5313V8.56463L18.5342 9.36963C18.9395 9.77501 19.1667 10.3232 19.1667 10.8953V16.5313C19.1667 17.129 19.0489 17.721 18.8202 18.2733C18.5914 18.8255 18.2561 19.3274 17.8334 19.7501C17.4107 20.1728 16.9089 20.5081 16.3566 20.7368C15.8043 20.9656 15.2124 21.0833 14.6146 21.0833H8.38542Z" fill="white"/>
</svg>
