<svg width="14" height="14" viewBox="0 0 14 14" fill="none" xmlns="http://www.w3.org/2000/svg">
<path d="M7.09204 12.3284C5.64149 12.3284 4.25034 11.7522 3.22464 10.7265C2.19894 9.70078 1.6227 8.30963 1.6227 6.85907C1.6227 5.40851 2.19894 4.01737 3.22464 2.99167C4.25034 1.96597 5.64149 1.38973 7.09204 1.38973C8.5426 1.38973 9.93375 1.96597 10.9595 2.99167C11.9852 4.01737 12.5614 5.40851 12.5614 6.85907C12.5614 8.30963 11.9852 9.70078 10.9595 10.7265C9.93375 11.7522 8.5426 12.3284 7.09204 12.3284ZM7.09204 13.1097C8.74983 13.1097 10.3397 12.4512 11.5119 11.279C12.6842 10.1067 13.3427 8.51686 13.3427 6.85907C13.3427 5.20129 12.6842 3.61141 11.5119 2.43918C10.3397 1.26695 8.74983 0.608398 7.09204 0.608398C5.43426 0.608398 3.84438 1.26695 2.67215 2.43918C1.49992 3.61141 0.84137 5.20129 0.84137 6.85907C0.84137 8.51686 1.49992 10.1067 2.67215 11.279C3.84438 12.4512 5.43426 13.1097 7.09204 13.1097Z" fill="#212529"/>
<path d="M7.81869 5.75583L6.02943 5.98007L5.96536 6.27698L6.31696 6.34183C6.54667 6.39652 6.59199 6.47934 6.54199 6.70828L5.96536 9.41794C5.81378 10.1188 6.0474 10.4485 6.59668 10.4485C7.02251 10.4485 7.51709 10.2516 7.74133 9.98129L7.81009 9.65625C7.65382 9.79377 7.42567 9.84846 7.2741 9.84846C7.05923 9.84846 6.98109 9.69766 7.03657 9.43201L7.81869 5.75583ZM7.87338 4.1244C7.87338 4.33163 7.79106 4.53036 7.64453 4.67689C7.498 4.82342 7.29927 4.90574 7.09204 4.90574C6.88482 4.90574 6.68609 4.82342 6.53956 4.67689C6.39303 4.53036 6.31071 4.33163 6.31071 4.1244C6.31071 3.91718 6.39303 3.71844 6.53956 3.57192C6.68609 3.42539 6.88482 3.34307 7.09204 3.34307C7.29927 3.34307 7.498 3.42539 7.64453 3.57192C7.79106 3.71844 7.87338 3.91718 7.87338 4.1244Z" fill="#212529"/>
</svg>
