<svg width="21" height="20" viewBox="0 0 21 20" fill="none" xmlns="http://www.w3.org/2000/svg">
<path d="M9.86367 1.15912C10.039 1.00338 10.2655 0.917366 10.5 0.917366C10.7345 0.917366 10.961 1.00338 11.1363 1.15912L19.7613 8.82579C19.9416 8.99706 20.0483 9.23171 20.0588 9.48016C20.0693 9.72861 19.9828 9.97142 19.8176 10.1573C19.6524 10.3431 19.4214 10.4575 19.1734 10.4762C18.9254 10.4949 18.6799 10.4165 18.4887 10.2575L18.1667 9.97291V17.2083C18.1667 17.7167 17.9647 18.2042 17.6053 18.5636C17.2458 18.9231 16.7583 19.125 16.25 19.125H4.75C4.24167 19.125 3.75416 18.9231 3.39471 18.5636C3.03527 18.2042 2.83333 17.7167 2.83333 17.2083V9.97291L2.51133 10.2575C2.32011 10.4165 2.07457 10.4949 1.8266 10.4762C1.57863 10.4575 1.34765 10.3431 1.18244 10.1573C1.01723 9.97142 0.93073 9.72861 0.941223 9.48016C0.951716 9.23171 1.05837 8.99706 1.23867 8.82579L9.86367 1.15912ZM4.75 8.26708V17.2083H7.625V12.4167C7.625 12.1625 7.72597 11.9187 7.90569 11.739C8.08541 11.5593 8.32917 11.4583 8.58333 11.4583H12.4167C12.6708 11.4583 12.9146 11.5593 13.0943 11.739C13.274 11.9187 13.375 12.1625 13.375 12.4167V17.2083H16.25V8.26804L10.5 3.15725L4.75 8.26708ZM11.4583 17.2083V13.375H9.54167V17.2083H11.4583Z" fill="white"/>
</svg>
