<svg width="26" height="19" viewBox="0 0 26 19" fill="none" xmlns="http://www.w3.org/2000/svg">
<path d="M2.12974 11.3069C1.78781 11.3066 1.45506 11.4176 1.18183 11.6232C0.90859 11.8287 0.70972 12.1177 0.615292 12.4463C0.520864 12.7749 0.536012 13.1254 0.658447 13.4446C0.780882 13.7639 1.00394 14.0346 1.2939 14.2158L5.52502 18.4469C5.67127 18.5931 5.84487 18.709 6.03591 18.7881C6.22695 18.8671 6.4317 18.9078 6.63845 18.9077C6.8452 18.9076 7.04992 18.8668 7.2409 18.7876C7.43189 18.7084 7.60541 18.5924 7.75155 18.4462C7.8977 18.2999 8.01361 18.1263 8.09266 17.9353C8.17171 17.7442 8.21236 17.5395 8.21229 17.3327C8.21222 17.126 8.17142 16.9213 8.09223 16.7303C8.01304 16.5393 7.89701 16.3658 7.75077 16.2196L5.98622 14.4567H17.8705C18.288 14.4567 18.6884 14.2908 18.9835 13.9956C19.2787 13.7004 19.4446 13.3001 19.4446 12.8826C19.4446 12.4651 19.2787 12.0647 18.9835 11.7695C18.6884 11.4743 18.288 11.3085 17.8705 11.3085L2.12974 11.3069ZM24.1889 8.20915C24.5308 8.20949 24.8635 8.09849 25.1368 7.89292C25.41 7.68735 25.6089 7.39841 25.7033 7.06978C25.7977 6.74114 25.7826 6.3907 25.6601 6.07144C25.5377 5.75218 25.3146 5.48148 25.0247 5.30025L20.7936 1.06914C20.4982 0.773983 20.0977 0.608251 19.6801 0.608399C19.2626 0.608546 18.8622 0.774562 18.567 1.06992C18.2719 1.36528 18.1062 1.7658 18.1063 2.18335C18.1064 2.60091 18.2725 3.0013 18.5678 3.29645L20.3324 5.05942H8.44808C8.03061 5.05942 7.63024 5.22526 7.33504 5.52046C7.03984 5.81565 6.874 6.21603 6.874 6.6335C6.874 7.05097 7.03984 7.45134 7.33504 7.74654C7.63024 8.04174 8.03061 8.20758 8.44808 8.20758L24.1889 8.20915Z" fill="white"/>
</svg>
