<svg width="78" height="57" viewBox="0 0 78 57" fill="none" xmlns="http://www.w3.org/2000/svg">
<path d="M4.82545 32.7643C3.7783 32.7632 2.75927 33.1032 1.92248 33.7327C1.0857 34.3623 0.476658 35.2472 0.187471 36.2536C-0.101716 37.26 -0.0553231 38.3333 0.319634 39.311C0.694591 40.2887 1.37772 41.1178 2.26571 41.6727L15.2235 54.6306C15.6714 55.0781 16.2031 55.4331 16.7881 55.6752C17.3732 55.9173 18.0002 56.0418 18.6334 56.0416C19.2666 56.0413 19.8935 55.9164 20.4784 55.6739C21.0633 55.4314 21.5947 55.076 22.0423 54.6281C22.4898 54.1803 22.8448 53.6486 23.0869 53.0635C23.329 52.4785 23.4535 51.8515 23.4533 51.2183C23.453 50.5851 23.3281 49.9582 23.0856 49.3733C22.8431 48.7884 22.4877 48.257 22.0399 47.8094L16.636 42.4103H53.0316C54.3101 42.4103 55.5362 41.9024 56.4403 40.9984C57.3443 40.0943 57.8522 38.8682 57.8522 37.5897C57.8522 36.3112 57.3443 35.085 56.4403 34.181C55.5362 33.277 54.3101 32.7691 53.0316 32.7691L4.82545 32.7643ZM72.3815 23.2773C73.4287 23.2783 74.4477 22.9384 75.2845 22.3088C76.1213 21.6793 76.7303 20.7944 77.0195 19.788C77.3087 18.7815 77.2623 17.7083 76.8873 16.7306C76.5124 15.7528 75.8292 14.9238 74.9413 14.3688L61.9834 1.41101C61.0789 0.507103 59.8523 -0.000451718 58.5736 3.01663e-07C57.2948 0.000452322 56.0686 0.508875 55.1647 1.41342C54.2608 2.31796 53.7532 3.54453 53.7537 4.82329C53.7541 6.10206 54.2626 7.32827 55.1671 8.23217L60.571 13.6313H24.1754C22.8969 13.6313 21.6707 14.1391 20.7667 15.0432C19.8627 15.9472 19.3548 17.1734 19.3548 18.4519C19.3548 19.7304 19.8627 20.9565 20.7667 21.8606C21.6707 22.7646 22.8969 23.2725 24.1754 23.2725L72.3815 23.2773Z" fill="white"/>
</svg>
