<svg width="70" height="86" viewBox="0 0 70 86" fill="none" xmlns="http://www.w3.org/2000/svg">
<path d="M12.8333 61.25C11.2292 61.25 9.85542 60.6783 8.71209 59.535C7.56875 58.3917 6.99806 57.0189 7 55.4167V14.5833C7 12.9792 7.57167 11.6054 8.71501 10.4621C9.85834 9.31875 11.2311 8.74806 12.8333 8.75H56.5833C58.1875 8.75 59.5613 9.32167 60.7046 10.465C61.8479 11.6083 62.4186 12.9811 62.4167 14.5833V55.4167C62.4167 57.0208 61.845 58.3946 60.7017 59.5379C59.5583 60.6813 58.1856 61.2519 56.5833 61.25H12.8333ZM12.8333 46.6667V55.4167H56.5833V46.6667H12.8333ZM47.8333 40.8333H56.5833V14.5833H47.8333V40.8333ZM12.8333 40.8333H21.5833V14.5833H12.8333V40.8333ZM27.4167 40.8333H42V14.5833H27.4167V40.8333Z" fill="white"/>
<path d="M15.156 81C13.9735 81 12.8257 80.8558 11.7128 80.5673C10.5999 80.2788 9.69559 79.8942 9 79.4135L10.3564 76.4052C11.0103 76.831 11.7684 77.1745 12.631 77.4354C13.4935 77.6964 14.3421 77.8269 15.1768 77.8269C16.7628 77.8269 17.5558 77.4354 17.5558 76.6525C17.5558 76.2404 17.3262 75.9382 16.8671 75.7459C16.4219 75.5398 15.6985 75.3269 14.6969 75.1071C13.5978 74.8736 12.6797 74.6264 11.9423 74.3654C11.205 74.0907 10.572 73.658 10.0434 73.0673C9.51474 72.4766 9.25041 71.6799 9.25041 70.6772C9.25041 69.7981 9.49387 69.0082 9.98078 68.3077C10.4677 67.5934 11.1911 67.0302 12.151 66.6181C13.1248 66.206 14.3143 66 15.7194 66C16.6793 66 17.6253 66.1099 18.5574 66.3297C19.4895 66.5357 20.3103 66.8448 21.0198 67.2569L19.7469 70.2857C18.3557 69.544 17.0062 69.1731 15.6985 69.1731C14.8777 69.1731 14.2795 69.2967 13.9039 69.544C13.5283 69.7775 13.3405 70.0865 13.3405 70.4712C13.3405 70.8558 13.5631 71.1442 14.0082 71.3365C14.4534 71.5288 15.1699 71.728 16.1576 71.9341C17.2706 72.1676 18.1887 72.4217 18.9122 72.6964C19.6495 72.9574 20.2825 73.3832 20.8111 73.9739C21.3537 74.5508 21.625 75.3407 21.625 76.3434C21.625 77.2088 21.3815 77.9918 20.8946 78.6923C20.4077 79.3929 19.6773 79.956 18.7035 80.3819C17.7297 80.794 16.5471 81 15.156 81Z" fill="white"/>
<path d="M23.5335 66.2885H27.6653V80.7115H23.5335V66.2885Z" fill="white"/>
<path d="M37.8877 81C36.3574 81 34.9802 80.6841 33.7559 80.0522C32.5456 79.4066 31.5926 78.5137 30.8971 77.3736C30.2015 76.2335 29.8537 74.9423 29.8537 73.5C29.8537 72.0577 30.2015 70.7665 30.8971 69.6264C31.5926 68.4863 32.5456 67.6003 33.7559 66.9684C34.9802 66.3228 36.3574 66 37.8877 66C39.2233 66 40.4266 66.2335 41.4978 66.7006C42.569 67.1676 43.4594 67.8407 44.1689 68.7198L41.5396 71.0687C40.5936 69.9423 39.4459 69.3791 38.0964 69.3791C37.3034 69.3791 36.5939 69.5508 35.9679 69.8942C35.3558 70.2376 34.8758 70.7253 34.528 71.3571C34.1941 71.9753 34.0272 72.6896 34.0272 73.5C34.0272 74.3104 34.1941 75.0316 34.528 75.6635C34.8758 76.2816 35.3558 76.7624 35.9679 77.1058C36.5939 77.4492 37.3034 77.6209 38.0964 77.6209C39.4459 77.6209 40.5936 77.0577 41.5396 75.9313L44.1689 78.2802C43.4594 79.1593 42.569 79.8324 41.4978 80.2995C40.4266 80.7665 39.2233 81 37.8877 81Z" fill="white"/>
<path d="M55.5535 77.9093H49.3767L48.229 80.7115H44.0137L50.4618 66.2885H54.531L61 80.7115H56.7013L55.5535 77.9093ZM54.3432 74.9011L52.4651 70.2857L50.587 74.9011H54.3432Z" fill="white"/>
</svg>
