<svg width="393" height="123" viewBox="0 0 393 123" fill="none" xmlns="http://www.w3.org/2000/svg">
<path d="M7.83858 88.8542C6.52176 88.8542 5.25559 88.6441 4.04006 88.224C2.84142 87.8039 1.9129 87.2494 1.25449 86.5604L1.98887 85.1237C2.63039 85.7622 3.48295 86.2831 4.54653 86.6864C5.61012 87.0729 6.70746 87.2662 7.83858 87.2662C9.42551 87.2662 10.6157 86.9805 11.4092 86.4092C12.2026 85.821 12.5994 85.0648 12.5994 84.1406C12.5994 83.4348 12.3799 82.8719 11.941 82.4518C11.5189 82.0317 10.9956 81.7124 10.3709 81.494C9.74627 81.2587 8.87684 81.0067 7.76261 80.7378C6.42891 80.4017 5.36532 80.0824 4.57185 79.78C3.77839 79.4607 3.09466 78.9818 2.52066 78.3432C1.96354 77.7047 1.68498 76.8393 1.68498 75.747C1.68498 74.8564 1.92134 74.0498 2.39404 73.3272C2.86674 72.5878 3.59268 71.9997 4.57185 71.5628C5.55103 71.1259 6.76655 70.9074 8.21843 70.9074C9.23137 70.9074 10.219 71.0503 11.1813 71.3359C12.1604 71.6048 13.0046 71.9829 13.7136 72.4702L13.0805 73.9574C12.3377 73.47 11.5442 73.1088 10.7001 72.8735C9.85601 72.6214 9.02878 72.4954 8.21843 72.4954C6.66526 72.4954 5.49194 72.7979 4.69847 73.4028C3.92189 73.991 3.53359 74.7555 3.53359 75.6966C3.53359 76.4023 3.74462 76.9737 4.16668 77.4106C4.60562 77.8307 5.14585 78.1584 5.78738 78.3936C6.44579 78.6121 7.32367 78.8557 8.42102 79.1246C9.72095 79.4439 10.7677 79.7632 11.5611 80.0824C12.3715 80.3849 13.0552 80.8554 13.6123 81.494C14.1694 82.1157 14.448 82.9643 14.448 84.0398C14.448 84.9304 14.2032 85.7454 13.7136 86.4848C13.2409 87.2074 12.5065 87.7871 11.5105 88.224C10.5144 88.6441 9.29045 88.8542 7.83858 88.8542Z" fill="white"/>
<path d="M18.1511 75.4445H19.9491V88.7029H18.1511V75.4445ZM19.0628 72.5458C18.6914 72.5458 18.3791 72.4198 18.1258 72.1677C17.8726 71.9157 17.746 71.6132 17.746 71.2603C17.746 70.9242 17.8726 70.6302 18.1258 70.3781C18.3791 70.126 18.6914 70 19.0628 70C19.4342 70 19.7465 70.126 19.9998 70.3781C20.253 70.6133 20.3796 70.899 20.3796 71.2351C20.3796 71.6048 20.253 71.9157 19.9998 72.1677C19.7465 72.4198 19.4342 72.5458 19.0628 72.5458Z" fill="white"/>
<path d="M28.5225 88.8289C27.442 88.8289 26.4037 88.6777 25.4077 88.3752C24.4285 88.056 23.6604 87.6611 23.1033 87.1906L23.9136 85.779C24.4707 86.2159 25.1713 86.5772 26.0155 86.8629C26.8596 87.1317 27.7374 87.2662 28.6491 87.2662C29.8646 87.2662 30.7594 87.0813 31.3334 86.7116C31.9243 86.3251 32.2197 85.7874 32.2197 85.0984C32.2197 84.6111 32.0593 84.233 31.7385 83.9642C31.4178 83.6785 31.0126 83.4685 30.523 83.334C30.0334 83.1828 29.3835 83.04 28.5731 82.9055C27.4927 82.7039 26.6232 82.5022 25.9648 82.3006C25.3064 82.0821 24.7408 81.7208 24.2681 81.2167C23.8123 80.7126 23.5844 80.0152 23.5844 79.1246C23.5844 78.0155 24.0487 77.1081 24.9772 76.4023C25.9057 75.6966 27.1972 75.3437 28.8517 75.3437C29.7127 75.3437 30.5737 75.4613 31.4347 75.6966C32.2957 75.915 33.0047 76.2091 33.5618 76.5788L32.7768 78.0155C31.6795 77.2594 30.3711 76.8813 28.8517 76.8813C27.7037 76.8813 26.8342 77.0829 26.2434 77.4862C25.6694 77.8895 25.3824 78.4188 25.3824 79.0742C25.3824 79.5783 25.5427 79.9816 25.8635 80.2841C26.2012 80.5866 26.6148 80.8134 27.1044 80.9646C27.5939 81.0991 28.2692 81.2419 29.1302 81.3932C30.1938 81.5948 31.0464 81.7964 31.6879 81.9981C32.3294 82.1997 32.8781 82.5442 33.3339 83.0315C33.7897 83.5189 34.0177 84.191 34.0177 85.048C34.0177 86.2075 33.5281 87.1317 32.5489 87.8207C31.5866 88.4929 30.2445 88.8289 28.5225 88.8289Z" fill="white"/>
<path d="M44.3561 87.8963C44.0185 88.1988 43.5964 88.4341 43.09 88.6021C42.6004 88.7533 42.0855 88.8289 41.5452 88.8289C40.2959 88.8289 39.3337 88.4929 38.6584 87.8207C37.9831 87.1485 37.6454 86.1991 37.6454 84.9724V76.9569H35.265V75.4445H37.6454V72.5458H39.4434V75.4445H43.4951V76.9569H39.4434V84.8716C39.4434 85.6614 39.6375 86.2663 40.0258 86.6864C40.431 87.0897 41.005 87.2914 41.7478 87.2914C42.1192 87.2914 42.4738 87.2326 42.8114 87.1149C43.1659 86.9973 43.4698 86.8293 43.7231 86.6108L44.3561 87.8963Z" fill="white"/>
<path d="M58.7575 82.6283H47.6151C47.7164 84.0062 48.2482 85.1237 49.2105 85.9807C50.1728 86.8209 51.3883 87.241 52.8571 87.241C53.6843 87.241 54.444 87.0981 55.1362 86.8125C55.8284 86.51 56.4277 86.0731 56.9342 85.5017L57.9471 86.6612C57.3562 87.367 56.6134 87.9047 55.7186 88.2744C54.8408 88.6441 53.87 88.8289 52.8064 88.8289C51.439 88.8289 50.2235 88.5433 49.1599 87.9719C48.1132 87.3838 47.2944 86.5772 46.7035 85.5522C46.1126 84.5271 45.8172 83.3676 45.8172 82.0737C45.8172 80.7798 46.0957 79.6203 46.6529 78.5953C47.2269 77.5702 48.0034 76.772 48.9826 76.2007C49.9787 75.6294 51.0929 75.3437 52.3253 75.3437C53.5577 75.3437 54.6635 75.6294 55.6427 76.2007C56.6218 76.772 57.39 77.5702 57.9471 78.5953C58.5042 79.6035 58.7828 80.763 58.7828 82.0737L58.7575 82.6283ZM52.3253 76.8813C51.0423 76.8813 49.9618 77.293 49.0839 78.1164C48.2229 78.923 47.7333 79.9816 47.6151 81.2923H57.0608C56.9426 79.9816 56.4446 78.923 55.5667 78.1164C54.7057 77.293 53.6252 76.8813 52.3253 76.8813Z" fill="white"/>
<path d="M79.0546 75.3437C80.7259 75.3437 82.0343 75.8226 82.9797 76.7804C83.942 77.7383 84.4231 79.1498 84.4231 81.0151V88.7029H82.6252V81.1915C82.6252 79.8136 82.2875 78.7633 81.6122 78.0407C80.9538 77.3182 80.0169 76.9569 78.8013 76.9569C77.417 76.9569 76.3281 77.3854 75.5346 78.2424C74.7411 79.0826 74.3444 80.2505 74.3444 81.746V88.7029H72.5464V81.1915C72.5464 79.8136 72.2088 78.7633 71.5335 78.0407C70.8751 77.3182 69.9297 76.9569 68.6973 76.9569C67.3298 76.9569 66.2409 77.3854 65.4306 78.2424C64.6371 79.0826 64.2404 80.2505 64.2404 81.746V88.7029H62.4424V75.4445H64.1644V77.8643C64.6371 77.0577 65.2955 76.436 66.1396 75.9991C66.9837 75.5621 67.9545 75.3437 69.0518 75.3437C70.1661 75.3437 71.1283 75.5789 71.9387 76.0495C72.7659 76.52 73.3821 77.2173 73.7873 78.1416C74.2769 77.2678 74.9775 76.5872 75.8892 76.0999C76.8177 75.5958 77.8728 75.3437 79.0546 75.3437Z" fill="white"/>
<path d="M93.9586 75.3437C95.6975 75.3437 97.0312 75.7806 97.9597 76.6544C98.8882 77.5114 99.3525 78.7885 99.3525 80.4857V88.7029H97.6305V86.636C97.2253 87.325 96.626 87.8627 95.8325 88.2492C95.0559 88.6357 94.1274 88.8289 93.047 88.8289C91.5613 88.8289 90.3796 88.4761 89.5017 87.7703C88.6238 87.0645 88.1849 86.1319 88.1849 84.9724C88.1849 83.8465 88.59 82.9391 89.4004 82.2502C90.2276 81.5612 91.536 81.2167 93.3255 81.2167H97.5545V80.4101C97.5545 79.2674 97.2338 78.402 96.5922 77.8139C95.9507 77.2089 95.0137 76.9065 93.7813 76.9065C92.9372 76.9065 92.1269 77.0493 91.3503 77.335C90.5737 77.6038 89.9068 77.9819 89.3497 78.4692L88.5394 77.1333C89.2147 76.562 90.025 76.1251 90.9704 75.8226C91.9158 75.5033 92.9119 75.3437 93.9586 75.3437ZM93.3255 87.4174C94.3384 87.4174 95.2079 87.1906 95.9338 86.7368C96.6598 86.2663 97.2 85.5942 97.5545 84.7204V82.5526H93.3762C91.097 82.5526 89.9575 83.3424 89.9575 84.922C89.9575 85.695 90.2529 86.3083 90.8438 86.762C91.4347 87.199 92.2619 87.4174 93.3255 87.4174Z" fill="white"/>
<path d="M123.019 70V88.7029H121.297V86.0815C120.757 86.9721 120.039 87.6527 119.144 88.1232C118.266 88.5937 117.27 88.8289 116.156 88.8289C114.907 88.8289 113.776 88.5433 112.763 87.9719C111.75 87.4006 110.956 86.6024 110.382 85.5774C109.808 84.5523 109.521 83.3844 109.521 82.0737C109.521 80.763 109.808 79.5951 110.382 78.5701C110.956 77.545 111.75 76.7552 112.763 76.2007C113.776 75.6294 114.907 75.3437 116.156 75.3437C117.237 75.3437 118.207 75.5705 119.068 76.0243C119.946 76.4612 120.664 77.1081 121.221 77.9651V70H123.019ZM116.308 87.241C117.237 87.241 118.072 87.0309 118.815 86.6108C119.575 86.1739 120.166 85.5606 120.588 84.7708C121.027 83.981 121.246 83.082 121.246 82.0737C121.246 81.0655 121.027 80.1665 120.588 79.3767C120.166 78.5869 119.575 77.9819 118.815 77.5618C118.072 77.1249 117.237 76.9065 116.308 76.9065C115.363 76.9065 114.51 77.1249 113.75 77.5618C113.008 77.9819 112.417 78.5869 111.978 79.3767C111.556 80.1665 111.345 81.0655 111.345 82.0737C111.345 83.082 111.556 83.981 111.978 84.7708C112.417 85.5606 113.008 86.1739 113.75 86.6108C114.51 87.0309 115.363 87.241 116.308 87.241Z" fill="white"/>
<path d="M139.624 82.6283H128.482C128.583 84.0062 129.115 85.1237 130.077 85.9807C131.04 86.8209 132.255 87.241 133.724 87.241C134.551 87.241 135.311 87.0981 136.003 86.8125C136.695 86.51 137.294 86.0731 137.801 85.5017L138.814 86.6612C138.223 87.367 137.48 87.9047 136.585 88.2744C135.708 88.6441 134.737 88.8289 133.673 88.8289C132.306 88.8289 131.09 88.5433 130.027 87.9719C128.98 87.3838 128.161 86.5772 127.57 85.5522C126.979 84.5271 126.684 83.3676 126.684 82.0737C126.684 80.7798 126.963 79.6203 127.52 78.5953C128.094 77.5702 128.87 76.772 129.849 76.2007C130.845 75.6294 131.96 75.3437 133.192 75.3437C134.424 75.3437 135.53 75.6294 136.509 76.2007C137.489 76.772 138.257 77.5702 138.814 78.5953C139.371 79.6035 139.65 80.763 139.65 82.0737L139.624 82.6283ZM133.192 76.8813C131.909 76.8813 130.829 77.293 129.951 78.1164C129.09 78.923 128.6 79.9816 128.482 81.2923H137.928C137.809 79.9816 137.311 78.923 136.434 78.1164C135.572 77.293 134.492 76.8813 133.192 76.8813Z" fill="white"/>
<path d="M158.015 88.8542C156.259 88.8542 154.672 88.4677 153.254 87.6947C151.853 86.9217 150.747 85.8546 149.937 84.4935C149.143 83.1156 148.747 81.578 148.747 79.8808C148.747 78.1836 149.143 76.6544 149.937 75.2933C150.747 73.9153 151.861 72.8399 153.28 72.0669C154.698 71.2939 156.285 70.9074 158.04 70.9074C159.357 70.9074 160.573 71.1259 161.687 71.5628C162.801 71.9997 163.747 72.6382 164.523 73.4784L163.333 74.6631C161.949 73.2684 160.201 72.571 158.091 72.571C156.69 72.571 155.415 72.8903 154.267 73.5289C153.119 74.1674 152.216 75.0412 151.558 76.1503C150.916 77.2594 150.595 78.5029 150.595 79.8808C150.595 81.2587 150.916 82.5022 151.558 83.6113C152.216 84.7204 153.119 85.5942 154.267 86.2327C155.415 86.8713 156.69 87.1906 158.091 87.1906C160.218 87.1906 161.965 86.4848 163.333 85.0732L164.523 86.2579C163.747 87.0981 162.793 87.7451 161.662 88.1988C160.547 88.6357 159.332 88.8542 158.015 88.8542Z" fill="white"/>
<path d="M172.989 88.8289C171.706 88.8289 170.55 88.5433 169.52 87.9719C168.49 87.3838 167.68 86.5772 167.089 85.5522C166.498 84.5271 166.202 83.3676 166.202 82.0737C166.202 80.7798 166.498 79.6203 167.089 78.5953C167.68 77.5702 168.49 76.772 169.52 76.2007C170.55 75.6294 171.706 75.3437 172.989 75.3437C174.272 75.3437 175.429 75.6294 176.458 76.2007C177.488 76.772 178.29 77.5702 178.864 78.5953C179.455 79.6203 179.75 80.7798 179.75 82.0737C179.75 83.3676 179.455 84.5271 178.864 85.5522C178.29 86.5772 177.488 87.3838 176.458 87.9719C175.429 88.5433 174.272 88.8289 172.989 88.8289ZM172.989 87.241C173.934 87.241 174.779 87.0309 175.521 86.6108C176.281 86.1739 176.872 85.5606 177.294 84.7708C177.716 83.981 177.927 83.082 177.927 82.0737C177.927 81.0655 177.716 80.1665 177.294 79.3767C176.872 78.5869 176.281 77.9819 175.521 77.5618C174.779 77.1249 173.934 76.9065 172.989 76.9065C172.044 76.9065 171.191 77.1249 170.431 77.5618C169.689 77.9819 169.098 78.5869 168.659 79.3767C168.237 80.1665 168.026 81.0655 168.026 82.0737C168.026 83.082 168.237 83.981 168.659 84.7708C169.098 85.5606 169.689 86.1739 170.431 86.6108C171.191 87.0309 172.044 87.241 172.989 87.241Z" fill="white"/>
<path d="M190.208 75.3437C191.879 75.3437 193.204 75.831 194.184 76.8056C195.18 77.7635 195.678 79.1666 195.678 81.0151V88.7029H193.88V81.1915C193.88 79.8136 193.534 78.7633 192.841 78.0407C192.149 77.3182 191.162 76.9569 189.879 76.9569C188.444 76.9569 187.304 77.3854 186.46 78.2424C185.633 79.0826 185.219 80.2505 185.219 81.746V88.7029H183.421V75.4445H185.143V77.8895C185.633 77.0829 186.308 76.4612 187.169 76.0243C188.047 75.5705 189.06 75.3437 190.208 75.3437Z" fill="white"/>
<path d="M207.574 87.8963C207.236 88.1988 206.814 88.4341 206.307 88.6021C205.818 88.7533 205.303 88.8289 204.763 88.8289C203.513 88.8289 202.551 88.4929 201.876 87.8207C201.2 87.1485 200.863 86.1991 200.863 84.9724V76.9569H198.482V75.4445H200.863V72.5458H202.661V75.4445H206.713V76.9569H202.661V84.8716C202.661 85.6614 202.855 86.2663 203.243 86.6864C203.648 87.0897 204.222 87.2914 204.965 87.2914C205.337 87.2914 205.691 87.2326 206.029 87.1149C206.383 86.9973 206.687 86.8293 206.94 86.6108L207.574 87.8963Z" fill="white"/>
<path d="M212.569 78.0407C212.991 77.1501 213.615 76.478 214.443 76.0243C215.287 75.5705 216.325 75.3437 217.557 75.3437V77.0829L217.127 77.0577C215.726 77.0577 214.628 77.4862 213.835 78.3432C213.041 79.2002 212.645 80.4017 212.645 81.9477V88.7029H210.847V75.4445H212.569V78.0407Z" fill="white"/>
<path d="M226.134 88.8289C224.851 88.8289 223.694 88.5433 222.664 87.9719C221.634 87.3838 220.824 86.5772 220.233 85.5522C219.642 84.5271 219.347 83.3676 219.347 82.0737C219.347 80.7798 219.642 79.6203 220.233 78.5953C220.824 77.5702 221.634 76.772 222.664 76.2007C223.694 75.6294 224.851 75.3437 226.134 75.3437C227.417 75.3437 228.573 75.6294 229.603 76.2007C230.633 76.772 231.435 77.5702 232.009 78.5953C232.6 79.6203 232.895 80.7798 232.895 82.0737C232.895 83.3676 232.6 84.5271 232.009 85.5522C231.435 86.5772 230.633 87.3838 229.603 87.9719C228.573 88.5433 227.417 88.8289 226.134 88.8289ZM226.134 87.241C227.079 87.241 227.923 87.0309 228.666 86.6108C229.426 86.1739 230.017 85.5606 230.439 84.7708C230.861 83.981 231.072 83.082 231.072 82.0737C231.072 81.0655 230.861 80.1665 230.439 79.3767C230.017 78.5869 229.426 77.9819 228.666 77.5618C227.923 77.1249 227.079 76.9065 226.134 76.9065C225.188 76.9065 224.336 77.1249 223.576 77.5618C222.833 77.9819 222.242 78.5869 221.803 79.3767C221.381 80.1665 221.17 81.0655 221.17 82.0737C221.17 83.082 221.381 83.981 221.803 84.7708C222.242 85.5606 222.833 86.1739 223.576 86.6108C224.336 87.0309 225.188 87.241 226.134 87.241Z" fill="white"/>
<path d="M236.566 70H238.364V88.7029H236.566V70Z" fill="white"/>
<path d="M261.491 83.9894H251.615L249.488 88.7029H247.538L255.641 71.0587H257.49L265.593 88.7029H263.618L261.491 83.9894ZM260.807 82.477L256.553 72.9995L252.298 82.477H260.807Z" fill="white"/>
<path d="M269.868 78.0407C270.29 77.1501 270.914 76.478 271.742 76.0243C272.586 75.5705 273.624 75.3437 274.856 75.3437V77.0829L274.426 77.0577C273.025 77.0577 271.927 77.4862 271.134 78.3432C270.34 79.2002 269.944 80.4017 269.944 81.9477V88.7029H268.146V75.4445H269.868V78.0407Z" fill="white"/>
<path d="M283.509 88.8289C282.192 88.8289 281.01 88.5433 279.963 87.9719C278.934 87.4006 278.123 86.6024 277.532 85.5774C276.942 84.5355 276.646 83.3676 276.646 82.0737C276.646 80.7798 276.942 79.6203 277.532 78.5953C278.123 77.5702 278.934 76.772 279.963 76.2007C281.01 75.6294 282.192 75.3437 283.509 75.3437C284.657 75.3437 285.678 75.5705 286.573 76.0243C287.485 76.4612 288.202 77.1081 288.725 77.9651L287.383 78.8725C286.944 78.2172 286.387 77.7299 285.712 77.4106C285.037 77.0745 284.302 76.9065 283.509 76.9065C282.546 76.9065 281.677 77.1249 280.9 77.5618C280.141 77.9819 279.541 78.5869 279.102 79.3767C278.68 80.1665 278.469 81.0655 278.469 82.0737C278.469 83.0988 278.68 84.0062 279.102 84.796C279.541 85.569 280.141 86.1739 280.9 86.6108C281.677 87.0309 282.546 87.241 283.509 87.241C284.302 87.241 285.037 87.0813 285.712 86.762C286.387 86.4428 286.944 85.9555 287.383 85.3001L288.725 86.2075C288.202 87.0645 287.485 87.7199 286.573 88.1736C285.661 88.6105 284.64 88.8289 283.509 88.8289Z" fill="white"/>
<path d="M298.846 75.3437C300.518 75.3437 301.843 75.831 302.822 76.8056C303.818 77.7635 304.316 79.1666 304.316 81.0151V88.7029H302.518V81.1915C302.518 79.8136 302.172 78.7633 301.48 78.0407C300.788 77.3182 299.8 76.9569 298.517 76.9569C297.082 76.9569 295.943 77.3854 295.098 78.2424C294.271 79.0826 293.858 80.2505 293.858 81.746V88.7029H292.06V70H293.858V77.7635C294.347 76.9905 295.022 76.3939 295.883 75.9738C296.744 75.5537 297.732 75.3437 298.846 75.3437Z" fill="white"/>
<path d="M309.197 75.4445H310.995V88.7029H309.197V75.4445ZM310.109 72.5458C309.738 72.5458 309.425 72.4198 309.172 72.1677C308.919 71.9157 308.792 71.6132 308.792 71.2603C308.792 70.9242 308.919 70.6302 309.172 70.3781C309.425 70.126 309.738 70 310.109 70C310.48 70 310.793 70.126 311.046 70.3781C311.299 70.6133 311.426 70.899 311.426 71.2351C311.426 71.6048 311.299 71.9157 311.046 72.1677C310.793 72.4198 310.48 72.5458 310.109 72.5458Z" fill="white"/>
<path d="M327.191 75.4445L321.265 88.7029H319.417L313.516 75.4445H315.39L320.379 86.7368L325.418 75.4445H327.191Z" fill="white"/>
<path d="M329.723 75.4445H331.521V88.7029H329.723V75.4445ZM332.458 70.2521H334.864L330.761 73.3776H328.989L332.458 70.2521Z" fill="white"/>
<path d="M340.095 88.8289C339.014 88.8289 337.976 88.6777 336.98 88.3752C336.001 88.056 335.232 87.6611 334.675 87.1906L335.486 85.779C336.043 86.2159 336.743 86.5772 337.588 86.8629C338.432 87.1317 339.31 87.2662 340.221 87.2662C341.437 87.2662 342.331 87.0813 342.905 86.7116C343.496 86.3251 343.792 85.7874 343.792 85.0984C343.792 84.6111 343.631 84.233 343.311 83.9642C342.99 83.6785 342.585 83.4685 342.095 83.334C341.606 83.1828 340.956 83.04 340.145 82.9055C339.065 82.7039 338.195 82.5022 337.537 82.3006C336.878 82.0821 336.313 81.7208 335.84 81.2167C335.384 80.7126 335.156 80.0152 335.156 79.1246C335.156 78.0155 335.621 77.1081 336.549 76.4023C337.478 75.6966 338.769 75.3437 340.424 75.3437C341.285 75.3437 342.146 75.4613 343.007 75.6966C343.868 75.915 344.577 76.2091 345.134 76.5788L344.349 78.0155C343.252 77.2594 341.943 76.8813 340.424 76.8813C339.276 76.8813 338.406 77.0829 337.815 77.4862C337.241 77.8895 336.954 78.4188 336.954 79.0742C336.954 79.5783 337.115 79.9816 337.436 80.2841C337.773 80.5866 338.187 80.8134 338.676 80.9646C339.166 81.0991 339.841 81.2419 340.702 81.3932C341.766 81.5948 342.618 81.7964 343.26 81.9981C343.901 82.1997 344.45 82.5442 344.906 83.0315C345.362 83.5189 345.59 84.191 345.59 85.048C345.59 86.2075 345.1 87.1317 344.121 87.8207C343.159 88.4929 341.817 88.8289 340.095 88.8289Z" fill="white"/>
<path d="M355.928 87.8963C355.591 88.1988 355.169 88.4341 354.662 88.6021C354.172 88.7533 353.658 88.8289 353.117 88.8289C351.868 88.8289 350.906 88.4929 350.23 87.8207C349.555 87.1485 349.218 86.1991 349.218 84.9724V76.9569H346.837V75.4445H349.218V72.5458H351.015V75.4445H355.067V76.9569H351.015V84.8716C351.015 85.6614 351.21 86.2663 351.598 86.6864C352.003 87.0897 352.577 87.2914 353.32 87.2914C353.691 87.2914 354.046 87.2326 354.383 87.1149C354.738 86.9973 355.042 86.8293 355.295 86.6108L355.928 87.8963Z" fill="white"/>
<path d="M359.201 75.4445H360.999V88.7029H359.201V75.4445ZM360.113 72.5458C359.741 72.5458 359.429 72.4198 359.176 72.1677C358.923 71.9157 358.796 71.6132 358.796 71.2603C358.796 70.9242 358.923 70.6302 359.176 70.3781C359.429 70.126 359.741 70 360.113 70C360.484 70 360.797 70.126 361.05 70.3781C361.303 70.6133 361.43 70.899 361.43 71.2351C361.43 71.6048 361.303 71.9157 361.05 72.1677C360.797 72.4198 360.484 72.5458 360.113 72.5458Z" fill="white"/>
<path d="M371.522 88.8289C370.206 88.8289 369.024 88.5433 367.977 87.9719C366.947 87.4006 366.137 86.6024 365.546 85.5774C364.955 84.5355 364.66 83.3676 364.66 82.0737C364.66 80.7798 364.955 79.6203 365.546 78.5953C366.137 77.5702 366.947 76.772 367.977 76.2007C369.024 75.6294 370.206 75.3437 371.522 75.3437C372.671 75.3437 373.692 75.5705 374.587 76.0243C375.498 76.4612 376.216 77.1081 376.739 77.9651L375.397 78.8725C374.958 78.2172 374.401 77.7299 373.726 77.4106C373.05 77.0745 372.316 76.9065 371.522 76.9065C370.56 76.9065 369.691 77.1249 368.914 77.5618C368.154 77.9819 367.555 78.5869 367.116 79.3767C366.694 80.1665 366.483 81.0655 366.483 82.0737C366.483 83.0988 366.694 84.0062 367.116 84.796C367.555 85.569 368.154 86.1739 368.914 86.6108C369.691 87.0309 370.56 87.241 371.522 87.241C372.316 87.241 373.05 87.0813 373.726 86.762C374.401 86.4428 374.958 85.9555 375.397 85.3001L376.739 86.2075C376.216 87.0645 375.498 87.7199 374.587 88.1736C373.675 88.6105 372.654 88.8289 371.522 88.8289Z" fill="white"/>
<path d="M385.493 88.8289C384.21 88.8289 383.054 88.5433 382.024 87.9719C380.994 87.3838 380.184 86.5772 379.593 85.5522C379.002 84.5271 378.706 83.3676 378.706 82.0737C378.706 80.7798 379.002 79.6203 379.593 78.5953C380.184 77.5702 380.994 76.772 382.024 76.2007C383.054 75.6294 384.21 75.3437 385.493 75.3437C386.776 75.3437 387.933 75.6294 388.962 76.2007C389.992 76.772 390.794 77.5702 391.368 78.5953C391.959 79.6203 392.254 80.7798 392.254 82.0737C392.254 83.3676 391.959 84.5271 391.368 85.5522C390.794 86.5772 389.992 87.3838 388.962 87.9719C387.933 88.5433 386.776 88.8289 385.493 88.8289ZM385.493 87.241C386.439 87.241 387.283 87.0309 388.025 86.6108C388.785 86.1739 389.376 85.5606 389.798 84.7708C390.22 83.981 390.431 83.082 390.431 82.0737C390.431 81.0655 390.22 80.1665 389.798 79.3767C389.376 78.5869 388.785 77.9819 388.025 77.5618C387.283 77.1249 386.439 76.9065 385.493 76.9065C384.548 76.9065 383.695 77.1249 382.935 77.5618C382.193 77.9819 381.602 78.5869 381.163 79.3767C380.741 80.1665 380.53 81.0655 380.53 82.0737C380.53 83.082 380.741 83.981 381.163 84.7708C381.602 85.5606 382.193 86.1739 382.935 86.6108C383.695 87.0309 384.548 87.241 385.493 87.241Z" fill="white"/>
<path d="M9.43395 104.751C10.6832 104.751 11.8144 105.036 12.8273 105.608C13.8402 106.162 14.6337 106.952 15.2077 107.977C15.7817 109.002 16.0687 110.17 16.0687 111.481C16.0687 112.808 15.7817 113.985 15.2077 115.01C14.6337 116.035 13.8402 116.833 12.8273 117.404C11.8312 117.959 10.7001 118.236 9.43395 118.236C8.35349 118.236 7.37431 118.018 6.49643 117.581C5.63544 117.127 4.92638 116.472 4.36927 115.615V123H2.5713V104.852H4.2933V107.473C4.83353 106.599 5.54259 105.927 6.42046 105.457C7.31523 104.986 8.31972 104.751 9.43395 104.751ZM9.30733 116.648C10.2359 116.648 11.08 116.438 11.8397 116.018C12.5994 115.581 13.1903 114.968 13.6123 114.178C14.0513 113.388 14.2707 112.489 14.2707 111.481C14.2707 110.473 14.0513 109.582 13.6123 108.809C13.1903 108.019 12.5994 107.406 11.8397 106.969C11.08 106.532 10.2359 106.314 9.30733 106.314C8.36193 106.314 7.50937 106.532 6.74967 106.969C6.00685 107.406 5.41597 108.019 4.97703 108.809C4.55497 109.582 4.34394 110.473 4.34394 111.481C4.34394 112.489 4.55497 113.388 4.97703 114.178C5.41597 114.968 6.00685 115.581 6.74967 116.018C7.50937 116.438 8.36193 116.648 9.30733 116.648Z" fill="white"/>
<path d="M24.3192 104.751C26.0581 104.751 27.3918 105.188 28.3203 106.062C29.2488 106.919 29.7131 108.196 29.7131 109.893V118.11H27.9911V116.043C27.5859 116.732 26.9866 117.27 26.1931 117.656C25.4165 118.043 24.488 118.236 23.4075 118.236C21.9219 118.236 20.7401 117.883 19.8623 117.177C18.9844 116.472 18.5454 115.539 18.5454 114.38C18.5454 113.254 18.9506 112.346 19.761 111.657C20.5882 110.968 21.8966 110.624 23.6861 110.624H27.9151V109.817C27.9151 108.675 27.5943 107.809 26.9528 107.221C26.3113 106.616 25.3743 106.314 24.1419 106.314C23.2978 106.314 22.4875 106.456 21.7109 106.742C20.9343 107.011 20.2674 107.389 19.7103 107.876L18.9 106.54C19.5753 105.969 20.3856 105.532 21.331 105.23C22.2764 104.91 23.2725 104.751 24.3192 104.751ZM23.6861 116.825C24.699 116.825 25.5685 116.598 26.2944 116.144C27.0203 115.673 27.5606 115.001 27.9151 114.127V111.96H23.7367C21.4576 111.96 20.3181 112.75 20.3181 114.329C20.3181 115.102 20.6135 115.715 21.2044 116.169C21.7953 116.606 22.6225 116.825 23.6861 116.825Z" fill="white"/>
<path d="M36.3185 107.448C36.7406 106.557 37.3652 105.885 38.1925 105.431C39.0366 104.978 40.0748 104.751 41.3072 104.751V106.49L40.8767 106.465C39.4755 106.465 38.3782 106.893 37.5847 107.75C36.7912 108.607 36.3945 109.809 36.3945 111.355V118.11H34.5965V104.852H36.3185V107.448Z" fill="white"/>
<path d="M49.1975 104.751C50.9363 104.751 52.27 105.188 53.1986 106.062C54.1271 106.919 54.5914 108.196 54.5914 109.893V118.11H52.8694V116.043C52.4642 116.732 51.8649 117.27 51.0714 117.656C50.2948 118.043 49.3663 118.236 48.2858 118.236C46.8002 118.236 45.6184 117.883 44.7405 117.177C43.8627 116.472 43.4237 115.539 43.4237 114.38C43.4237 113.254 43.8289 112.346 44.6393 111.657C45.4665 110.968 46.7749 110.624 48.5644 110.624H52.7934V109.817C52.7934 108.675 52.4726 107.809 51.8311 107.221C51.1896 106.616 50.2526 106.314 49.0202 106.314C48.1761 106.314 47.3657 106.456 46.5891 106.742C45.8126 107.011 45.1457 107.389 44.5886 107.876L43.7783 106.54C44.4535 105.969 45.2639 105.532 46.2093 105.23C47.1547 104.91 48.1508 104.751 49.1975 104.751ZM48.5644 116.825C49.5773 116.825 50.4468 116.598 51.1727 116.144C51.8986 115.673 52.4389 115.001 52.7934 114.127V111.96H48.615C46.3359 111.96 45.1964 112.75 45.1964 114.329C45.1964 115.102 45.4918 115.715 46.0827 116.169C46.6736 116.606 47.5008 116.825 48.5644 116.825Z" fill="white"/>
<path d="M77.7006 112.035H66.5583C66.6595 113.413 67.1913 114.531 68.1536 115.388C69.1159 116.228 70.3314 116.648 71.8002 116.648C72.6274 116.648 73.3871 116.505 74.0793 116.22C74.7715 115.917 75.3708 115.48 75.8773 114.909L76.8902 116.068C76.2993 116.774 75.5565 117.312 74.6618 117.682C73.7839 118.051 72.8131 118.236 71.7496 118.236C70.3821 118.236 69.1666 117.95 68.103 117.379C67.0563 116.791 66.2375 115.984 65.6466 114.959C65.0557 113.934 64.7603 112.775 64.7603 111.481C64.7603 110.187 65.0388 109.027 65.596 108.002C66.17 106.977 66.9465 106.179 67.9257 105.608C68.9218 105.036 70.036 104.751 71.2684 104.751C72.5008 104.751 73.6066 105.036 74.5858 105.608C75.5649 106.179 76.3331 106.977 76.8902 108.002C77.4473 109.011 77.7259 110.17 77.7259 111.481L77.7006 112.035ZM71.2684 106.288C69.9854 106.288 68.9049 106.7 68.027 107.523C67.166 108.33 66.6764 109.389 66.5583 110.699H76.0039C75.8857 109.389 75.3877 108.33 74.5098 107.523C73.6488 106.7 72.5683 106.288 71.2684 106.288Z" fill="white"/>
<path d="M81.3855 99.4071H83.1835V118.11H81.3855V99.4071Z" fill="white"/>
<path d="M97.0676 102.079V109.011H106.235V110.624H97.0676V118.11H95.1937V100.466H107.349V102.079H97.0676Z" fill="white"/>
<path d="M115.838 118.236C114.555 118.236 113.399 117.95 112.369 117.379C111.339 116.791 110.529 115.984 109.938 114.959C109.347 113.934 109.052 112.775 109.052 111.481C109.052 110.187 109.347 109.027 109.938 108.002C110.529 106.977 111.339 106.179 112.369 105.608C113.399 105.036 114.555 104.751 115.838 104.751C117.121 104.751 118.278 105.036 119.308 105.608C120.337 106.179 121.139 106.977 121.713 108.002C122.304 109.027 122.6 110.187 122.6 111.481C122.6 112.775 122.304 113.934 121.713 114.959C121.139 115.984 120.337 116.791 119.308 117.379C118.278 117.95 117.121 118.236 115.838 118.236ZM115.838 116.648C116.784 116.648 117.628 116.438 118.371 116.018C119.13 115.581 119.721 114.968 120.143 114.178C120.565 113.388 120.776 112.489 120.776 111.481C120.776 110.473 120.565 109.574 120.143 108.784C119.721 107.994 119.13 107.389 118.371 106.969C117.628 106.532 116.784 106.314 115.838 106.314C114.893 106.314 114.04 106.532 113.281 106.969C112.538 107.389 111.947 107.994 111.508 108.784C111.086 109.574 110.875 110.473 110.875 111.481C110.875 112.489 111.086 113.388 111.508 114.178C111.947 114.968 112.538 115.581 113.281 116.018C114.04 116.438 114.893 116.648 115.838 116.648Z" fill="white"/>
<path d="M133.057 104.751C134.728 104.751 136.054 105.238 137.033 106.213C138.029 107.171 138.527 108.574 138.527 110.422V118.11H136.729V110.599C136.729 109.221 136.383 108.17 135.691 107.448C134.998 106.725 134.011 106.364 132.728 106.364C131.293 106.364 130.153 106.792 129.309 107.649C128.482 108.49 128.068 109.658 128.068 111.153V118.11H126.27V104.852H127.992V107.297C128.482 106.49 129.157 105.868 130.018 105.431C130.896 104.978 131.909 104.751 133.057 104.751Z" fill="white"/>
<path d="M155.613 99.4071V118.11H153.891V115.489C153.351 116.379 152.633 117.06 151.738 117.53C150.86 118.001 149.864 118.236 148.75 118.236C147.501 118.236 146.37 117.95 145.357 117.379C144.344 116.808 143.55 116.01 142.976 114.984C142.402 113.959 142.115 112.792 142.115 111.481C142.115 110.17 142.402 109.002 142.976 107.977C143.55 106.952 144.344 106.162 145.357 105.608C146.37 105.036 147.501 104.751 148.75 104.751C149.831 104.751 150.801 104.978 151.662 105.431C152.54 105.868 153.258 106.515 153.815 107.372V99.4071H155.613ZM148.902 116.648C149.831 116.648 150.666 116.438 151.409 116.018C152.169 115.581 152.76 114.968 153.182 114.178C153.621 113.388 153.84 112.489 153.84 111.481C153.84 110.473 153.621 109.574 153.182 108.784C152.76 107.994 152.169 107.389 151.409 106.969C150.666 106.532 149.831 106.314 148.902 106.314C147.957 106.314 147.104 106.532 146.344 106.969C145.602 107.389 145.011 107.994 144.572 108.784C144.15 109.574 143.939 110.473 143.939 111.481C143.939 112.489 144.15 113.388 144.572 114.178C145.011 114.968 145.602 115.581 146.344 116.018C147.104 116.438 147.957 116.648 148.902 116.648Z" fill="white"/>
<path d="M166.065 118.236C164.782 118.236 163.625 117.95 162.595 117.379C161.566 116.791 160.755 115.984 160.164 114.959C159.573 113.934 159.278 112.775 159.278 111.481C159.278 110.187 159.573 109.027 160.164 108.002C160.755 106.977 161.566 106.179 162.595 105.608C163.625 105.036 164.782 104.751 166.065 104.751C167.348 104.751 168.504 105.036 169.534 105.608C170.564 106.179 171.366 106.977 171.94 108.002C172.531 109.027 172.826 110.187 172.826 111.481C172.826 112.775 172.531 113.934 171.94 114.959C171.366 115.984 170.564 116.791 169.534 117.379C168.504 117.95 167.348 118.236 166.065 118.236ZM166.065 116.648C167.01 116.648 167.854 116.438 168.597 116.018C169.357 115.581 169.948 114.968 170.37 114.178C170.792 113.388 171.003 112.489 171.003 111.481C171.003 110.473 170.792 109.574 170.37 108.784C169.948 107.994 169.357 107.389 168.597 106.969C167.854 106.532 167.01 106.314 166.065 106.314C165.119 106.314 164.267 106.532 163.507 106.969C162.764 107.389 162.173 107.994 161.734 108.784C161.312 109.574 161.101 110.473 161.101 111.481C161.101 112.489 161.312 113.388 161.734 114.178C162.173 114.968 162.764 115.581 163.507 116.018C164.267 116.438 165.119 116.648 166.065 116.648Z" fill="white"/>
<path d="M194.672 109.011C195.837 109.263 196.731 109.767 197.356 110.523C197.998 111.262 198.318 112.22 198.318 113.396C198.318 114.909 197.753 116.077 196.622 116.9C195.507 117.707 193.853 118.11 191.658 118.11H183.504V100.466H191.152C193.127 100.466 194.655 100.861 195.735 101.65C196.833 102.44 197.381 103.558 197.381 105.003C197.381 105.977 197.137 106.809 196.647 107.498C196.174 108.17 195.516 108.675 194.672 109.011ZM185.378 102.003V108.406H191.025C192.46 108.406 193.566 108.137 194.343 107.599C195.119 107.045 195.507 106.246 195.507 105.205C195.507 104.163 195.119 103.373 194.343 102.835C193.566 102.281 192.46 102.003 191.025 102.003H185.378ZM191.633 116.572C193.22 116.572 194.419 116.304 195.229 115.766C196.039 115.228 196.444 114.388 196.444 113.245C196.444 111.044 194.841 109.943 191.633 109.943H185.378V116.572H191.633Z" fill="white"/>
<path d="M213.814 112.035H202.672C202.773 113.413 203.305 114.531 204.267 115.388C205.229 116.228 206.445 116.648 207.914 116.648C208.741 116.648 209.501 116.505 210.193 116.22C210.885 115.917 211.484 115.48 211.991 114.909L213.004 116.068C212.413 116.774 211.67 117.312 210.775 117.682C209.897 118.051 208.927 118.236 207.863 118.236C206.495 118.236 205.28 117.95 204.216 117.379C203.17 116.791 202.351 115.984 201.76 114.959C201.169 113.934 200.874 112.775 200.874 111.481C200.874 110.187 201.152 109.027 201.709 108.002C202.283 106.977 203.06 106.179 204.039 105.608C205.035 105.036 206.149 104.751 207.382 104.751C208.614 104.751 209.72 105.036 210.699 105.608C211.678 106.179 212.446 106.977 213.004 108.002C213.561 109.011 213.839 110.17 213.839 111.481L213.814 112.035ZM207.382 106.288C206.099 106.288 205.018 106.7 204.14 107.523C203.279 108.33 202.79 109.389 202.672 110.699H212.117C211.999 109.389 211.501 108.33 210.623 107.523C209.762 106.7 208.682 106.288 207.382 106.288Z" fill="white"/>
<path d="M223.019 118.236C221.703 118.236 220.521 117.95 219.474 117.379C218.444 116.808 217.634 116.01 217.043 114.984C216.452 113.943 216.157 112.775 216.157 111.481C216.157 110.187 216.452 109.027 217.043 108.002C217.634 106.977 218.444 106.179 219.474 105.608C220.521 105.036 221.703 104.751 223.019 104.751C224.167 104.751 225.189 104.978 226.084 105.431C226.995 105.868 227.713 106.515 228.236 107.372L226.894 108.28C226.455 107.624 225.898 107.137 225.223 106.818C224.547 106.482 223.813 106.314 223.019 106.314C222.057 106.314 221.188 106.532 220.411 106.969C219.651 107.389 219.052 107.994 218.613 108.784C218.191 109.574 217.98 110.473 217.98 111.481C217.98 112.506 218.191 113.413 218.613 114.203C219.052 114.976 219.651 115.581 220.411 116.018C221.188 116.438 222.057 116.648 223.019 116.648C223.813 116.648 224.547 116.488 225.223 116.169C225.898 115.85 226.455 115.363 226.894 114.707L228.236 115.615C227.713 116.472 226.995 117.127 226.084 117.581C225.172 118.018 224.151 118.236 223.019 118.236Z" fill="white"/>
<path d="M236.428 104.751C238.166 104.751 239.5 105.188 240.429 106.062C241.357 106.919 241.821 108.196 241.821 109.893V118.11H240.099V116.043C239.694 116.732 239.095 117.27 238.302 117.656C237.525 118.043 236.596 118.236 235.516 118.236C234.03 118.236 232.849 117.883 231.971 117.177C231.093 116.472 230.654 115.539 230.654 114.38C230.654 113.254 231.059 112.346 231.869 111.657C232.697 110.968 234.005 110.624 235.794 110.624H240.024V109.817C240.024 108.675 239.703 107.809 239.061 107.221C238.42 106.616 237.483 106.314 236.25 106.314C235.406 106.314 234.596 106.456 233.819 106.742C233.043 107.011 232.376 107.389 231.819 107.876L231.008 106.54C231.684 105.969 232.494 105.532 233.439 105.23C234.385 104.91 235.381 104.751 236.428 104.751ZM235.794 116.825C236.807 116.825 237.677 116.598 238.403 116.144C239.129 115.673 239.669 115.001 240.024 114.127V111.96H235.845C233.566 111.96 232.426 112.75 232.426 114.329C232.426 115.102 232.722 115.715 233.313 116.169C233.904 116.606 234.731 116.825 235.794 116.825Z" fill="white"/>
<path d="M250.276 118.236C249.195 118.236 248.157 118.085 247.161 117.782C246.182 117.463 245.413 117.068 244.856 116.598L245.667 115.186C246.224 115.623 246.924 115.984 247.769 116.27C248.613 116.539 249.491 116.673 250.402 116.673C251.618 116.673 252.512 116.488 253.086 116.119C253.677 115.732 253.973 115.195 253.973 114.506C253.973 114.018 253.812 113.64 253.492 113.371C253.171 113.086 252.766 112.876 252.276 112.741C251.786 112.59 251.137 112.447 250.326 112.313C249.246 112.111 248.376 111.909 247.718 111.708C247.059 111.489 246.494 111.128 246.021 110.624C245.565 110.12 245.337 109.422 245.337 108.532C245.337 107.423 245.802 106.515 246.73 105.809C247.659 105.104 248.95 104.751 250.605 104.751C251.466 104.751 252.327 104.868 253.188 105.104C254.049 105.322 254.758 105.616 255.315 105.986L254.53 107.423C253.433 106.666 252.124 106.288 250.605 106.288C249.457 106.288 248.587 106.49 247.996 106.893C247.422 107.297 247.135 107.826 247.135 108.481C247.135 108.985 247.296 109.389 247.617 109.691C247.954 109.994 248.368 110.221 248.857 110.372C249.347 110.506 250.022 110.649 250.883 110.8C251.947 111.002 252.799 111.204 253.441 111.405C254.082 111.607 254.631 111.951 255.087 112.439C255.543 112.926 255.771 113.598 255.771 114.455C255.771 115.615 255.281 116.539 254.302 117.228C253.34 117.9 251.998 118.236 250.276 118.236Z" fill="white"/>
<path d="M6.22962 54.9644C4.55436 54.9644 3.11973 54.3674 1.92573 53.1734C0.731724 51.9794 0.135739 50.5458 0.137769 48.8725V6.22961C0.137769 4.55435 0.73477 3.11972 1.92877 1.92572C3.12277 0.731716 4.55639 0.135731 6.22962 0.137762H51.9185C53.5937 0.137762 55.0284 0.734763 56.2224 1.92876C57.4164 3.12277 58.0124 4.55638 58.0103 6.22961V48.8725C58.0103 50.5478 57.4133 51.9824 56.2193 53.1764C55.0253 54.3704 53.5917 54.9664 51.9185 54.9644H6.22962ZM6.22962 39.7348V48.8725H51.9185V39.7348H6.22962ZM42.7807 33.6429H51.9185V6.22961H42.7807V33.6429ZM6.22962 33.6429H15.3674V6.22961H6.22962V33.6429ZM21.4592 33.6429H36.6889V6.22961H21.4592V33.6429Z" fill="white"/>
<path d="M88.9429 54.682C84.8005 54.682 80.7798 54.1703 76.8811 53.1469C72.9823 52.1234 69.8145 50.7589 67.3778 49.0531L72.1294 38.3802C74.4199 39.891 77.076 41.1094 80.0975 42.0353C83.1191 42.9613 86.0919 43.4243 89.016 43.4243C94.5718 43.4243 97.3497 42.0353 97.3497 39.2575C97.3497 37.7954 96.5455 36.7232 94.9373 36.041C93.3778 35.3099 90.8436 34.5546 87.3347 33.7748C83.4846 32.9463 80.2681 32.0691 77.6852 31.1431C75.1022 30.1684 72.8848 28.6333 71.0329 26.5377C69.181 24.4421 68.255 21.6155 68.255 18.0578C68.255 14.9388 69.1079 12.1365 70.8136 9.65107C72.5193 7.11686 75.0535 5.11874 78.4162 3.6567C81.8276 2.19465 85.9945 1.46363 90.9167 1.46363C94.2794 1.46363 97.5933 1.85351 100.859 2.63327C104.124 3.36429 106.999 4.46082 109.485 5.92286L105.025 16.6689C100.152 14.0372 95.4246 12.7214 90.8436 12.7214C87.9682 12.7214 85.8726 13.16 84.5568 14.0372C83.2409 14.8657 82.583 15.9622 82.583 17.3268C82.583 18.6914 83.3628 19.7148 84.9223 20.3971C86.4818 21.0794 88.9916 21.786 92.4518 22.5171C96.3506 23.3455 99.5671 24.2471 102.101 25.2218C104.684 26.1478 106.902 27.6586 108.754 29.7542C110.654 31.801 111.605 34.6033 111.605 38.1609C111.605 41.2312 110.752 44.0091 109.046 46.4946C107.34 48.98 104.782 50.9782 101.37 52.4889C97.9588 53.951 93.8164 54.682 88.9429 54.682Z" fill="white"/>
<path d="M118.291 2.48706H132.765V53.6586H118.291V2.48706Z" fill="white"/>
<path d="M168.575 54.682C163.214 54.682 158.39 53.5611 154.101 51.3193C149.861 49.0288 146.523 45.861 144.086 41.816C141.649 37.771 140.431 33.19 140.431 28.0728C140.431 22.9557 141.649 18.3746 144.086 14.3296C146.523 10.2846 149.861 7.14123 154.101 4.89943C158.39 2.6089 163.214 1.46363 168.575 1.46363C173.254 1.46363 177.469 2.29212 181.222 3.94911C184.974 5.60609 188.093 7.99409 190.579 11.1131L181.368 19.4468C178.054 15.4505 174.033 13.4524 169.306 13.4524C166.528 13.4524 164.043 14.0616 161.85 15.2799C159.705 16.4983 158.024 18.2284 156.806 20.4702C155.636 22.6633 155.051 25.1975 155.051 28.0728C155.051 30.9482 155.636 33.5068 156.806 35.7486C158.024 37.9416 159.705 39.6473 161.85 40.8657C164.043 42.0841 166.528 42.6933 169.306 42.6933C174.033 42.6933 178.054 40.6951 181.368 36.6989L190.579 45.0325C188.093 48.1516 184.974 50.5396 181.222 52.1965C177.469 53.8535 173.254 54.682 168.575 54.682Z" fill="white"/>
<path d="M230.461 43.7167H208.822L204.802 53.6586H190.035L212.624 2.48706H226.879L249.54 53.6586H234.481L230.461 43.7167ZM226.221 33.0438L219.642 16.6689L213.062 33.0438H226.221Z" fill="white"/>
</svg>
