<svg width="17" height="20" viewBox="0 0 17 20" fill="none" xmlns="http://www.w3.org/2000/svg">
<g clip-path="url(#clip0_1_1048)">
<path d="M8.49984 20C9.84011 20 10.9273 18.8809 10.9273 17.5H6.07241C6.07241 18.8809 7.15958 20 8.49984 20ZM16.6731 14.152C15.94 13.341 14.5682 12.1211 14.5682 8.125C14.5682 5.08984 12.5009 2.66016 9.71337 2.06406V1.25C9.71337 0.559766 9.16998 0 8.49984 0C7.82971 0 7.28632 0.559766 7.28632 1.25V2.06406C4.49877 2.66016 2.43145 5.08984 2.43145 8.125C2.43145 12.1211 1.05969 13.341 0.326562 14.152C0.0988833 14.4039 -0.00205419 14.7051 -0.00015687 15C0.00401724 15.6406 0.492388 16.25 1.21792 16.25H15.7818C16.5073 16.25 16.996 15.6406 16.9998 15C17.0017 14.7051 16.9008 14.4035 16.6731 14.152Z" fill="#2A2A2A"/>
</g>
<defs>
<clipPath id="clip0_1_1048">
<rect width="17" height="20" fill="white"/>
</clipPath>
</defs>
</svg>
