<svg width="32" height="28" viewBox="0 0 32 28" fill="none" xmlns="http://www.w3.org/2000/svg">
<path d="M3.59475 1.09007H24.2912L26.2593 3.38673H1.62666L3.59475 1.09007ZM25.4196 25.1353V26.8014H2.46634V8.89274H25.423V13.6188L26.3423 13.7648V8.89274H27.7196V3.98413C27.7196 3.8912 27.6964 3.80823 27.6599 3.73189C27.6466 3.63565 27.6101 3.54272 27.5437 3.46638L24.7127 0.170746H3.17326L0.345578 3.46638C0.282519 3.54604 0.246012 3.63565 0.229417 3.73189C0.19291 3.81155 0.169678 3.8912 0.169678 3.98413V8.89274H1.54701V27.7174H26.339V25.0158L25.4196 25.132V25.1353ZM26.797 7.97673H1.089V4.30274H26.8003V7.97673H26.797Z" fill="#333333"/>
<path d="M19.4524 10.7314H8.43372V15.3214H19.4524V10.7314ZM18.533 14.4054H9.34972V11.6507H18.533V14.4054Z" fill="#333333"/>
<path d="M20.1559 17.618H7.05627V24.0467H20.8296V22.4968L19.9103 21.5675V23.1274H7.9756V18.5374H19.9136L20.1592 17.618H20.1559Z" fill="#333333"/>
<path d="M10.269 22.208H12.5657C12.8179 22.208 13.0237 22.0023 13.0237 21.75C13.0237 21.4978 12.8179 21.292 12.5657 21.292H10.269C10.0168 21.292 9.81104 21.4978 9.81104 21.75C9.81104 22.0023 10.0168 22.208 10.269 22.208Z" fill="#333333"/>
<path d="M12.5657 20.3727H17.617C17.8692 20.3727 18.075 20.1669 18.075 19.9147C18.075 19.6625 17.8692 19.4567 17.617 19.4567H12.5657C12.3134 19.4567 12.1077 19.6625 12.1077 19.9147C12.1077 20.1669 12.3134 20.3727 12.5657 20.3727Z" fill="#333333"/>
<path d="M10.269 20.3727C10.3885 20.3727 10.508 20.3229 10.5943 20.2399C10.6773 20.1536 10.727 20.0342 10.727 19.9147C10.727 19.7952 10.6773 19.6757 10.5943 19.5894C10.4184 19.4202 10.1164 19.4202 9.94379 19.5894C9.86082 19.6757 9.81104 19.7952 9.81104 19.9147C9.81104 20.0342 9.86082 20.1536 9.94379 20.2399C10.0301 20.3229 10.1462 20.3727 10.269 20.3727Z" fill="#333333"/>
<path d="M14.5338 21.4215C14.4508 21.5078 14.401 21.6273 14.401 21.7467C14.401 21.8662 14.4508 21.9857 14.5338 22.072C14.62 22.1549 14.7395 22.2047 14.859 22.2047C14.9785 22.2047 15.098 22.1549 15.1843 22.072C15.2672 21.9857 15.317 21.8662 15.317 21.7467C15.317 21.6273 15.2672 21.5078 15.1843 21.4215C15.015 21.2522 14.703 21.2522 14.5338 21.4215Z" fill="#333333"/>
<path d="M17.6169 21.2887H17.1589C16.9067 21.2887 16.7009 21.4945 16.7009 21.7467C16.7009 21.999 16.9067 22.2047 17.1589 22.2047H17.6169C17.8692 22.2047 18.0749 21.999 18.0749 21.7467C18.0749 21.4945 17.8692 21.2887 17.6169 21.2887Z" fill="#333333"/>
<path d="M31.606 19.4534C31.606 16.035 28.8248 13.2504 25.403 13.2504C17.1756 13.5923 17.1756 25.3145 25.403 25.6564C28.8248 25.6564 31.606 22.8751 31.606 19.4534ZM20.1559 19.4534C20.1559 16.5593 22.509 14.2063 25.403 14.2063C32.366 14.495 32.3627 24.4151 25.403 24.7038C22.509 24.7038 20.1559 22.3508 20.1559 19.4567V19.4534Z" fill="#333333"/>
<path d="M29.0804 19.7687C29.2496 19.5928 29.2496 19.314 29.0804 19.1381L26.2394 16.1943C25.9739 15.8989 25.4429 16.1146 25.4562 16.5096V17.9035H22.0875C21.8353 17.9035 21.6328 18.1059 21.6328 18.3582V20.5453C21.6328 20.7975 21.8353 21 22.0875 21H25.4562V22.3939C25.4429 22.7922 25.9739 23.0046 26.2394 22.7092L29.0804 19.7654V19.7687ZM26.3655 20.5453C26.3655 20.2931 26.1631 20.0906 25.9108 20.0906H22.5422V18.8162H25.9108C26.1631 18.8162 26.3655 18.6137 26.3655 18.3615V17.638L28.1179 19.4534L26.3655 21.2688V20.5453Z" fill="#333333"/>
</svg>
