<svg width="95" height="83" viewBox="0 0 95 83" fill="none" xmlns="http://www.w3.org/2000/svg">
<path d="M10.32 2.77H72.68L78.61 9.69H4.39L10.32 2.77ZM76.08 75.22V80.24H6.92V26.28H76.09V40.52L78.86 40.96V26.28H83.01V11.49C83.01 11.21 82.94 10.96 82.83 10.73C82.79 10.44 82.68 10.16 82.48 9.93L73.95 0H9.05L0.53 9.93C0.34 10.17 0.23 10.44 0.18 10.73C0.07 10.97 0 11.21 0 11.49V26.28H4.15V83H78.85V74.86L76.08 75.21V75.22ZM80.23 23.52H2.77V12.45H80.24V23.52H80.23Z" fill="#333333"/>
<path d="M58.1 31.82H24.9V45.65H58.1V31.82ZM55.33 42.89H27.66V34.59H55.33V42.89Z" fill="#333333"/>
<path d="M60.22 52.57H20.75V71.94H62.25V67.27L59.48 64.47V69.17H23.52V55.34H59.49L60.23 52.57H60.22Z" fill="#333333"/>
<path d="M30.43 66.4H37.35C38.11 66.4 38.73 65.78 38.73 65.02C38.73 64.26 38.11 63.64 37.35 63.64H30.43C29.67 63.64 29.05 64.26 29.05 65.02C29.05 65.78 29.67 66.4 30.43 66.4Z" fill="#333333"/>
<path d="M37.35 60.87H52.57C53.33 60.87 53.95 60.25 53.95 59.49C53.95 58.73 53.33 58.11 52.57 58.11H37.35C36.59 58.11 35.97 58.73 35.97 59.49C35.97 60.25 36.59 60.87 37.35 60.87Z" fill="#333333"/>
<path d="M30.43 60.87C30.79 60.87 31.15 60.72 31.41 60.47C31.66 60.21 31.81 59.85 31.81 59.49C31.81 59.13 31.66 58.77 31.41 58.51C30.88 58 29.9701 58 29.4501 58.51C29.2001 58.77 29.05 59.13 29.05 59.49C29.05 59.85 29.2001 60.21 29.4501 60.47C29.7101 60.72 30.06 60.87 30.43 60.87Z" fill="#333333"/>
<path d="M43.28 64.03C43.03 64.29 42.88 64.65 42.88 65.01C42.88 65.37 43.03 65.73 43.28 65.99C43.54 66.24 43.9 66.39 44.26 66.39C44.62 66.39 44.98 66.24 45.24 65.99C45.49 65.73 45.64 65.37 45.64 65.01C45.64 64.65 45.49 64.29 45.24 64.03C44.73 63.52 43.79 63.52 43.28 64.03Z" fill="#333333"/>
<path d="M52.5701 63.63H51.1901C50.4301 63.63 49.8101 64.25 49.8101 65.01C49.8101 65.77 50.4301 66.39 51.1901 66.39H52.5701C53.3301 66.39 53.9501 65.77 53.9501 65.01C53.9501 64.25 53.3301 63.63 52.5701 63.63Z" fill="#333333"/>
<path d="M94.72 58.1C94.72 47.8 86.34 39.41 76.03 39.41C51.24 40.44 51.24 75.76 76.03 76.79C86.34 76.79 94.72 68.41 94.72 58.1ZM60.22 58.1C60.22 49.38 67.31 42.29 76.03 42.29C97.01 43.16 97 73.05 76.03 73.92C67.31 73.92 60.22 66.83 60.22 58.11V58.1Z" fill="#333333"/>
<path d="M87.11 59.05C87.62 58.52 87.62 57.68 87.11 57.15L78.55 48.28C77.75 47.39 76.15 48.04 76.19 49.23V53.43H66.04C65.28 53.43 64.67 54.04 64.67 54.8V61.39C64.67 62.15 65.28 62.76 66.04 62.76H76.19V66.96C76.15 68.16 77.75 68.8 78.55 67.91L87.11 59.04V59.05ZM78.93 61.39C78.93 60.63 78.32 60.02 77.56 60.02H67.41V56.18H77.56C78.32 56.18 78.93 55.57 78.93 54.81V52.63L84.21 58.1L78.93 63.57V61.39Z" fill="#333333"/>
</svg>
