<svg width="35" height="27" viewBox="0 0 35 27" fill="none" xmlns="http://www.w3.org/2000/svg">
<g clip-path="url(#clip0_372_526492)">
<path d="M16.5612 20.5952H14.3676C14.1277 20.5952 13.9335 20.7904 13.9335 21.0315C13.9335 21.2726 14.1277 21.4678 14.3676 21.4678H16.5612C16.8012 21.4678 16.9954 21.2726 16.9954 21.0315C16.9954 20.7904 16.8012 20.5952 16.5612 20.5952Z" fill="white"/>
<path d="M21.394 18.8269H16.5612C16.3213 18.8269 16.1271 19.0221 16.1271 19.2632C16.1271 19.5043 16.3213 19.6995 16.5612 19.6995H21.394C21.634 19.6995 21.8282 19.5043 21.8282 19.2632C21.8282 19.0221 21.634 18.8269 21.394 18.8269Z" fill="white"/>
<path d="M14.3676 19.711C14.4819 19.711 14.5961 19.6651 14.6761 19.5847C14.7561 19.5043 14.8018 19.3895 14.8018 19.2747C14.8018 19.1599 14.7561 19.045 14.6761 18.9647C14.5047 18.8039 14.2191 18.8039 14.0591 18.9647C13.9792 19.045 13.9335 19.1599 13.9335 19.2747C13.9335 19.3895 13.9792 19.5043 14.0591 19.5847C14.1391 19.6651 14.2534 19.711 14.3676 19.711Z" fill="white"/>
<path d="M18.4464 20.71C18.3664 20.7904 18.3207 20.9052 18.3207 21.02C18.3207 21.1349 18.3664 21.2497 18.4464 21.3301C18.5263 21.4104 18.6406 21.4564 18.7548 21.4564C18.8691 21.4564 18.9833 21.4104 19.0633 21.3301C19.1433 21.2497 19.189 21.1349 19.189 21.02C19.189 20.9052 19.1433 20.7904 19.0633 20.71C18.9034 20.5493 18.6063 20.5493 18.4464 20.71Z" fill="white"/>
<path d="M21.3939 20.5837H20.9598C20.7199 20.5837 20.5256 20.7789 20.5256 21.02C20.5256 21.2612 20.7199 21.4564 20.9598 21.4564H21.3939C21.6339 21.4564 21.8281 21.2612 21.8281 21.02C21.8281 20.7789 21.6339 20.5837 21.3939 20.5837Z" fill="white"/>
<path d="M29.7458 12.9479V8.66491H31.0597V3.94562C31.0597 3.85376 31.0368 3.77338 31.0025 3.70449C30.9911 3.61263 30.9568 3.52077 30.8883 3.45187L28.1805 0.282715H7.58115L4.87341 3.45187C4.81628 3.53225 4.78201 3.61263 4.75916 3.70449C4.72488 3.78486 4.70203 3.85376 4.70203 3.94562V8.66491H6.01592V12.856C-1.8331 13.2005 -1.8331 24.4418 6.01592 24.7748V26.7613H29.7344V24.6944C32.5792 24.2581 34.7728 21.8008 34.7728 18.8269C34.7728 15.8529 32.5792 13.3957 29.7344 12.9593L29.7458 12.9479ZM23.5877 21.5482V22.352H12.174V17.9427H23.0164C22.845 19.1714 23.0393 20.4344 23.5877 21.5482ZM23.2106 17.0586H11.6713C10.9972 14.9114 9.16923 13.2809 6.89564 12.9479V8.66491H28.8546V12.856C28.8546 12.856 28.8432 12.856 28.8318 12.856C25.7127 12.9823 23.8504 14.8425 23.1992 17.0586H23.2106ZM7.98103 1.16686H27.7807L29.6658 3.3715H6.09589L7.98103 1.16686ZM5.58176 7.79224V4.25564H30.1799V7.79224H5.58176ZM1.01174 18.8269C1.01174 16.0481 3.25105 13.7861 6.01592 13.7746C6.01592 13.7746 6.01591 13.7746 6.02734 13.7746C6.33582 13.7861 6.61002 13.8435 6.89564 13.8894C12.3797 14.8769 12.3797 22.7539 6.89564 23.7529C6.62144 23.7988 6.33582 23.8562 6.02734 23.8677C6.02734 23.8677 6.02734 23.8677 6.01592 23.8677C3.25105 23.8677 1.01174 21.6056 1.01174 18.8269ZM28.8546 25.8886H6.89564V24.6944C8.81506 24.4074 10.426 23.2017 11.2829 21.5253V23.2361H24.456V22.8802C25.4385 23.9595 26.8895 24.7059 28.8318 24.7863C28.8318 24.7863 28.8318 24.7863 28.8432 24.7863V25.8886H28.8546ZM28.8432 23.8677C26.0783 23.8677 23.8276 21.6056 23.8276 18.8269C23.8276 16.0366 26.0783 13.7746 28.8432 13.7746C35.504 14.0502 35.504 23.5921 28.8432 23.8677Z" fill="white"/>
<path d="M29.6429 15.6922C29.3915 15.4051 28.8774 15.6118 28.8888 15.9907V17.3342H25.6669C25.427 17.3342 25.2328 17.5294 25.2328 17.7705V19.8718C25.2328 20.1129 25.427 20.3081 25.6669 20.3081H28.8888V21.6516C28.8774 22.0305 29.3801 22.2372 29.6429 21.9501L32.362 19.1254C32.522 18.9647 32.522 18.6891 32.362 18.5169L29.6429 15.6922ZM29.7685 20.5722V19.8718C29.7685 19.6306 29.5743 19.4354 29.3344 19.4354H26.1125V18.2068H29.3344C29.5743 18.2068 29.7685 18.0116 29.7685 17.7705V17.0701L31.448 18.8154L29.7685 20.5607V20.5722Z" fill="white"/>
<path d="M12.6082 14.8539H23.1535V10.4447H12.6082V14.8539ZM13.4879 11.3288H22.2738V13.9813H13.4879V11.3288Z" fill="white"/>
<path d="M6.08437 21.6516C6.07294 22.0305 6.57564 22.2372 6.83842 21.9501L6.90697 21.8812L9.55758 19.1139C9.71754 18.9532 9.71754 18.6776 9.55758 18.5054L6.90697 15.7381L6.83842 15.6692C6.58707 15.3821 6.07294 15.5888 6.08437 15.9678V17.3112H2.8625C2.62257 17.3112 2.42834 17.5064 2.42834 17.7475V19.8488C2.42834 20.09 2.62257 20.2852 2.8625 20.2852H6.08437V21.6286V21.6516ZM6.01582 19.4355H3.29665V18.2068H6.51852C6.68989 18.2068 6.82699 18.115 6.89555 17.9772C6.92982 17.9198 6.95267 17.8509 6.95267 17.7705V17.0701L8.63216 18.8154L6.95267 20.5607V19.8603C6.95267 19.7799 6.92982 19.7225 6.89555 19.6536C6.82699 19.5158 6.67847 19.424 6.51852 19.424H6.01582V19.4355Z" fill="white"/>
</g>
<defs>
<clipPath id="clip0_372_526492">
<rect width="34.6408" height="26.49" fill="white" transform="translate(0.131958 0.282715)"/>
</clipPath>
</defs>
</svg>
