<svg width="83" height="83" viewBox="0 0 83 83" fill="none" xmlns="http://www.w3.org/2000/svg">
<path d="M41.0276 76.8852L37.6868 78.8149V42.5167L69.2222 24.3052V38.0615C69.2469 40.0854 72.2707 40.0757 72.2967 38.0615C72.2445 38.0004 72.3481 21.4909 72.285 21.4352C72.2555 20.9205 71.9782 20.4504 71.528 20.1903L36.9252 0.206223C36.4496 -0.0682837 35.8628 -0.068969 35.3873 0.205537L0.76862 20.1897C0.293042 20.4642 0 20.9713 0 21.521V61.4893C0 62.039 0.293042 62.5461 0.76862 62.8206L35.3873 82.8048C35.8752 83.0607 36.4373 83.0696 36.9245 82.8041L42.5663 79.5449C44.306 78.5197 42.768 75.8879 41.0283 76.8837L41.0276 76.8852ZM15.2143 31.3073L20.3778 34.2892V42.9993L15.2143 40.0181V31.3073ZM16.6513 28.587L48.2851 10.3193L53.4479 13.3005L21.8142 31.57L16.6513 28.587ZM56.5229 15.0758L67.7901 21.5823L36.1564 39.85L24.8885 33.3428L56.5229 15.0758ZM36.1541 3.31319L45.2115 8.54385L13.5777 26.8115L4.51485 21.5781L36.1541 3.31319ZM3.07265 24.2952L12.1396 29.5315V40.9049C12.1396 41.4546 12.4326 41.9618 12.9082 42.2363L21.1462 46.9935C22.1214 47.5967 23.4884 46.8096 23.4521 45.6621V36.064L34.6116 42.5081V78.808L3.07265 60.6018V24.2952Z" fill="white"/>
<path d="M32.4156 68.4347L21.7201 62.2591C19.9776 61.2626 18.4439 63.9075 20.1828 64.9224L30.8783 71.0981C32.6105 72.0939 34.1594 69.4531 32.4156 68.4347Z" fill="white"/>
<path d="M20.1826 58.7738C20.1826 58.7738 22.7506 60.2569 25.3701 61.7694C28.096 63.343 30.8782 64.9497 30.8782 64.9497C31.6008 65.3697 32.5513 65.1288 32.9781 64.3869C33.4022 63.6519 33.151 62.7117 32.4154 62.287L21.7199 56.1106C19.9781 55.1128 18.4437 57.7595 20.1826 58.7738Z" fill="white"/>
<path d="M82.9578 62.9757C82.9578 51.9569 73.9931 42.9916 62.9736 42.9916C36.4611 44.0896 36.4699 81.8653 62.9736 82.9598C73.9931 82.9598 82.9578 73.9945 82.9578 62.9757ZM46.064 62.9757C46.064 53.6514 53.6494 46.0661 62.9736 46.0661C85.4068 46.9946 85.3998 78.9595 62.9736 79.8853C53.6494 79.8853 46.064 72.3 46.064 62.9757Z" fill="white"/>
<path d="M75.5176 64.042C76.0927 63.4477 76.0927 62.5021 75.5176 61.9071L65.9243 51.9706C65.0267 50.9741 63.2362 51.6974 63.2815 53.0377L63.2815 57.7469L51.9052 57.7469C51.0563 57.7469 50.368 58.4346 50.368 59.2842L50.368 66.6643C50.368 67.5139 51.0563 68.2016 51.9052 68.2016L63.2815 68.2016L63.2815 72.9108C63.2376 74.2504 65.0253 74.9758 65.9243 73.978C65.9243 73.9786 75.5176 64.042 75.5176 64.042ZM66.3553 66.665C66.3553 65.8154 65.6669 65.1278 64.818 65.1278L53.4417 65.1278L53.4417 60.8221L64.818 60.8221C65.6669 60.8221 66.3553 60.1344 66.3553 59.2848L66.3553 56.8437L72.275 62.9748L66.356 69.1058L66.3553 66.665Z" fill="white"/>
</svg>
