<svg width="32" height="33" viewBox="0 0 32 33" fill="none" xmlns="http://www.w3.org/2000/svg">
<path d="M31.3318 17.5464H30.2039L30.2041 0.855952C30.2041 0.486867 29.9055 0.188477 29.5367 0.188477H22.063C21.6939 0.188477 21.3955 0.487153 21.3955 0.855952V21.5812H20.4978V0.855952C20.4978 0.486867 20.1991 0.188477 19.8303 0.188477H12.3573C11.9882 0.188477 11.6898 0.487153 11.6898 0.855952V21.5812H10.7921V0.855952C10.7921 0.486867 10.4934 0.188477 10.1246 0.188477H2.65166C2.28258 0.188477 1.98419 0.487153 1.98419 0.855952V17.5464H0.856231C0.487145 17.5464 0.188756 17.8451 0.188756 18.2139L0.188477 31.5641C0.188477 31.9332 0.487152 32.2316 0.855952 32.2316H31.3322C31.7013 32.2316 31.9997 31.9329 31.9997 31.5641L32 18.2139C32 17.8448 31.7013 17.5461 31.3322 17.5461L31.3318 17.5464ZM22.7302 1.52329H28.8688V17.5464H26.4822C26.1941 17.5464 25.9379 17.7317 25.8479 18.0055L24.6739 21.5812H22.7304L22.7302 1.52329ZM13.0242 1.52329H19.1619V21.5812H13.0242V1.52329ZM3.31815 1.52329H9.45589V21.5812H7.51326L6.33924 18.006C6.24927 17.7317 5.99307 17.5464 5.70501 17.5464H3.31842L3.31815 1.52329ZM30.6638 30.8959H1.52286V18.8811H5.22122L6.39524 22.4562C6.48521 22.7306 6.74141 22.9158 7.02947 22.9158H25.1562C25.4442 22.9158 25.7004 22.7306 25.7904 22.4568L26.9644 18.8811H30.6637L30.6638 30.8959Z" fill="#333333"/>
<path d="M6.38732 6.96282C7.48645 6.96282 8.38024 6.06903 8.38024 4.9699C8.38024 3.87134 7.48645 2.97756 6.38732 2.97756C5.28819 2.97756 4.39441 3.87134 4.39441 4.9699C4.39441 6.06903 5.28819 6.96282 6.38732 6.96282ZM6.38732 4.31272C6.7497 4.31272 7.04502 4.60749 7.04502 4.96986C7.04502 5.33224 6.7497 5.62756 6.38732 5.62756C6.02495 5.62756 5.72962 5.33224 5.72962 4.96986C5.72962 4.60721 6.02495 4.31272 6.38732 4.31272Z" fill="#333333"/>
<path d="M4.73645 10.3152H8.03777C8.40686 10.3152 8.70525 10.0165 8.70525 9.64773C8.70525 9.27865 8.40657 8.98026 8.03777 8.98026H4.73645C4.36736 8.98026 4.06897 9.27893 4.06897 9.64773C4.06897 10.0165 4.36737 10.3152 4.73645 10.3152Z" fill="#333333"/>
<path d="M4.73645 12.6348H8.03777C8.40686 12.6348 8.70525 12.3361 8.70525 11.9673C8.70525 11.5982 8.40657 11.2998 8.03777 11.2998H4.73645C4.36736 11.2998 4.06897 11.5985 4.06897 11.9673C4.06897 12.3361 4.36737 12.6348 4.73645 12.6348Z" fill="#333333"/>
<path d="M8.70549 14.2856C8.70549 13.9165 8.40682 13.6181 8.03802 13.6181H4.73669C4.3676 13.6181 4.06921 13.9168 4.06921 14.2856C4.06921 14.6547 4.36789 14.9531 4.73669 14.9531H8.03802C8.4071 14.9531 8.70549 14.6547 8.70549 14.2856Z" fill="#333333"/>
<path d="M16.0941 6.96282C17.1927 6.96282 18.0865 6.06903 18.0865 4.9699C18.0865 3.87134 17.1927 2.97756 16.0941 2.97756C14.995 2.97756 14.1012 3.87134 14.1012 4.9699C14.1012 6.06903 14.995 6.96282 16.0941 6.96282ZM16.0941 4.31272C16.4565 4.31272 16.7513 4.60749 16.7513 4.96986C16.7513 5.33224 16.4565 5.62756 16.0941 5.62756C15.7317 5.62756 15.4364 5.33224 15.4364 4.96986C15.4364 4.60721 15.7317 4.31272 16.0941 4.31272Z" fill="#333333"/>
<path d="M17.7449 8.97983H14.4436C14.0745 8.97983 13.7761 9.27851 13.7761 9.64731C13.7761 10.0164 14.0748 10.3148 14.4436 10.3148H17.7449C18.114 10.3148 18.4124 10.0161 18.4124 9.64731C18.4124 9.27851 18.114 8.97983 17.7449 8.97983Z" fill="#333333"/>
<path d="M17.7449 11.2994H14.4436C14.0745 11.2994 13.7761 11.598 13.7761 11.9668C13.7761 12.3359 14.0748 12.6343 14.4436 12.6343H17.7449C18.114 12.6343 18.4124 12.3356 18.4124 11.9668C18.4124 11.598 18.114 11.2994 17.7449 11.2994Z" fill="#333333"/>
<path d="M17.7449 13.6182H14.4436C14.0745 13.6182 13.7761 13.9169 13.7761 14.2857C13.7761 14.6548 14.0748 14.9532 14.4436 14.9532H17.7449C18.114 14.9532 18.4124 14.6545 18.4124 14.2857C18.4124 13.9166 18.114 13.6182 17.7449 13.6182Z" fill="#333333"/>
<path d="M25.8008 6.96282C26.8993 6.96282 27.7931 6.06903 27.7931 4.9699C27.7931 3.87134 26.8993 2.97756 25.8008 2.97756C24.7016 2.97756 23.8079 3.87134 23.8079 4.9699C23.8079 6.06903 24.7016 6.96282 25.8008 6.96282ZM25.8008 4.31272C26.1632 4.31272 26.4579 4.60749 26.4579 4.96986C26.4579 5.33224 26.1632 5.62756 25.8008 5.62756C25.4384 5.62756 25.1431 5.33224 25.1431 4.96986C25.1431 4.60721 25.4384 4.31272 25.8008 4.31272Z" fill="#333333"/>
<path d="M24.15 10.3152H27.4513C27.8204 10.3152 28.1188 10.0165 28.1188 9.64773C28.1188 9.27865 27.8201 8.98026 27.4513 8.98026H24.15C23.7809 8.98026 23.4825 9.27893 23.4825 9.64773C23.4825 10.0165 23.7809 10.3152 24.15 10.3152Z" fill="#333333"/>
<path d="M24.15 12.6348H27.4513C27.8204 12.6348 28.1188 12.3361 28.1188 11.9673C28.1188 11.5982 27.8201 11.2998 27.4513 11.2998H24.15C23.7809 11.2998 23.4825 11.5985 23.4825 11.9673C23.4825 12.3361 23.7809 12.6348 24.15 12.6348Z" fill="#333333"/>
<path d="M28.1189 14.2856C28.1189 13.9165 27.8203 13.6181 27.4515 13.6181H24.1501C23.7811 13.6181 23.4827 13.9168 23.4827 14.2856C23.4827 14.6547 23.7813 14.9531 24.1501 14.9531H27.4515C27.8206 14.9531 28.1189 14.6547 28.1189 14.2856Z" fill="#333333"/>
<path d="M20.3469 24.5366H11.8396C11.2985 24.5366 10.7899 24.7473 10.4075 25.1298C10.0306 25.5067 9.81433 26.0289 9.81433 26.5619C9.81433 27.6792 10.7232 28.5881 11.8399 28.5881H20.3472C20.8889 28.5881 21.3975 28.3774 21.7802 27.9949C22.163 27.6122 22.3733 27.1037 22.3733 26.5619C22.3731 25.4455 21.4642 24.5366 20.3469 24.5366ZM20.8358 27.0512C20.7053 27.1816 20.5321 27.2532 20.3469 27.2532H11.8396C11.4588 27.2532 11.1493 26.9428 11.1493 26.5622C11.1493 26.3803 11.223 26.2024 11.3513 26.0738C11.4817 25.9434 11.655 25.8718 11.8396 25.8718H20.3469C20.7277 25.8718 21.0378 26.1814 21.0378 26.5622C21.0378 26.7475 20.966 26.9207 20.8358 27.0512Z" fill="#333333"/>
</svg>
