<svg width="30" height="30" viewBox="0 0 30 30" fill="none" xmlns="http://www.w3.org/2000/svg">
<path d="M15.2098 0.00139365C6.77416 -0.112538 -0.112543 6.77383 0.00139372 15.2091C0.113889 23.299 6.70133 29.8861 14.7916 29.9986C23.2287 30.1139 30.1139 23.2276 29.9986 14.7923C29.8875 6.701 23.3001 0.113883 15.2098 0.00139365ZM24.3262 23.5989C24.2975 23.63 24.2623 23.6544 24.2231 23.6703C24.1839 23.6862 24.1417 23.6933 24.0994 23.6911C24.0572 23.6889 24.0159 23.6775 23.9786 23.6576C23.9413 23.6376 23.9088 23.6097 23.8835 23.5759C23.2385 22.732 22.4486 22.0095 21.5506 21.4422C19.7147 20.2639 17.3883 19.6149 15.0007 19.6149C12.6131 19.6149 10.2867 20.2639 8.45076 21.4422C7.55288 22.0093 6.76298 22.7315 6.11794 23.5751C6.0926 23.609 6.06011 23.6369 6.02279 23.6568C5.98547 23.6768 5.94421 23.6882 5.90196 23.6904C5.85971 23.6926 5.81749 23.6855 5.7783 23.6696C5.7391 23.6536 5.7039 23.6293 5.67517 23.5982C3.55917 21.3141 2.36054 18.3295 2.30898 15.2163C2.19144 8.19942 7.94959 2.32617 14.9697 2.30887C21.9898 2.29156 27.6924 7.99175 27.6924 15C27.6948 18.1882 26.4925 21.2596 24.3262 23.5989Z" fill="#2A2A2A"/>
<path d="M15.0005 6.92383C13.5784 6.92383 12.2927 7.45671 11.379 8.42513C10.4653 9.39355 10.0089 10.7326 10.112 12.1697C10.3211 15 12.514 17.3075 15.0005 17.3075C17.4869 17.3075 19.6755 15 19.8889 12.1704C19.9957 10.747 19.5428 9.42023 18.614 8.43378C17.6967 7.46032 16.4131 6.92383 15.0005 6.92383Z" fill="#2A2A2A"/>
</svg>
