<svg width="23" height="23" viewBox="0 0 23 23" fill="none" xmlns="http://www.w3.org/2000/svg">
<path d="M18.5277 20.4436H4.47211V14.0547H3.19434V20.4436C3.19434 20.7825 3.32896 21.1075 3.56859 21.3471C3.80822 21.5867 4.13323 21.7214 4.47211 21.7214H18.5277C18.8666 21.7214 19.1916 21.5867 19.4312 21.3471C19.6708 21.1075 19.8054 20.7825 19.8054 20.4436V14.0547H18.5277V20.4436Z" fill="white"/>
<path d="M8.94434 15.3342C8.94434 15.5036 9.01165 15.6661 9.13146 15.786C9.25128 15.9058 9.41378 15.9731 9.58322 15.9731H13.4166C13.586 15.9731 13.7485 15.9058 13.8683 15.786C13.9881 15.6661 14.0554 15.5036 14.0554 15.3342C14.0554 15.1648 13.9881 15.0023 13.8683 14.8824C13.7485 14.7626 13.586 14.6953 13.4166 14.6953H9.58322C9.41378 14.6953 9.25128 14.7626 9.13146 14.8824C9.01165 15.0023 8.94434 15.1648 8.94434 15.3342Z" fill="white"/>
<path d="M8.94455 11.4974H3.83344V8.94184H6.389C6.11248 8.60462 5.95923 8.18319 5.95455 7.74712C5.95455 7.74712 5.95455 7.68962 5.95455 7.66406H3.514C3.25983 7.66406 3.01608 7.76503 2.83635 7.94475C2.65663 8.12447 2.55566 8.36823 2.55566 8.6224V12.7752H10.2223L8.94455 11.4974Z" fill="white"/>
<path d="M19.4862 7.66406H17.0328V7.74712C17.0318 8.18164 16.8831 8.60291 16.6112 8.94184H19.1667V11.4974H14.0556L12.7778 12.7752H20.4445V8.6224C20.4445 8.36823 20.3435 8.12447 20.1638 7.94475C19.9841 7.76503 19.7403 7.66406 19.4862 7.66406Z" fill="white"/>
<path d="M11.4999 12.2535L15.576 8.19651C15.65 8.14261 15.7115 8.07346 15.7564 7.99373C15.8013 7.91401 15.8285 7.82557 15.8363 7.73441C15.844 7.64324 15.8321 7.55147 15.8013 7.46531C15.7705 7.37914 15.7216 7.3006 15.6578 7.23498C15.5941 7.16937 15.517 7.11821 15.4317 7.08498C15.3465 7.05175 15.2551 7.03722 15.1637 7.04237C15.0724 7.04752 14.9832 7.07223 14.9022 7.11483C14.8212 7.15743 14.7504 7.21692 14.6944 7.28929L12.1388 9.8129V1.91623C12.1388 1.74679 12.0715 1.58428 11.9517 1.46447C11.8319 1.34466 11.6694 1.27734 11.4999 1.27734C11.3305 1.27734 11.168 1.34466 11.0482 1.46447C10.9284 1.58428 10.861 1.74679 10.861 1.91623V9.83845L8.30549 7.31484C8.18518 7.19539 8.02235 7.12861 7.85281 7.12921C7.68327 7.12981 7.52092 7.19773 7.40146 7.31804C7.282 7.43834 7.21523 7.60118 7.21582 7.77071C7.21642 7.94025 7.28435 8.10261 7.40465 8.22207L11.4999 12.2535Z" fill="white"/>
</svg>
