<svg width="23" height="23" viewBox="0 0 23 23" fill="none" xmlns="http://www.w3.org/2000/svg">
<path d="M7.42708 11.0209C7.23646 11.0209 7.05364 11.0966 6.91885 11.2314C6.78406 11.3662 6.70833 11.549 6.70833 11.7396C6.70833 11.9302 6.78406 12.113 6.91885 12.2478C7.05364 12.3826 7.23646 12.4584 7.42708 12.4584C7.61771 12.4584 7.80052 12.3826 7.93531 12.2478C8.07011 12.113 8.14583 11.9302 8.14583 11.7396C8.14583 11.549 8.07011 11.3662 7.93531 11.2314C7.80052 11.0966 7.61771 11.0209 7.42708 11.0209ZM6.70833 14.6146C6.70833 14.424 6.78406 14.2412 6.91885 14.1064C7.05364 13.9716 7.23646 13.8959 7.42708 13.8959C7.61771 13.8959 7.80052 13.9716 7.93531 14.1064C8.07011 14.2412 8.14583 14.424 8.14583 14.6146C8.14583 14.8052 8.07011 14.988 7.93531 15.1228C7.80052 15.2576 7.61771 15.3334 7.42708 15.3334C7.23646 15.3334 7.05364 15.2576 6.91885 15.1228C6.78406 14.988 6.70833 14.8052 6.70833 14.6146ZM9.58333 11.7396C9.58333 11.549 9.65906 11.3662 9.79385 11.2314C9.92864 11.0966 10.1115 11.0209 10.3021 11.0209H13.2288C13.4195 11.0209 13.6023 11.0966 13.7371 11.2314C13.8719 11.3662 13.9476 11.549 13.9476 11.7396C13.9476 11.9302 13.8719 12.113 13.7371 12.2478C13.6023 12.3826 13.4195 12.4584 13.2288 12.4584H10.3021C10.1115 12.4584 9.92864 12.3826 9.79385 12.2478C9.65906 12.113 9.58333 11.9302 9.58333 11.7396ZM10.3021 13.8959C10.1115 13.8959 9.92864 13.9716 9.79385 14.1064C9.65906 14.2412 9.58333 14.424 9.58333 14.6146C9.58333 14.8052 9.65906 14.988 9.79385 15.1228C9.92864 15.2576 10.1115 15.3334 10.3021 15.3334H13.2288C13.4195 15.3334 13.6023 15.2576 13.7371 15.1228C13.8719 14.988 13.9476 14.8052 13.9476 14.6146C13.9476 14.424 13.8719 14.2412 13.7371 14.1064C13.6023 13.9716 13.4195 13.8959 13.2288 13.8959H10.3021ZM5.98958 1.91669C5.41771 1.91669 4.86926 2.14386 4.46488 2.54824C4.06051 2.95261 3.83333 3.50106 3.83333 4.07294V16.5313C3.83333 17.1031 4.06051 17.6516 4.46488 18.056C4.86926 18.4603 5.41771 18.6875 5.98958 18.6875H14.6146C15.1865 18.6875 15.7349 18.4603 16.1393 18.056C16.5437 17.6516 16.7708 17.1031 16.7708 16.5313V8.49948C16.7708 8.21632 16.7151 7.93592 16.6067 7.67431C16.4983 7.4127 16.3395 7.175 16.1393 6.97477L11.7127 2.54823C11.3086 2.14409 10.7605 1.91694 10.189 1.91669H5.98958ZM5.27083 4.07294C5.27083 3.88231 5.34656 3.6995 5.48135 3.5647C5.61614 3.42991 5.79896 3.35419 5.98958 3.35419H10.0663V6.46685C10.0663 6.75002 10.1221 7.03041 10.2305 7.29202C10.3388 7.55362 10.4977 7.79133 10.6979 7.99155C11.1023 8.39593 11.6507 8.6231 12.2226 8.6231H15.3333V16.5313C15.3333 16.7219 15.2576 16.9047 15.1228 17.0395C14.988 17.1743 14.8052 17.25 14.6146 17.25H5.98958C5.79896 17.25 5.61614 17.1743 5.48135 17.0395C5.34656 16.9047 5.27083 16.7219 5.27083 16.5313V4.07294ZM11.5038 6.46685V4.37194L14.3165 7.1856H12.2226C12.032 7.1856 11.8491 7.10988 11.7143 6.97509C11.5796 6.84029 11.5038 6.65748 11.5038 6.46685ZM8.38542 21.0834C7.9394 21.0835 7.50432 20.9453 7.14012 20.6879C6.77591 20.4304 6.5005 20.0664 6.35183 19.6459H14.6146C15.4406 19.6459 16.2328 19.3177 16.8169 18.7336C17.401 18.1495 17.7292 17.3573 17.7292 16.5313V8.56465L18.5342 9.36965C18.9395 9.77502 19.1667 10.3232 19.1667 10.8953V16.5313C19.1667 17.1291 19.0489 17.721 18.8202 18.2733C18.5914 18.8256 18.2561 19.3274 17.8334 19.7501C17.4107 20.1728 16.9089 20.5081 16.3566 20.7368C15.8043 20.9656 15.2124 21.0834 14.6146 21.0834H8.38542Z" fill="white"/>
</svg>
