<svg width="23" height="23" viewBox="0 0 23 23" fill="none" xmlns="http://www.w3.org/2000/svg">
<path d="M10.8637 2.15912C11.039 2.00338 11.2655 1.91737 11.5 1.91737C11.7345 1.91737 11.961 2.00338 12.1363 2.15912L20.7613 9.82579C20.9416 9.99706 21.0483 10.2317 21.0588 10.4802C21.0693 10.7286 20.9828 10.9714 20.8176 11.1573C20.6524 11.3431 20.4214 11.4575 20.1734 11.4762C19.9254 11.4949 19.6799 11.4165 19.4887 11.2575L19.1667 10.9729V18.2083C19.1667 18.7167 18.9647 19.2042 18.6053 19.5636C18.2458 19.9231 17.7583 20.125 17.25 20.125H5.75C5.24167 20.125 4.75416 19.9231 4.39471 19.5636C4.03527 19.2042 3.83333 18.7167 3.83333 18.2083V10.9729L3.51133 11.2575C3.32011 11.4165 3.07457 11.4949 2.8266 11.4762C2.57863 11.4575 2.34765 11.3431 2.18244 11.1573C2.01723 10.9714 1.93073 10.7286 1.94122 10.4802C1.95172 10.2317 2.05837 9.99706 2.23867 9.82579L10.8637 2.15912ZM5.75 9.26708V18.2083H8.625V13.4167C8.625 13.1625 8.72597 12.9187 8.90569 12.739C9.08541 12.5593 9.32917 12.4583 9.58333 12.4583H13.4167C13.6708 12.4583 13.9146 12.5593 14.0943 12.739C14.274 12.9187 14.375 13.1625 14.375 13.4167V18.2083H17.25V9.26804L11.5 4.15725L5.75 9.26708ZM12.4583 18.2083V14.375H10.5417V18.2083H12.4583Z" fill="white"/>
</svg>
