<svg width="23" height="23" viewBox="0 0 23 23" fill="none" xmlns="http://www.w3.org/2000/svg">
<path d="M5.1245 13.8769C4.87874 13.8766 4.63958 13.9564 4.44319 14.1041C4.2468 14.2519 4.10387 14.4596 4.036 14.6958C3.96812 14.932 3.97901 15.1839 4.06701 15.4133C4.15501 15.6428 4.31534 15.8374 4.52374 15.9676L7.56486 19.0087C7.66998 19.1138 7.79475 19.1971 7.93207 19.2539C8.06938 19.3107 8.21654 19.3399 8.36514 19.3399C8.51374 19.3398 8.66088 19.3105 8.79815 19.2536C8.93542 19.1967 9.06014 19.1133 9.16518 19.0082C9.27022 18.9031 9.35353 18.7783 9.41035 18.641C9.46717 18.5037 9.49639 18.3565 9.49634 18.2079C9.49628 18.0593 9.46696 17.9122 9.41005 17.7749C9.35313 17.6376 9.26973 17.5129 9.16462 17.4079L7.89635 16.1407H16.4382C16.7382 16.1407 17.026 16.0215 17.2382 15.8094C17.4504 15.5972 17.5695 15.3094 17.5695 15.0094C17.5695 14.7093 17.4504 14.4215 17.2382 14.2094C17.026 13.9972 16.7382 13.878 16.4382 13.878L5.1245 13.8769ZM20.9795 11.6503C21.2253 11.6506 21.4644 11.5708 21.6608 11.423C21.8572 11.2753 22.0001 11.0676 22.068 10.8314C22.1359 10.5952 22.125 10.3433 22.037 10.1138C21.949 9.88438 21.7887 9.68981 21.5802 9.55956L18.5391 6.51844C18.3268 6.3063 18.039 6.18718 17.7389 6.18729C17.4387 6.18739 17.151 6.30672 16.9388 6.51901C16.7267 6.7313 16.6076 7.01917 16.6077 7.31928C16.6078 7.6194 16.7271 7.90719 16.9394 8.11933L18.2076 9.38646H9.66581C9.36575 9.38646 9.07799 9.50566 8.86581 9.71783C8.65364 9.93 8.53444 10.2178 8.53444 10.5178C8.53444 10.8179 8.65364 11.1057 8.86581 11.3178C9.07799 11.53 9.36575 11.6492 9.66581 11.6492L20.9795 11.6503Z" fill="white"/>
</svg>
